<?xml version="1.0" encoding="UTF-8"?>
<svg id="Layer_2" data-name="Layer 2" xmlns="http://www.w3.org/2000/svg" viewBox="0 0 37.26 37.49">
  <defs>
    <style>
      .cls-1 {
        fill: #3068cc;
      }

      .cls-2 {
        fill: #246af5;
      }

      .cls-3 {
        fill: #fdfdfe;
      }

      .cls-4 {
        fill: #fefefe;
      }

      .cls-5 {
        fill: #2e66ca;
      }

      .cls-6 {
        fill: #fdfefe;
      }
    </style>
  </defs>
  <g id="Layer_1-2" data-name="Layer 1">
    <g>
      <path class="cls-4" d="M14.79,37.02v-2.79c0-.4-.29-.63-.68-.66-1.81-.17-3.53-.45-5.23-1.06-2.85-1.01-5.01-3.18-5.82-6.1-.1-.38-.37-.62-.74-.74-1.17-.38-1.88-1.42-2.1-2.62-.29-1.61-.29-3.23.03-4.84.23-1.16.95-2.11,2.05-2.5.43-.15.65-.43.78-.86,1.48-5.04,6.07-6.65,11.04-7.03.98-.91,2.21-1.24,3.54-1.32.26-1.06.56-2.25.13-2.47-.94-.48-1.42-1.44-1.17-2.48C16.83.65,17.7-.02,18.69,0s1.8.74,1.99,1.65c.22,1.09-.36,2.01-1.41,2.47.01.8.12,1.58.32,2.37,1.32.07,2.52.34,3.47,1.26,1.5.18,2.92.35,4.34.78,1.89.48,3.5,1.41,4.87,2.77,1.13,1.14,1.51,2.78,2.26,4.06,1.15.71,2.35,1.35,2.55,2.95.34,2.62.5,6.45-2.02,7.29-.49.16-.71.44-.86.93-.8,2.62-2.59,4.72-5.17,5.71l-13.61,5.21c-.17.07-.37-.02-.45-.08s-.17-.2-.17-.37Z"/>
      <g>
        <path class="cls-2" d="M30.64,16.56c-.01.21,0,.42.02.63.39,3.56.81,7.99-1.93,10.76-1.35.95-2.96,1.36-4.67,1.57-3.55.44-7.07.42-10.62.05-1.53-.16-2.93-.55-4.29-1.18l-.62-.45c-1.55-1.46-1.86-3.23-2.16-5.26-.37-2.55.05-5.94,1.17-8.26,1.16-1.73,3.72-2.4,5.87-2.63,3.48-.38,6.95-.38,10.43,0,1.29.14,2.47.46,3.64.91,1.73.67,2.74,2.12,3.15,3.87Z"/>
        <path class="cls-1" d="M8.54,27.94c-2.15-1.55-2.4-5.14-2.32-7.86.05-1.98.22-4,1.33-5.66.05.36-.21.6-.3.92l-.41,1.37c-.2.68-.39,1.47-.38,2.23l.02,3.74c.19,1.6.52,3.14,1.43,4.45.21.3.65.45.62.82Z"/>
        <path class="cls-5" d="M28.74,27.95c-.12-.06-.11-.17-.01-.25.9-.71,1.47-1.66,1.66-2.79l.41-2.49v-3.62c0-.8-.41-1.54-.15-2.25.77,3.33.81,9.48-1.91,11.4Z"/>
        <path class="cls-6" d="M25.56,19.51c.34,1.73.05,3.56-1.41,3.59-.68.01-1.23-.34-1.45-1.04-.48-1.49-.22-3.75,1.32-3.8.78-.03,1.37.41,1.54,1.26Z"/>
        <path class="cls-3" d="M14.51,22.22c-.24.66-.85.86-1.4.86-1.44.01-1.75-1.87-1.4-3.58.14-.67.6-1.13,1.12-1.2.72-.1,1.38.06,1.66.78.37.96.39,2.11.02,3.13Z"/>
      </g>
    </g>
  </g>
</svg>