<?xml version="1.0" encoding="UTF-8"?>
<svg id="Layer_1" xmlns="http://www.w3.org/2000/svg" version="1.1" viewBox="0 0 829 244.3">
  <!-- Generator: Adobe Illustrator 30.3.0, SVG Export Plug-In . SVG Version: 2.1.3 Build 182)  -->
  <defs>
    <style>
      .st0 {
        fill: #fff;
      }

      .st1 {
        fill: #edc677;
      }
    </style>
  </defs>
  <g>
    <path class="st0" d="M40.3,94.8c3.5,0,6.8,1.5,9,4.2l11.3-10c-.9-1.4-1.3-3-1.3-4.6s.2-2.2.7-3.3l-28.2-17.4c-.8.8-1.6,1.5-2.6,2l8.7,29.4c.9,0,1.6-.2,2.5-.2h0Z"/>
    <path class="st0" d="M233.9,58.3c-1.3,2.4-3.6,4.1-6.3,4.6v25c1.3.2,2.6.7,3.8,1.3l14.4-21.1c-1.1-1.5-1.6-3.3-1.6-5v-1l-10.3-3.8h0Z"/>
    <path class="st0" d="M237.4,97.4l20.7-3c.1-3.6,2.4-6.8,5.8-7.9-2.1-5.4-4.5-10.5-7.4-15.6-1.2.5-2.4.9-3.7.9s-3.5-.5-4.9-1.5l-14,20.6c1.9,1.6,3.1,4,3.5,6.5h0Z"/>
    <path class="st0" d="M267.1,103.5c-3.8,0-7.2-2.4-8.3-6l-21.1,3.1c-.7,6.5-6.4,11.2-12.8,10.5-5.8-.5-10.3-5.4-10.6-11.2l-19.8-4.1c-2.3,4.3-7.7,5.8-12,3.4-2.9-1.5-4.6-4.6-4.5-7.9,0-1,.2-2,.5-3l-19.4-18.2c-3.3,2.3-7.8,2.1-10.8-.5l-28.5,21.3c.3,1,.5,2,.5,3,0,4.8-4,8.8-8.8,8.8s-8.8-4-8.8-8.8,0-.7,0-.9l-26.2-5.4c-1.8,4.5-6.9,6.7-11.4,4.9-.9-.3-1.6-.8-2.3-1.3l-11.7,10.3c2.7,5.9,0,12.8-5.8,15.6-5.9,2.7-12.8,0-15.6-5.8-.7-1.5-1.1-3.2-1.1-4.8v-.8l-12-4.9c-2.6,4.6-8.1,6.8-13.3,5.4-11.3,49.4,5.6,101,44,134.1v-15.3c0-11.5,7-21.9,17.8-26.3-8.8-5.9-11.2-17.9-5.3-26.8,5.9-8.9,17.9-11.2,26.8-5.3,8.8,5.9,11.2,17.9,5.3,26.8-1.4,2.1-3.2,3.8-5.3,5.3,4.8,2,9.1,5.3,12.2,9.5,1-14.5,10.2-27,23.6-32.5-11.7-7.9-14.9-23.9-7-35.7,7.9-11.7,23.9-14.9,35.7-7,11.7,7.9,14.9,23.9,7,35.7-1.9,2.7-4.3,5.2-7,7,13.4,5.5,22.6,18,23.7,32.5,3.1-4.3,7.4-7.6,12.2-9.5-8.8-5.9-11.2-17.9-5.3-26.8,5.9-8.9,17.9-11.2,26.8-5.3,8.8,5.9,11.2,17.9,5.3,26.8-1.4,2.1-3.2,3.8-5.3,5.3,10.8,4.4,17.7,14.8,17.8,26.3l-.2,15.1c39.2-33.8,55.9-86.8,43.3-137-.8.2-1.6.3-2.4.3h0Z"/>
    <path class="st0" d="M195.6,49.3c4,0,7.4,2.6,8.5,6.4l13.2-1.6c0-2,.7-3.8,1.9-5.3l-32.2-33.8c-.3.2-.7.4-1,.7l8.9,33.6c.3,0,.5,0,.8,0h0Z"/>
    <path class="st0" d="M67.5,27l14.3,8.2c2.2-2.9,5.7-4.6,9.3-4.6s2.1.1,3.1.4l8.7-20.6c-1.9-1.2-3.2-3.1-3.6-5.3-11.3,3.2-22.3,7.9-32.4,13.9,1.5,2.4,1.8,5.4.7,7.9h0Z"/>
    <path class="st0" d="M111.4,85.1c2.6,0,5,1.1,6.7,3.1l28.2-21.1c-.8-1.3-1.1-2.7-1.1-4.3v-.9l-43.5-14.5c-1.1,2.2-2.7,4-4.8,5l12.9,32.6c.5,0,1,0,1.5,0h.1Z"/>
    <path class="st0" d="M187.3,60.9l-24.4,3.1c-.1,1.5-.7,3-1.5,4.2l18.8,17.7c1.6-1.9,3.8-3,6.4-3.1l5.2-16.7c-2.1-1.2-3.7-3.1-4.4-5.2h-.1Z"/>
    <path class="st0" d="M120.5,10.2c3.4-3.4,9-3.4,12.4,0,1,1,1.6,2.1,2.1,3.4l37.6-5.9c0-1,.2-1.9.5-2.7C154.8-.1,135.5-1.3,116.5,1.5c0,.5,0,1.1,0,1.6,0,1.3-.3,2.6-.9,3.8l4.8,3.2h0Z"/>
    <path class="st0" d="M226.1,45.3c4.8,0,8.8,4,8.8,8.8s0,.8-.1,1.1l10.3,3.7c.5-1.1,1.3-2.1,2.2-2.9-14.7-20.1-34.5-35.8-57.4-45.4-.2.7-.4,1.3-.9,1.9l32.4,34c1.4-.8,3.1-1.2,4.7-1.2h0Z"/>
    <path class="st0" d="M33.1,54l14.6-4.1c0-4.6,3.5-8.3,8.1-8.7l1-9c-1.8-.5-3.4-1.6-4.5-3.1-8.1,6.4-15.5,13.6-21.9,21.6,1.2.9,2.2,2,2.7,3.2h0Z"/>
    <path class="st0" d="M135.5,16.7c0,2.5-1.2,4.9-3.1,6.5l18.4,31.6c1-.4,2.1-.7,3.2-.7s1.9,0,2.7.4l19.9-39.1c-1.8-1.1-3-2.7-3.6-4.7l-37.5,5.9h0Z"/>
    <path class="st0" d="M99.7,34.2l19.1-13.9c-.5-1.2-.9-2.5-.9-3.8s.3-2.5.9-3.7l-4.7-3.3c-2.2,2.1-5.3,3-8.1,2.2l-8.8,20.6c.9.5,1.8,1.2,2.5,2h0Z"/>
    <path class="st0" d="M61.1,57.7l5.9,18c.4,0,.9,0,1.2,0,1,0,1.9,0,2.7.4l13.2-24.1c-2-1.4-3.4-3.4-4.2-5.7l-14.7,2.9c0,.3,0,.7,0,1,0,3.2-1.6,6-4.3,7.7h.1Z"/>
    <path class="st0" d="M162.6,60.8l11.7-1.4,12.5-1.6c.1-3.3,2.1-6.3,5-7.6l-8.8-33.3c-.5.1-1.1.1-1.6.1s-1.3-.1-2-.2l-20.1,39.4c1.6,1.1,2.7,2.7,3.2,4.6h.1Z"/>
    <path class="st0" d="M214.4,96.8c.5-2.2,1.5-4.2,3.2-5.7l-18.1-25.1c-1.2.5-2.5.9-3.8.9s-.8,0-1.1,0l-5,16.2c4.2,1.3,6.7,5.6,5.9,9.9l19,4h0Z"/>
    <path class="st0" d="M148.2,56.4l-18.4-31.6c-1,.3-2,.5-3.1.5-2.3,0-4.5-.9-6.1-2.4l-19.1,13.9c1,1.8,1.4,3.6,1.4,5.6s0,1.4-.2,2.2l43.5,14.5c.5-1.1,1.2-2,2.1-2.7h-.1Z"/>
    <path class="st0" d="M48.2,53.1l-14.4,4v.8c0,1.1-.2,2.2-.7,3.2l28.3,17.4c.7-.8,1.4-1.4,2.4-1.9l-5.8-17.9c-4.3.9-8.5-1.5-9.9-5.6h0Z"/>
    <path class="st0" d="M18.4,94.8c0,1.1-.1,2.1-.4,3.1l11.3,4.7c1-2.9,3-5.2,5.6-6.5l-8.8-29.5h-1c-1.8,0-3.4-.4-4.8-1.4-3.6,5.9-6.9,12.2-9.5,18.7,4.6,1.6,7.7,6,7.7,11h-.1Z"/>
    <path class="st0" d="M64.4,46.1l15-3v-.8c0-1.5.3-3.1.9-4.5l-14.4-8.2c-1.5,1.8-3.7,2.7-6,3l-1,9c2.4.7,4.4,2.3,5.5,4.5Z"/>
    <path class="st0" d="M103.5,90.1c.8-1.5,2-2.9,3.5-3.7l-12.9-32.5c-2.3.5-4.8.4-7.1-.4l-13.2,24.1c2.1,1.6,3.3,4.2,3.3,6.9v.2s26.4,5.4,26.4,5.4Z"/>
    <path class="st0" d="M224.4,87.8v-25c-3-.5-5.6-2.7-6.6-5.7l-13.4,1.6c-.1,2.1-1,4-2.4,5.5l18.1,25c1.3-.8,2.7-1.2,4.3-1.4h0Z"/>
    <path class="st0" d="M321.9,210.7c-5.6,0-8.3,2.4-8.3,7.5v13.3c0,4.8,3.3,7.5,8,7.5s8.2-2.4,8.2-7.5v-2.1h-4.8v2.1c0,2.6-1.4,3.3-3.3,3.3-1.6.2-3.2-1-3.3-2.6v-13.9c0-2.6,1.5-3.3,3.4-3.3s3.2,1,3.2,3.5v1.8h4.8v-2.1c0-4.7-2.7-7.4-7.9-7.4h0Z"/>
    <polygon class="st0" points="347.2 206.8 348.6 209 351.7 209 348.8 204.5 345.5 204.5 342.7 209 345.7 209 347.2 206.8"/>
    <path class="st0" d="M347.4,210.7c-5.6,0-8.6,2.4-8.6,7.6v13.3c0,4.8,3.5,7.5,8.1,7.5s8.7-2.4,8.7-7.5v-13.3c-.1-4.9-3.1-7.6-8.2-7.6ZM350.6,231.4c0,2.6-1.6,3.3-3.4,3.3s-3.5-.7-3.5-3.2v-13.4c0-2.6,1.8-3.3,3.5-3.3s3.4,1,3.4,3.5v13.1h0Z"/>
    <polygon class="st0" points="378.7 229.4 370.2 211 370.2 210.9 365.6 210.9 365.6 238.6 370.2 238.6 370.2 220.1 378.7 238.6 383.3 238.6 383.3 210.9 378.7 210.9 378.7 229.4"/>
    <path class="st0" d="M401.1,228.5h3.4v3.1c0,2.6-1.6,3.3-3.4,3.3s-3.5-.7-3.5-3.2v-13.4c-.1-2.6,1.8-3.3,3.5-3.3s3.3,1,3.3,3.5v2.1h4.9v-2.3c.2-4.9-2.7-7.6-8-7.6s-8.6,2.5-8.6,7.6v13.3c0,4.8,3.5,7.5,8.1,7.5s8.6-2.4,8.6-7.5v-7.6h-8.3v4.5h0Z"/>
    <polygon class="st0" points="444.6 229.4 436.2 211 436.2 210.9 431.6 210.9 431.6 238.6 436.2 238.6 436.2 220.1 444.6 238.6 449.2 238.6 449.2 210.9 444.6 210.9 444.6 229.4"/>
    <path class="st0" d="M467.1,228.5h3.4v3.1c0,2.6-1.6,3.3-3.4,3.3s-3.5-.7-3.5-3.2v-13.4c-.1-2.6,1.8-3.3,3.5-3.3s3.3,1,3.3,3.5v2.1h4.9v-2.3c.1-4.9-2.9-7.6-8.1-7.6s-8.6,2.5-8.6,7.6v13.3c0,4.8,3.5,7.5,8.2,7.5s8.6-2.4,8.6-7.5v-7.6h-8.3v4.5h0Z"/>
    <polygon class="st0" points="496.6 223.9 489.9 223.9 489.9 210.9 484.5 210.9 484.5 238.6 489.9 238.6 489.9 228.5 496.6 228.5 496.6 238.6 502.1 238.6 502.1 210.9 496.6 210.9 496.6 223.9"/>
    <polygon class="st0" points="517.3 226 525.5 226 525.5 221.5 517.3 221.5 517.3 215.4 527 215.4 527 210.9 511.9 210.9 511.9 238.6 527.5 238.6 527.5 234.1 517.3 234.1 517.3 226"/>
    <polygon class="st0" points="519.7 206.8 521.1 209 524.2 209 521.3 204.5 518 204.5 515.2 209 518.3 209 519.7 206.8"/>
    <rect class="st0" x="517.5" y="240.1" width="4.5" height="4.2"/>
    <polygon class="st0" points="559 229.6 553.8 210.9 549 210.9 556.7 238.6 561.3 238.6 568.6 210.9 563.9 210.9 559 229.6"/>
    <rect class="st0" x="577.6" y="210.9" width="5.6" height="27.7"/>
    <polygon class="st0" points="582.3 209 580.6 203.9 576.5 203.9 579.2 209 582.3 209"/>
    <path class="st0" d="M613.5,210.7c-5.6,0-8.5,2.4-8.5,7.5v13.3c0,4.8,3.3,7.5,8,7.5s8.2-2.4,8.2-7.5v-2.1h-4.8v2.1c0,2.6-1.4,3.3-3.3,3.3-1.6.2-3.2-1-3.3-2.6v-13.9c0-2.6,1.5-3.3,3.4-3.3s3.2,1,3.2,3.5v1.8h4.8v-2.1c0-4.7-2.6-7.4-7.8-7.4h0Z"/>
    <polygon class="st0" points="638.8 206.8 640.1 209 643.3 209 640.3 204.5 637.1 204.5 634.1 209 637.3 209 638.8 206.8"/>
    <path class="st0" d="M639,210.7c-5.6,0-8.6,2.4-8.6,7.6v13.3c0,4.8,3.5,7.5,8.1,7.5s8.6-2.4,8.6-7.5v-13.3c0-4.9-3-7.6-8.1-7.6ZM642.3,231.4c0,2.6-1.6,3.3-3.4,3.3s-3.5-.7-3.5-3.2v-13.4c0-2.6,1.8-3.3,3.5-3.3s3.4,1,3.4,3.5v13.1h0Z"/>
    <rect class="st0" x="636.4" y="240.1" width="4.5" height="4.2"/>
    <polygon class="st0" points="670.2 229.4 661.8 211 661.8 210.9 657.2 210.9 657.2 238.6 661.8 238.6 661.8 220.1 670.2 238.6 674.9 238.6 674.9 210.9 670.2 210.9 670.2 229.4"/>
    <path class="st0" d="M692.9,210.7c-5.6,0-8.6,2.5-8.6,7.6v13.3c0,4.8,3.5,7.5,8.2,7.5s8.6-2.4,8.6-7.5v-7.6h-8.3v4.5h3.5v3.1c0,2.6-1.6,3.3-3.4,3.3s-3.5-.7-3.5-3.2v-13.4c0-2.6,1.8-3.3,3.5-3.3s3.3,1,3.3,3.5v2.1h4.9v-2.3c0-4.9-3.1-7.6-8.2-7.6h0Z"/>
    <path class="st0" d="M732.9,210.9h-9.8v11.5h-1.5v4.5h1.5v11.5h9.9c4.1,0,5.6-2.6,6.3-5.7.5-2.6.5-13.7.2-16-.8-4.1-2.7-5.8-6.6-5.8h0ZM733.8,231.8c-.4,1.8-1.5,2.1-4,2.1h-1.3v-6.8h3.8v-4.5h-3.8v-6.8h1.5c1.9,0,3.6.2,4,2.2.3,1.6.4,11.5-.2,13.8Z"/>
    <path class="st0" d="M757.3,210.7c-5.6,0-8.6,2.4-8.6,7.6v13.3c0,4.8,3.5,7.5,8.1,7.5s8.6-2.4,8.6-7.5v-13.3c0-4.9-3-7.6-8.1-7.6ZM760.6,231.4c0,2.6-1.6,3.3-3.4,3.3s-3.5-.7-3.5-3.2v-13.4c0-2.6,1.8-3.3,3.5-3.3s3.4,1,3.4,3.5v13.1h0Z"/>
    <polygon class="st0" points="765.2 206.5 763.3 201.5 759.3 201.5 761.9 206.5 765.2 206.5"/>
    <polygon class="st0" points="757.1 207.4 758.5 209.6 761.6 209.6 758.7 205.1 755.4 205.1 752.6 209.6 755.6 209.6 757.1 207.4"/>
    <polygon class="st0" points="788.6 229.4 780.1 211 780.1 210.9 775.5 210.9 775.5 238.6 780.1 238.6 780.1 220.1 788.6 238.6 793.2 238.6 793.2 210.9 788.6 210.9 788.6 229.4"/>
    <path class="st0" d="M819.5,220.6v-2.3c0-4.9-3.1-7.6-8.2-7.6s-8.6,2.5-8.6,7.6v13.3c0,4.8,3.5,7.5,8.2,7.5s8.6-2.4,8.6-7.5v-7.6h-8.3v4.5h3.5v3.1c0,2.6-1.6,3.3-3.4,3.3s-3.5-.7-3.5-3.2v-13.4c0-2.6,1.8-3.3,3.5-3.3s3.3,1,3.3,3.5v2.1h4.9Z"/>
  </g>
  <g>
    <polygon class="st1" points="377.6 126.1 377.1 126.1 345.6 26.5 313.6 26.5 359.6 168.1 394.6 168.1 441.7 26.5 409.5 26.5 377.6 126.1"/>
    <path class="st1" d="M621.5,124h-.3l-31.6-93-1.5-4.4h-44c0-.1,0,20.7,0,20.7,13.1,1,24.5,9.3,29.5,21.4v.3c.4,1,.9,2,1.2,3l33.6,96.1h24l34.7-100.3h.4v100.3h29.2V26.6h-43.8l-31.4,97.3h0Z"/>
    <polygon class="st1" points="713 26.5 713 52.7 755.4 52.7 755.4 168.1 786.6 168.1 786.6 52.7 829 52.7 829 26.5 713 26.5"/>
    <path class="st1" d="M544,56.5c-.7,0-1.2,0-1.9,0v14.2c.7,0,1.3,0,1.9,0,18.1,1.3,32.2,16.5,32.2,34.7v-14.2c0-18.1-13.9-33.3-32.2-34.7Z"/>
    <path class="st1" d="M544.2,81c-.7,0-1.2,0-1.9,0h-57.4V26.5h-31.2v141.6h31.2v-61.1h48.5c4.9,0,8.9,4,8.9,8.9v52.2h31.1v-57.1c-.4-16-13.2-29.1-29.2-30.1h0Z"/>
  </g>
</svg>