<?xml version="1.0" encoding="utf-8"?>
<!-- Generator: Adobe Illustrator 24.1.0, SVG Export Plug-In . SVG Version: 6.00 Build 0)  -->
<svg version="1.1" id="Layer_1" xmlns="http://www.w3.org/2000/svg" xmlns:xlink="http://www.w3.org/1999/xlink" x="0px" y="0px"
	 viewBox="0 0 829 318.2" style="enable-background:new 0 0 829 318.2;" xml:space="preserve">
<style type="text/css">
	.st0{fill:#32AFA9;}
	.st1{fill:#EDC677;}
</style>
<path class="st0" d="M73.5,128.2c3.2,0,6.2,1.4,8.2,3.8l10.3-9.1c-0.8-1.3-1.2-2.7-1.2-4.2c0-1,0.2-2,0.6-3L65.7,99.8
	c-0.7,0.7-1.5,1.4-2.4,1.8l7.9,26.8C72,128.3,72.7,128.2,73.5,128.2z"/>
<path class="st0" d="M249.9,94.9c-1.2,2.2-3.3,3.7-5.7,4.2l-0.1,22.8c1.3,0.2,2.5,0.6,3.6,1.2l13.1-19.2c-1-1.4-1.5-3-1.5-4.6
	c0-0.3,0-0.6,0-0.9L249.9,94.9z"/>
<path class="st0" d="M253.1,130.6l18.9-2.7c0.1-3.3,2.2-6.2,5.3-7.2c-1.9-4.9-4.1-9.6-6.7-14.2c-1.1,0.5-2.2,0.8-3.4,0.8
	c-1.6,0-3.2-0.5-4.5-1.4l-12.8,18.8C251.6,126.2,252.7,128.3,253.1,130.6z"/>
<path class="st0" d="M242.8,260.6c35.7-30.8,50.9-79.1,39.5-124.8c-0.7,0.2-1.5,0.3-2.2,0.3c-3.5,0-6.6-2.2-7.6-5.5l-19.2,2.8
	c-0.6,5.9-5.8,10.2-11.7,9.6c-5.3-0.5-9.4-4.9-9.7-10.2l-18-3.7c-2.1,3.9-7,5.3-10.9,3.1c-2.6-1.4-4.2-4.2-4.1-7.2
	c0-0.9,0.2-1.8,0.5-2.7l-17.7-16.6c-3,2.1-7.1,1.9-9.8-0.5l-26,19.4c0.3,0.9,0.5,1.8,0.5,2.7c0,4.4-3.6,8-8,8c-4.4,0-8-3.6-8-8
	c0-0.3,0-0.6,0.1-0.8l-23.9-4.9c-1.6,4.1-6.3,6.1-10.4,4.5c-0.8-0.3-1.5-0.7-2.1-1.2l-10.7,9.4c2.5,5.4,0.1,11.7-5.3,14.2
	c-5.4,2.5-11.7,0.1-14.2-5.3c-0.6-1.4-1-2.9-1-4.4c0-0.2,0-0.5,0-0.7L52,133.6c-2.4,4.2-7.4,6.2-12.1,4.9
	c-10.3,45,5.1,92,40.1,122.2v-13.9c0-10.5,6.4-20,16.2-24c-8-5.4-10.2-16.3-4.8-24.4s16.3-10.2,24.4-4.8c8,5.4,10.2,16.3,4.8,24.4
	c-1.3,1.9-2.9,3.5-4.8,4.8c4.4,1.8,8.3,4.8,11.1,8.7c0.9-13.2,9.3-24.6,21.5-29.6c-10.7-7.2-13.6-21.8-6.4-32.5
	c7.2-10.7,21.8-13.6,32.5-6.4c10.7,7.2,13.6,21.8,6.4,32.5c-1.7,2.5-3.9,4.7-6.4,6.4c12.2,5,20.6,16.4,21.6,29.6
	c2.8-3.9,6.7-6.9,11.1-8.7c-8-5.4-10.2-16.3-4.8-24.4s16.3-10.2,24.4-4.8c8,5.4,10.2,16.3,4.8,24.4c-1.3,1.9-2.9,3.5-4.8,4.8
	c9.8,4,16.1,13.5,16.2,24L242.8,260.6L242.8,260.6z"/>
<path class="st0" d="M215,86.7c3.6,0,6.7,2.4,7.7,5.8l12-1.5c0-1.8,0.6-3.5,1.7-4.8l-29.3-30.8c-0.3,0.2-0.6,0.4-0.9,0.6l8.1,30.6
	C214.6,86.7,214.8,86.7,215,86.7z"/>
<path class="st0" d="M98.3,66.4l13,7.5c2-2.6,5.2-4.2,8.5-4.2c1,0,1.9,0.1,2.8,0.4l7.9-18.8c-1.7-1.1-2.9-2.8-3.3-4.8
	c-10.3,2.9-20.3,7.2-29.5,12.7C99.1,61.4,99.3,64.1,98.3,66.4z"/>
<path class="st0" d="M138.3,119.4c2.4,0,4.6,1,6.1,2.8l25.7-19.2c-0.7-1.2-1-2.5-1-3.9c0-0.3,0-0.5,0-0.8l-39.6-13.2
	c-1,2-2.5,3.6-4.4,4.6l11.8,29.7C137.4,119.5,137.8,119.4,138.3,119.4z"/>
<path class="st0" d="M207.4,97.3l-22.2,2.8c-0.1,1.4-0.6,2.7-1.4,3.8l17.1,16.1c1.5-1.7,3.5-2.7,5.8-2.8l4.7-15.2
	C209.5,100.9,208,99.2,207.4,97.3z"/>
<path class="st0" d="M146.6,51.1c3.1-3.1,8.2-3.1,11.3,0c0.9,0.9,1.5,1.9,1.9,3.1l34.3-5.4c0-0.9,0.2-1.7,0.5-2.5
	c-16.8-4.6-34.4-5.7-51.7-3.1c0.1,0.5,0.1,1,0.1,1.5c0,1.2-0.3,2.4-0.8,3.5L146.6,51.1z"/>
<path class="st0" d="M242.8,83.1c4.4,0,8,3.6,8,8c0,0.3,0,0.7-0.1,1l9.4,3.4c0.5-1,1.2-1.9,2-2.6c-13.4-18.3-31.4-32.6-52.3-41.4
	c-0.2,0.6-0.4,1.2-0.8,1.7l29.5,31C239.8,83.5,241.3,83.1,242.8,83.1z"/>
<path class="st0" d="M66.9,91l13.3-3.7c0-4.2,3.2-7.6,7.4-7.9l0.9-8.2c-1.6-0.5-3.1-1.5-4.1-2.8c-7.4,5.8-14.1,12.4-20,19.7
	C65.5,88.9,66.4,89.9,66.9,91z"/>
<path class="st0" d="M160.2,57c0,2.3-1.1,4.5-2.8,5.9l16.8,28.8c0.9-0.4,1.9-0.6,2.9-0.6c0.8,0,1.7,0.1,2.5,0.4l18.1-35.6
	c-1.6-1-2.7-2.5-3.3-4.3L160.2,57z"/>
<path class="st0" d="M127.6,73L145,60.3c-0.5-1.1-0.8-2.3-0.8-3.5c0-1.2,0.3-2.3,0.8-3.4l-4.3-3c-2,1.9-4.8,2.7-7.4,2l-8,18.8
	C126.1,71.7,126.9,72.3,127.6,73z"/>
<path class="st0" d="M92.4,94.4l5.4,16.4c0.4-0.1,0.8-0.1,1.1-0.1c0.9,0,1.7,0.1,2.5,0.4l12-22c-1.8-1.3-3.1-3.1-3.8-5.2l-13.4,2.6
	c0,0.3,0.1,0.6,0.1,0.9C96.3,90.3,94.8,92.9,92.4,94.4z"/>
<path class="st0" d="M184.9,97.2l10.7-1.3l11.4-1.5c0.1-3,1.9-5.7,4.6-6.9l-8-30.3c-0.5,0.1-1,0.1-1.5,0.1c-0.6,0-1.2-0.1-1.8-0.2
	l-18.3,35.9C183.5,94,184.5,95.5,184.9,97.2z"/>
<path class="st0" d="M232.1,130c0.5-2,1.4-3.8,2.9-5.2l-16.5-22.9c-1.1,0.5-2.3,0.8-3.5,0.8c-0.3,0-0.7,0-1-0.1l-4.6,14.8
	c3.8,1.2,6.1,5.1,5.4,9L232.1,130z"/>
<path class="st0" d="M171.8,93.2l-16.8-28.8c-0.9,0.3-1.8,0.5-2.8,0.5c-2.1,0-4.1-0.8-5.6-2.2l-17.4,12.7c0.9,1.6,1.3,3.3,1.3,5.1
	c0,0.7-0.1,1.3-0.2,2l39.6,13.2C170.4,94.7,171,93.9,171.8,93.2z"/>
<path class="st0" d="M80.7,90.2l-13.1,3.6c0,0.2,0,0.5,0,0.7c0,1-0.2,2-0.6,2.9l25.8,15.9c0.6-0.7,1.3-1.3,2.2-1.7l-5.3-16.3
	C85.8,96.1,82,93.9,80.7,90.2L80.7,90.2z"/>
<path class="st0" d="M53.5,128.2c0,1-0.1,1.9-0.4,2.8l10.3,4.3c0.9-2.6,2.7-4.7,5.1-5.9l-8-26.9c-0.3,0-0.6,0-0.9,0
	c-1.6,0-3.1-0.4-4.4-1.3c-3.3,5.4-6.3,11.1-8.7,17C50.7,119.7,53.5,123.7,53.5,128.2z"/>
<path class="st0" d="M95.4,83.8l13.7-2.7c0-0.2,0-0.4,0-0.7c0-1.4,0.3-2.8,0.8-4.1l-13.1-7.5c-1.4,1.6-3.4,2.5-5.5,2.7l-0.9,8.2
	C92.6,80.3,94.4,81.8,95.4,83.8z"/>
<path class="st0" d="M131.1,123.9c0.7-1.4,1.8-2.6,3.2-3.4l-11.8-29.6c-2.1,0.5-4.4,0.4-6.5-0.4l-12,22c1.9,1.5,3,3.8,3,6.3
	c0,0.1,0,0.1,0,0.2L131.1,123.9z"/>
<path class="st0" d="M241.2,121.8l0.1-22.8c-2.8-0.5-5.2-2.5-6.1-5.2L223,95.3c-0.1,1.9-0.9,3.6-2.2,5l16.5,22.8
	C238.5,122.4,239.8,122,241.2,121.8z"/>
<path class="st0" d="M330.1,233.8c-5.1,0-7.6,2.2-7.6,6.8v12.1c0,4.4,3,6.8,7.3,6.8c5.2,0,7.5-2.2,7.5-6.8v-1.9h-4.4v1.9
	c0,2.4-1.3,3-3,3c-1.5,0.2-2.9-0.9-3-2.4c0-0.2,0-0.3,0-0.5v-12.2c0-2.4,1.4-3,3.1-3s2.9,0.9,2.9,3.2v1.6h4.4v-1.9
	C337.3,236.2,334.8,233.8,330.1,233.8z"/>
<polygon class="st0" points="354.4,232.3 357.2,232.3 354.6,228.2 351.6,228.2 349,232.3 351.8,232.3 353.1,230.3 "/>
<path class="st0" d="M353.3,233.8c-5.1,0-7.8,2.2-7.8,6.9v12.1c0,4.4,3.2,6.8,7.4,6.8c5.2,0,7.9-2.2,7.9-6.8v-12.1
	C360.7,236.2,358,233.8,353.3,233.8z M356.2,252.7c0,2.4-1.5,3-3.1,3c-1.4,0-3.2-0.6-3.2-2.9v-12.2c0-2.4,1.6-3,3.2-3
	s3.1,0.9,3.1,3.2V252.7z"/>
<polygon class="st0" points="381.8,250.9 374.1,234.1 374.1,234 369.9,234 369.9,259.2 374.1,259.2 374.1,242.4 381.8,259.2 
	386,259.2 386,234 381.8,234 "/>
<path class="st0" d="M402.4,233.8c-5.1,0-7.8,2.3-7.8,6.9v12.1c0,4.4,3.2,6.8,7.4,6.8c5.2,0,7.8-2.2,7.8-6.8v-6.9h-7.6v4.1h3.1v2.8
	c0,2.4-1.5,3-3.1,3c-1.3,0-3.2-0.6-3.2-2.9l-0.1-12.2c0-2.4,1.7-3,3.3-3s3,0.9,3,3.2v1.9h4.5v-2.1
	C409.9,236.2,407.2,233.8,402.4,233.8z"/>
<polygon class="st0" points="441.9,250.9 434.2,234.1 434.2,234 430,234 430,259.2 434.2,259.2 434.2,242.4 441.9,259.2 
	446.1,259.2 446.1,234 441.9,234 "/>
<path class="st0" d="M462.5,233.8c-5.1,0-7.8,2.3-7.8,6.9v12.1c0,4.4,3.2,6.8,7.5,6.8c5.2,0,7.8-2.2,7.8-6.8v-6.9h-7.6v4.1h3.1v2.8
	c0,2.4-1.5,3-3.1,3c-1.3,0-3.2-0.6-3.2-2.9l-0.1-12.2c0-2.4,1.7-3,3.3-3s3,0.9,3,3.2v1.9h4.5v-2.1
	C470,236.2,467.3,233.8,462.5,233.8z"/>
<polygon class="st0" points="489.3,245.8 483.2,245.8 483.2,234 478.2,234 478.2,259.2 483.2,259.2 483.2,250 489.3,250 
	489.3,259.2 494.3,259.2 494.3,234 489.3,234 "/>
<polygon class="st0" points="508.1,247.8 515.6,247.8 515.6,243.7 508.1,243.7 508.1,238.1 517,238.1 517,234 503.2,234 
	503.2,259.2 517.4,259.2 517.4,255.1 508.1,255.1 "/>
<polygon class="st0" points="511.6,232.3 514.4,232.3 511.8,228.2 508.8,228.2 506.2,232.3 509,232.3 510.3,230.3 "/>
<rect x="508.3" y="260.6" class="st0" width="4.1" height="3.8"/>
<polygon class="st0" points="546.1,251 541.4,234 537,234 544,259.2 548.2,259.2 554.9,234 550.6,234 "/>
<rect x="563.1" y="234" class="st0" width="5.1" height="25.2"/>
<polygon class="st0" points="567.4,232.3 565.8,227.6 562.1,227.6 564.5,232.3 "/>
<path class="st0" d="M595.8,233.8c-5.1,0-7.7,2.2-7.7,6.8v12.1c0,4.4,3,6.8,7.3,6.8c5.2,0,7.5-2.2,7.5-6.8v-1.9h-4.4v1.9
	c0,2.4-1.3,3-3,3c-1.5,0.2-2.9-0.9-3-2.4c0-0.2,0-0.3,0-0.5v-12.2c0-2.4,1.4-3,3.1-3s2.9,0.9,2.9,3.2v1.6h4.4v-1.9
	C603,236.2,600.5,233.8,595.8,233.8z"/>
<polygon class="st0" points="614.6,232.3 617.5,232.3 618.8,230.3 620,232.3 622.9,232.3 620.2,228.2 617.3,228.2 "/>
<path class="st0" d="M619,233.8c-5.1,0-7.8,2.2-7.8,6.9v12.1c0,4.4,3.2,6.8,7.4,6.8c5.2,0,7.8-2.2,7.8-6.8v-12.1
	C626.4,236.2,623.7,233.8,619,233.8z M622,252.7c0,2.4-1.5,3-3.1,3c-1.4,0-3.2-0.6-3.2-2.9v-12.2c0-2.4,1.6-3,3.2-3s3.1,0.9,3.1,3.2
	V252.7z"/>
<rect x="616.7" y="260.6" class="st0" width="4.1" height="3.8"/>
<polygon class="st0" points="647.5,250.9 639.8,234.1 639.8,234 635.6,234 635.6,259.2 639.8,259.2 639.8,242.4 647.5,259.2 
	651.7,259.2 651.7,234 647.5,234 "/>
<path class="st0" d="M668.1,233.8c-5.1,0-7.8,2.3-7.8,6.9v12.1c0,4.4,3.2,6.8,7.5,6.8c5.2,0,7.8-2.2,7.8-6.8v-6.9H668v4.1h3.2v2.8
	c0,2.4-1.5,3-3.1,3c-1.3,0-3.2-0.6-3.2-2.9l-0.1-12.2c0-2.4,1.7-3,3.3-3s3,0.9,3,3.2v1.9h4.5v-2.1
	C675.6,236.2,672.8,233.8,668.1,233.8z"/>
<path class="st0" d="M704.6,234h-8.9v10.5h-1.4v4.1h1.4v10.5h9c3.7,0,5.1-2.4,5.7-5.2c0.5-2.4,0.5-12.5,0.2-14.6
	C709.9,235.6,708.1,234,704.6,234z M705.4,253c-0.4,1.6-1.4,1.9-3.6,1.9h-1.2v-6.2h3.5v-4.1h-3.5v-6.2h1.4c1.7,0,3.3,0.2,3.6,2
	C705.9,241.9,706,250.9,705.4,253z"/>
<path class="st0" d="M726.8,233.8c-5.1,0-7.8,2.2-7.8,6.9v12.1c0,4.4,3.2,6.8,7.4,6.8c5.2,0,7.8-2.2,7.8-6.8v-12.1
	C734.2,236.2,731.5,233.8,726.8,233.8z M729.8,252.7c0,2.4-1.5,3-3.1,3c-1.4,0-3.2-0.6-3.2-2.9v-12.2c0-2.4,1.6-3,3.2-3
	s3.1,0.9,3.1,3.2V252.7z"/>
<polygon class="st0" points="734,230 732.3,225.4 728.6,225.4 731,230 "/>
<polygon class="st0" points="725.1,228.7 722.5,232.8 725.3,232.8 726.6,230.8 727.9,232.8 730.7,232.8 728.1,228.7 "/>
<polygon class="st0" points="755.3,250.9 747.6,234.1 747.6,234 743.4,234 743.4,259.2 747.6,259.2 747.6,242.4 755.3,259.2 
	759.5,259.2 759.5,234 755.3,234 "/>
<path class="st0" d="M776,233.8c-5.1,0-7.8,2.3-7.8,6.9v12.1c0,4.4,3.2,6.8,7.5,6.8c5.2,0,7.8-2.2,7.8-6.8v-6.9h-7.6v4.1h3.2v2.8
	c0,2.4-1.5,3-3.1,3c-1.3,0-3.2-0.6-3.2-2.9l-0.1-12.2c0-2.4,1.7-3,3.3-3s3,0.9,3,3.2v1.9h4.5v-2.1
	C783.4,236.2,780.7,233.8,776,233.8z"/>
<polygon class="st1" points="439.2,66 409.9,66 380.8,156.7 380.4,156.7 351.7,66 322.5,66 364.4,195 396.3,195 "/>
<path class="st1" d="M532.5,66v19c11.9,0.9,22.3,8.5,26.9,19.5l0,0l0.1,0.3c0.3,0.9,0.7,1.8,1,2.7l30.6,87.6H613l31.6-91.4h0.4v91.4
	h26.6v-129h-39.9l-28.6,88.7h-0.3l-28.8-84.7l-1.4-4L532.5,66z"/>
<polygon class="st1" points="686.5,66 686.5,89.8 725.1,89.8 725.1,195 753.5,195 753.5,89.8 792.2,89.8 792.2,66 "/>
<path class="st1" d="M532.5,93.3c-0.6,0-1.1-0.1-1.7-0.1v12.9c0.6,0,1.2,0,1.7,0.1c16.5,1.2,29.3,15,29.3,31.6v-12.9
	C561.8,108.4,549.1,94.6,532.5,93.3L532.5,93.3z"/>
<path class="st1" d="M559.2,169.3v-25.4c0-0.3,0-0.6,0-0.9c-0.4-14.6-12-26.5-26.6-27.4c-0.6,0-1.1-0.1-1.7-0.1h-52.3V66h-28.4v129
	h28.4v-55.7h44.2c4.5,0,8.1,3.6,8.1,8.1c0,0,0,0,0,0V195h28.3V169.3z"/>
</svg>
