<svg width="401" height="601" viewBox="0 0 401 601" fill="none" xmlns="http://www.w3.org/2000/svg">
<rect x="0.5" y="0.5" width="400" height="600" rx="5" fill="#F7F7F7"/>
<rect x="0.5" y="0.5" width="400" height="600" rx="5" stroke="#F2F2F2"/>
<g clip-path="url(#clip0_11326_56633)">
<path d="M317.334 322.551C317.334 323.545 317.532 324.439 317.83 325.234C318.128 326.028 318.526 326.724 319.022 327.32C319.519 327.916 320.115 328.413 320.811 328.81C321.506 329.208 322.202 329.605 322.996 329.804C323.791 330.102 324.586 330.201 325.48 330.4C326.374 330.499 327.169 330.598 328.063 330.598C329.355 330.598 330.646 330.499 331.838 330.201C333.031 329.903 334.123 329.506 335.117 328.91C336.11 328.313 336.905 327.519 337.501 326.426C338.097 325.432 338.395 324.141 338.395 322.651C338.395 321.558 338.197 320.664 337.799 319.968C337.402 319.273 336.806 318.677 336.21 318.18C335.514 317.683 334.819 317.286 333.925 316.988C333.031 316.69 332.137 316.392 331.242 316.193C330.348 315.994 329.454 315.795 328.659 315.597C327.765 315.398 327.07 315.199 326.374 315.001C325.679 314.802 325.182 314.504 324.785 314.107C324.387 313.709 324.189 313.312 324.189 312.716C324.189 312.219 324.288 311.921 324.487 311.623C324.685 311.325 324.983 311.126 325.381 311.027C325.679 310.828 326.076 310.828 326.474 310.729C326.871 310.729 327.268 310.629 327.666 310.629C328.262 310.629 328.759 310.629 329.255 310.729C329.752 310.828 330.15 311.027 330.547 311.225C330.944 311.424 331.242 311.822 331.441 312.219C331.64 312.616 331.838 313.113 331.838 313.709H337.799C337.7 312.318 337.303 311.126 336.707 310.232C336.11 309.338 335.415 308.543 334.422 308.046C333.527 307.45 332.534 307.053 331.342 306.854C330.15 306.655 328.957 306.556 327.765 306.556C326.573 306.556 325.381 306.655 324.189 306.854C322.996 307.053 322.003 307.45 321.009 308.046C320.115 308.642 319.321 309.338 318.724 310.232C318.128 311.126 317.83 312.318 317.83 313.809C317.83 314.802 318.029 315.696 318.426 316.292C318.824 316.988 319.42 317.584 320.016 317.981C320.612 318.379 321.407 318.776 322.301 319.074C323.195 319.372 324.089 319.571 324.983 319.769C326.076 319.968 327.07 320.266 327.964 320.465C328.858 320.664 329.553 320.962 330.15 321.16C330.746 321.458 331.242 321.756 331.54 322.054C331.838 322.352 332.037 322.75 332.037 323.247C332.037 323.743 331.938 324.24 331.64 324.638C331.342 325.035 331.044 325.333 330.646 325.532C330.249 325.73 329.851 325.929 329.355 326.028C328.858 326.128 328.361 326.128 327.964 326.128C327.368 326.128 326.772 326.028 326.176 325.929C325.579 325.83 325.083 325.532 324.685 325.234C324.288 324.936 323.891 324.538 323.593 324.041C323.294 323.545 323.195 322.949 323.195 322.253H317.334V322.551ZM301.338 329.903H307.498V319.67C307.498 318.677 307.597 317.683 307.796 316.789C307.995 315.895 308.392 315.1 308.79 314.504C309.286 313.809 309.882 313.312 310.677 312.914C311.472 312.517 312.465 312.318 313.558 312.318C313.956 312.318 314.353 312.318 314.75 312.418C315.148 312.418 315.545 312.517 315.843 312.616V306.854C315.645 306.755 315.446 306.755 315.148 306.655C314.85 306.556 314.651 306.556 314.452 306.556C313.658 306.556 312.962 306.655 312.167 306.953C311.373 307.251 310.777 307.55 310.081 307.947C309.485 308.344 308.889 308.841 308.392 309.437C307.895 310.033 307.498 310.729 307.2 311.424H307.101V307.152H301.239V329.903H301.338ZM281.27 316.094C281.27 315.696 281.369 315.1 281.568 314.603C281.767 314.007 282.065 313.51 282.462 313.014C282.86 312.517 283.356 312.12 284.052 311.722C284.747 311.325 285.542 311.225 286.535 311.225C287.33 311.225 287.926 311.325 288.522 311.523C289.118 311.722 289.516 312.02 289.913 312.418C290.311 312.815 290.609 313.312 290.907 313.908C291.205 314.504 291.304 315.199 291.503 315.994H281.27V316.094ZM297.662 320.067C297.762 318.875 297.662 317.782 297.563 316.69C297.364 315.597 297.166 314.504 296.768 313.51C296.371 312.517 295.874 311.623 295.278 310.729C294.682 309.835 293.987 309.139 293.092 308.543C292.298 307.947 291.304 307.45 290.211 307.152C289.118 306.854 287.926 306.655 286.635 306.655C284.946 306.655 283.356 306.953 281.965 307.55C280.575 308.146 279.283 309.04 278.289 310.033C277.296 311.126 276.501 312.418 275.905 313.809C275.309 315.199 275.11 316.888 275.11 318.577C275.11 320.366 275.408 321.955 275.905 323.445C276.402 324.936 277.197 326.128 278.19 327.221C279.184 328.313 280.376 329.108 281.866 329.704C283.356 330.3 284.946 330.598 286.734 330.598C288.026 330.598 289.218 330.499 290.311 330.201C291.404 329.903 292.397 329.406 293.291 328.81C294.185 328.214 294.98 327.419 295.676 326.426C296.371 325.432 296.868 324.339 297.364 322.949H291.9C291.801 323.346 291.602 323.644 291.304 324.041C291.006 324.439 290.609 324.737 290.211 325.035C289.814 325.333 289.317 325.532 288.721 325.73C288.125 325.929 287.628 326.028 286.933 326.028C285.244 326.028 283.853 325.532 282.959 324.638C281.965 323.743 281.469 322.253 281.369 320.266H297.662V320.067ZM250.273 329.903H256.433V317.981C256.433 316.789 256.532 315.795 256.731 315.001C256.929 314.206 257.228 313.51 257.625 313.014C258.022 312.517 258.519 312.12 259.115 311.822C259.711 311.623 260.407 311.424 261.301 311.424C262.692 311.424 263.785 311.921 264.381 312.815C264.977 313.709 265.275 315.1 265.275 316.988V329.903H271.534V315.895C271.534 314.504 271.434 313.212 271.136 312.02C270.938 310.828 270.441 309.934 269.845 309.04C269.249 308.245 268.355 307.55 267.262 307.152C266.169 306.655 264.877 306.457 263.188 306.457C262.592 306.457 261.996 306.556 261.4 306.655C260.804 306.854 260.208 307.053 259.612 307.351C259.016 307.649 258.519 308.046 257.923 308.543C257.426 309.04 256.929 309.537 256.532 310.232H256.333V298.509H250.174V329.903H250.273ZM225.635 322.551C225.635 323.545 225.833 324.439 226.131 325.234C226.429 326.028 226.827 326.724 227.324 327.32C227.82 327.916 228.416 328.413 229.112 328.81C229.807 329.208 230.503 329.605 231.297 329.804C232.092 330.102 232.887 330.201 233.781 330.4C234.675 330.499 235.47 330.598 236.364 330.598C237.656 330.598 238.947 330.499 240.14 330.201C241.332 329.903 242.425 329.506 243.418 328.91C244.412 328.313 245.206 327.519 245.802 326.426C246.398 325.432 246.697 324.141 246.697 322.651C246.697 321.558 246.498 320.664 246.1 319.968C245.703 319.273 245.107 318.677 244.511 318.18C243.815 317.683 243.12 317.286 242.226 316.988C241.332 316.69 240.438 316.392 239.543 316.193C238.649 315.994 237.755 315.795 236.96 315.597C236.066 315.398 235.371 315.199 234.675 315.001C233.98 314.802 233.483 314.504 233.086 314.107C232.688 313.709 232.49 313.312 232.49 312.716C232.49 312.219 232.589 311.921 232.788 311.623C232.986 311.325 233.284 311.126 233.682 311.027C233.98 310.828 234.377 310.828 234.775 310.729C235.172 310.729 235.569 310.629 235.967 310.629C236.563 310.629 237.06 310.629 237.556 310.729C238.053 310.828 238.451 311.027 238.848 311.225C239.245 311.424 239.543 311.822 239.742 312.219C239.941 312.616 240.14 313.113 240.14 313.709H246.1C246.001 312.318 245.604 311.126 245.008 310.232C244.412 309.338 243.716 308.543 242.723 308.046C241.828 307.45 240.835 307.053 239.643 306.854C238.451 306.655 237.258 306.556 236.066 306.556C234.874 306.556 233.682 306.655 232.49 306.854C231.297 307.053 230.304 307.45 229.311 308.046C228.416 308.642 227.622 309.338 227.025 310.232C226.429 311.126 226.131 312.318 226.131 313.809C226.131 314.802 226.33 315.696 226.727 316.292C227.125 316.988 227.721 317.584 228.317 317.981C228.913 318.379 229.708 318.776 230.602 319.074C231.496 319.372 232.39 319.571 233.284 319.769C234.377 319.968 235.371 320.266 236.265 320.465C237.159 320.664 237.855 320.962 238.451 321.16C239.047 321.458 239.543 321.756 239.841 322.054C240.14 322.352 240.338 322.75 240.338 323.247C240.338 323.743 240.239 324.24 239.941 324.638C239.643 325.035 239.345 325.333 238.947 325.532C238.55 325.73 238.153 325.929 237.656 326.028C237.159 326.128 236.662 326.128 236.265 326.128C235.669 326.128 235.073 326.028 234.477 325.929C233.881 325.83 233.384 325.532 232.986 325.234C232.589 324.936 232.192 324.538 231.894 324.041C231.596 323.545 231.496 322.949 231.496 322.253H225.635V322.551ZM221.859 298.509H215.6V303.675H221.859V298.509ZM215.6 329.903H221.859V307.152H215.6V329.903ZM204.275 329.903H210.534V298.509H204.275V329.903ZM193.644 321.26C193.446 322.154 193.148 322.949 192.651 323.545C192.253 324.24 191.657 324.737 190.962 325.134C190.266 325.532 189.472 325.73 188.578 325.73C187.683 325.73 186.889 325.532 186.193 325.134C185.498 324.737 185.001 324.24 184.504 323.545C184.107 322.849 183.709 322.054 183.511 321.26C183.312 320.465 183.213 319.471 183.213 318.577C183.213 317.584 183.312 316.69 183.511 315.795C183.709 314.901 184.007 314.107 184.504 313.51C184.902 312.815 185.498 312.318 186.193 311.921C186.889 311.523 187.683 311.325 188.578 311.325C189.472 311.325 190.266 311.523 190.962 311.921C191.657 312.318 192.154 312.815 192.651 313.51C193.048 314.206 193.446 315.001 193.644 315.795C193.843 316.59 193.942 317.584 193.942 318.577C193.942 319.571 193.843 320.465 193.644 321.26ZM177.351 329.903H183.213V327.022H183.312C183.61 327.618 184.107 328.214 184.604 328.611C185.1 329.009 185.696 329.406 186.292 329.704C186.889 330.002 187.584 330.201 188.379 330.3C189.174 330.4 189.869 330.499 190.763 330.499C191.856 330.499 193.048 330.3 194.141 329.804C195.234 329.307 196.227 328.611 197.121 327.618C198.016 326.624 198.711 325.432 199.307 323.843C199.903 322.253 200.102 320.564 200.102 318.478C200.102 316.392 199.804 314.603 199.307 313.113C198.711 311.623 198.016 310.331 197.121 309.437C196.227 308.444 195.234 307.748 194.141 307.251C193.048 306.755 191.856 306.556 190.763 306.556C190.068 306.556 189.372 306.655 188.677 306.755C187.981 306.854 187.286 307.053 186.69 307.351C186.094 307.649 185.498 307.947 185.001 308.444C184.504 308.841 184.007 309.338 183.61 309.934H183.511V298.509H177.351V329.903ZM172.682 307.152H166.423V319.074C166.423 320.266 166.323 321.26 166.125 322.054C165.926 322.849 165.628 323.545 165.231 324.041C164.833 324.538 164.336 324.936 163.74 325.234C163.144 325.432 162.449 325.631 161.555 325.631C160.164 325.631 159.071 325.134 158.475 324.24C157.879 323.346 157.581 321.955 157.581 320.067V307.152H151.421V321.16C151.421 322.551 151.52 323.843 151.818 325.035C152.116 326.227 152.514 327.121 153.11 328.015C153.706 328.91 154.6 329.506 155.693 329.903C156.786 330.3 158.077 330.598 159.766 330.598C160.462 330.598 161.058 330.499 161.753 330.4C162.449 330.3 163.045 330.002 163.641 329.704C164.237 329.406 164.833 329.009 165.33 328.512C165.827 328.015 166.323 327.519 166.721 326.823H166.82V329.903H172.781V307.152H172.682ZM129.763 303.874H135.128C135.923 303.874 136.717 303.973 137.413 304.072C138.108 304.172 138.804 304.37 139.3 304.768C139.897 305.066 140.294 305.563 140.592 306.159C140.89 306.755 141.089 307.55 141.089 308.543C141.089 309.537 140.89 310.331 140.592 310.927C140.294 311.523 139.797 312.02 139.3 312.318C138.704 312.616 138.108 312.914 137.413 313.014C136.717 313.113 135.923 313.212 135.128 313.212H129.763V303.874ZM122.809 329.903H129.664V318.677H136.916C138.903 318.677 140.493 318.379 141.884 317.782C143.274 317.186 144.367 316.491 145.261 315.497C146.156 314.603 146.752 313.51 147.149 312.318C147.546 311.126 147.745 309.835 147.745 308.642C147.745 307.45 147.546 306.159 147.149 304.966C146.752 303.774 146.156 302.681 145.261 301.787C144.367 300.893 143.274 300.098 141.884 299.502C140.493 298.906 138.804 298.608 136.916 298.608H122.809V329.903Z" fill="#BDBDBD"/>
<path d="M67.569 274.367H100.652V325.333L67.569 325.233V274.367ZM62.6016 269.399V330.3H105.62V269.399H62.6016Z" fill="#BDBDBD"/>
<path d="M78.9939 307.847H89.2268C90.1209 307.847 90.8164 308.543 90.8164 309.437V313.013C90.8164 313.907 90.1209 314.603 89.2268 314.603H78.9939C78.0997 314.603 77.4043 313.907 77.4043 313.013V309.437C77.4043 308.543 78.0997 307.847 78.9939 307.847Z" fill="#BDBDBD"/>
<path d="M75.1197 298.707L78.0008 306.059C78.1995 306.457 78.5969 306.655 78.9943 306.655H89.2272C89.6246 306.655 90.022 306.457 90.2207 306.059L93.2012 298.707C93.3999 298.31 93.3999 297.913 93.1018 297.515L85.0546 285.295C84.9552 285.097 84.7565 284.997 84.5578 284.898V294.435C85.3526 294.634 85.8494 295.33 85.8494 296.124C85.8494 297.118 85.0546 297.913 84.0611 297.913C83.0676 297.913 82.2728 297.118 82.2728 296.124C82.2728 295.33 82.8689 294.634 83.5643 294.435V284.898C83.3656 284.997 83.1669 285.097 83.0676 285.295L75.0203 297.515C74.921 297.913 74.921 298.31 75.1197 298.707Z" fill="#BDBDBD"/>
<path d="M140.792 269.3H136.222L131.552 283.606L126.982 269.3H122.412L128.969 289.666H134.036L140.792 269.3Z" fill="#BDBDBD"/>
<path d="M155.494 269.3V269.697V272.28C157.382 272.38 159.071 273.671 159.766 275.36C159.865 275.459 159.865 275.658 159.965 275.757L164.833 289.567H168.31L173.278 275.161H173.377V289.567H177.55V269.3H171.291L166.82 283.308H166.721L162.151 269.995L161.852 269.3H155.494Z" fill="#BDBDBD"/>
<path d="M179.836 269.3V273.075H185.896V289.666H190.367V273.075H196.527V269.3H179.836Z" fill="#BDBDBD"/>
<path d="M155.495 273.572C155.396 273.572 155.297 273.572 155.197 273.572V275.559C155.297 275.559 155.396 275.559 155.495 275.559C157.383 275.658 158.973 276.85 159.668 278.539C159.966 279.135 160.065 279.831 160.065 280.526V278.539C160.065 277.844 159.867 277.148 159.668 276.552C158.973 274.963 157.383 273.77 155.495 273.572Z" fill="#BDBDBD"/>
<path d="M159.769 285.593V281.619V281.52C159.67 279.235 157.882 277.347 155.597 277.148C155.497 277.148 155.398 277.148 155.299 277.148H154.703H153.908H152.716H147.053V269.3H142.582V289.666H147.053V280.924H154.007C154.703 280.924 155.299 281.52 155.299 282.215V289.766H155.597H159.769V289.07V287.083V285.593Z" fill="#BDBDBD"/>
</g>
<defs>
<clipPath id="clip0_11326_56633">
<rect width="275.794" height="61.8769" fill="white" transform="translate(62.6035 269.3)"/>
</clipPath>
</defs>
</svg>
