<?xml version="1.0" encoding="UTF-8"?>
<svg id="Layer_1" xmlns="http://www.w3.org/2000/svg" version="1.1" xmlns:xlink="http://www.w3.org/1999/xlink" viewBox="0 0 401 601">
  <!-- Generator: Adobe Illustrator 30.3.0, SVG Export Plug-In . SVG Version: 2.1.3 Build 182)  -->
  <defs>
    <style>
      .st0, .st1 {
        fill: none;
      }

      .st2 {
        fill: #d8d8d8;
      }

      .st3 {
        fill: #939393;
      }

      .st1 {
        stroke: #f2f2f2;
      }

      .st4 {
        clip-path: url(#clippath);
      }
    </style>
    <clipPath id="clippath">
      <rect class="st0" x="62.6" y="269.3" width="275.8" height="61.9"/>
    </clipPath>
  </defs>
  <rect class="st2" x=".5" y=".5" width="400" height="600" rx="5" ry="5"/>
  <rect class="st1" x=".5" y=".5" width="400" height="600" rx="5" ry="5"/>
  <g class="st4">
    <g>
      <path class="st3" d="M317.3,322.6c0,1,.2,1.9.5,2.7.3.8.7,1.5,1.2,2.1s1.1,1.1,1.8,1.5c.7.4,1.4.8,2.2,1,.8.3,1.6.4,2.5.6.9,0,1.7.2,2.6.2,1.3,0,2.6,0,3.8-.4,1.2-.3,2.3-.7,3.3-1.3,1-.6,1.8-1.4,2.4-2.5.6-1,.9-2.3.9-3.8s-.2-2-.6-2.7-1-1.3-1.6-1.8c-.7-.5-1.4-.9-2.3-1.2-.9-.3-1.8-.6-2.7-.8-.9-.2-1.8-.4-2.6-.6-.9-.2-1.6-.4-2.3-.6-.7-.2-1.2-.5-1.6-.9s-.6-.8-.6-1.4,0-.8.3-1.1c.2-.3.5-.5.9-.6.3-.2.7-.2,1.1-.3.4,0,.8-.1,1.2-.1.6,0,1.1,0,1.6.1.5,0,.9.3,1.3.5s.7.6.9,1,.4.9.4,1.5h6c0-1.4-.5-2.6-1.1-3.5s-1.3-1.7-2.3-2.2c-.9-.6-1.9-1-3.1-1.2s-2.4-.3-3.6-.3-2.4,0-3.6.3c-1.2.2-2.2.6-3.2,1.2-.9.6-1.7,1.3-2.3,2.2-.6.9-.9,2.1-.9,3.6s.2,1.9.6,2.5c.4.7,1,1.3,1.6,1.7.6.4,1.4.8,2.3,1.1.9.3,1.8.5,2.7.7,1.1.2,2.1.5,3,.7s1.6.5,2.2.7c.6.3,1.1.6,1.4.9s.5.7.5,1.2,0,1-.4,1.4c-.3.4-.6.7-1,.9-.4.2-.8.4-1.3.5h-1.4c-.6,0-1.2,0-1.8-.2-.6,0-1.1-.4-1.5-.7-.4-.3-.8-.7-1.1-1.2-.3-.5-.4-1.1-.4-1.8h-5.9v.3h0ZM301.3,329.9h6.2v-10.2c0-1,0-2,.3-2.9s.6-1.7,1-2.3c.5-.7,1.1-1.2,1.9-1.6s1.8-.6,2.9-.6.8,0,1.2.1c.4,0,.8,0,1.1.2v-5.8c-.2,0-.4,0-.7-.2h-.7c-.8,0-1.5,0-2.3.4-.8.3-1.4.6-2.1,1-.6.4-1.2.9-1.7,1.5s-.9,1.3-1.2,2h0v-4.3h-5.9v22.8h0ZM281.3,316.1c0-.4,0-1,.3-1.5.2-.6.5-1.1.9-1.6s.9-.9,1.6-1.3,1.5-.5,2.5-.5,1.4.1,2,.3c.6.2,1,.5,1.4.9s.7.9,1,1.5.4,1.3.6,2.1h-10.3ZM297.7,320.1c.1-1.2,0-2.3,0-3.4-.2-1.1-.4-2.2-.8-3.2s-.9-1.9-1.5-2.8-1.3-1.6-2.2-2.2c-.8-.6-1.8-1.1-2.9-1.4s-2.3-.5-3.6-.5-3.3.3-4.7.9c-1.4.6-2.7,1.5-3.7,2.5-1,1.1-1.8,2.4-2.4,3.8s-.8,3.1-.8,4.8.3,3.4.8,4.9,1.3,2.7,2.3,3.8c1,1.1,2.2,1.9,3.7,2.5s3.1.9,4.9.9,2.5,0,3.6-.4c1.1-.3,2.1-.8,3-1.4s1.7-1.4,2.4-2.4c.7-1,1.2-2.1,1.7-3.5h-5.5c0,.4-.3.7-.6,1.1-.3.4-.7.7-1.1,1s-.9.5-1.5.7-1.1.3-1.8.3c-1.7,0-3.1-.5-4-1.4-1-.9-1.5-2.4-1.6-4.4h16.3v-.2h0ZM250.3,329.9h6.2v-11.9c0-1.2,0-2.2.3-3,.2-.8.5-1.5.9-2s.9-.9,1.5-1.2c.6-.2,1.3-.4,2.2-.4,1.4,0,2.5.5,3.1,1.4s.9,2.3.9,4.2v12.9h6.3v-14c0-1.4-.1-2.7-.4-3.9-.2-1.2-.7-2.1-1.3-3-.6-.8-1.5-1.5-2.6-1.9-1.1-.5-2.4-.7-4.1-.7s-1.2,0-1.8.2c-.6.2-1.2.4-1.8.7-.6.3-1.1.7-1.7,1.2-.5.5-1,1-1.4,1.7h-.2v-11.7h-6.2v31.4h.1ZM225.6,322.6c0,1,.2,1.9.5,2.7.3.8.7,1.5,1.2,2.1s1.1,1.1,1.8,1.5,1.4.8,2.2,1c.8.3,1.6.4,2.5.6.9,0,1.7.2,2.6.2,1.3,0,2.6,0,3.8-.4,1.2-.3,2.3-.7,3.3-1.3,1-.6,1.8-1.4,2.4-2.5.6-1,.9-2.3.9-3.8s-.2-2-.6-2.7c-.4-.7-1-1.3-1.6-1.8-.7-.5-1.4-.9-2.3-1.2s-1.8-.6-2.7-.8c-.9-.2-1.8-.4-2.6-.6-.9-.2-1.6-.4-2.3-.6s-1.2-.5-1.6-.9c-.4-.4-.6-.8-.6-1.4s0-.8.3-1.1c.2-.3.5-.5.9-.6.3-.2.7-.2,1.1-.3.4,0,.8-.1,1.2-.1.6,0,1.1,0,1.6.1.5,0,.9.3,1.3.5.4.2.7.6.9,1s.4.9.4,1.5h6c0-1.4-.5-2.6-1.1-3.5s-1.3-1.7-2.3-2.2c-.9-.6-1.9-1-3.1-1.2s-2.4-.3-3.6-.3-2.4,0-3.6.3c-1.2.2-2.2.6-3.2,1.2-.9.6-1.7,1.3-2.3,2.2-.6.9-.9,2.1-.9,3.6s.2,1.9.6,2.5c.4.7,1,1.3,1.6,1.7.6.4,1.4.8,2.3,1.1.9.3,1.8.5,2.7.7,1.1.2,2.1.5,3,.7s1.6.5,2.2.7c.6.3,1.1.6,1.4.9.3.3.5.7.5,1.2s0,1-.4,1.4c-.3.4-.6.7-1,.9-.4.2-.8.4-1.3.5h-1.4c-.6,0-1.2,0-1.8-.2-.6,0-1.1-.4-1.5-.7-.4-.3-.8-.7-1.1-1.2s-.4-1.1-.4-1.8h-5.9v.3h0ZM221.9,298.5h-6.3v5.2h6.3v-5.2ZM215.6,329.9h6.3v-22.8h-6.3v22.8ZM204.3,329.9h6.3v-31.4h-6.3v31.4ZM193.6,321.3c-.2.9-.5,1.7-1,2.3-.4.7-1,1.2-1.7,1.6s-1.5.6-2.4.6-1.7-.2-2.4-.6-1.2-.9-1.7-1.6c-.4-.7-.8-1.5-1-2.3s-.3-1.8-.3-2.7,0-1.9.3-2.8c.2-.9.5-1.7,1-2.3.4-.7,1-1.2,1.7-1.6s1.5-.6,2.4-.6,1.7.2,2.4.6,1.2.9,1.7,1.6c.4.7.8,1.5,1,2.3s.3,1.8.3,2.8,0,1.9-.3,2.7ZM177.4,329.9h5.9v-2.9h0c.3.6.8,1.2,1.3,1.6s1.1.8,1.7,1.1c.6.3,1.3.5,2.1.6s1.5.2,2.4.2,2.3-.2,3.4-.7c1.1-.5,2.1-1.2,3-2.2s1.6-2.2,2.2-3.8c.6-1.6.8-3.3.8-5.4s-.3-3.9-.8-5.4c-.6-1.5-1.3-2.8-2.2-3.7-.9-1-1.9-1.7-3-2.2s-2.3-.7-3.4-.7-1.4,0-2.1.2c-.7,0-1.4.3-2,.6-.6.3-1.2.6-1.7,1.1-.5.4-1,.9-1.4,1.5h0v-11.4h-6.2v31.4h0ZM172.7,307.2h-6.3v11.9c0,1.2-.1,2.2-.3,3s-.5,1.5-.9,2-.9.9-1.5,1.2c-.6.2-1.3.4-2.2.4-1.4,0-2.5-.5-3.1-1.4s-.9-2.3-.9-4.2v-12.9h-6.2v14c0,1.4,0,2.7.4,3.9.3,1.2.7,2.1,1.3,3s1.5,1.5,2.6,1.9,2.4.7,4.1.7,1.3,0,2-.2c.7-.1,1.3-.4,1.9-.7.6-.3,1.2-.7,1.7-1.2s1-1,1.4-1.7h0v3.1h6v-22.8h0ZM129.8,303.9h5.4c.8,0,1.6,0,2.3.2.7.1,1.4.3,1.9.7.6.3,1,.8,1.3,1.4s.5,1.4.5,2.4-.2,1.8-.5,2.4-.8,1.1-1.3,1.4c-.6.3-1.2.6-1.9.7-.7,0-1.5.2-2.3.2h-5.4v-9.3h0ZM122.8,329.9h6.9v-11.2h7.3c2,0,3.6-.3,5-.9s2.5-1.3,3.4-2.3c.9-.9,1.5-2,1.9-3.2s.6-2.5.6-3.7-.2-2.5-.6-3.7c-.4-1.2-1-2.3-1.9-3.2-.9-.9-2-1.7-3.4-2.3-1.4-.6-3.1-.9-5-.9h-14.1v31.3h0Z"/>
      <path class="st3" d="M67.6,274.4h33.1v51h-33.1v-51ZM62.6,269.4v60.9h43v-60.9h-43Z"/>
      <path class="st3" d="M79,307.8h10.2c.9,0,1.6.7,1.6,1.6v3.6c0,.9-.7,1.6-1.6,1.6h-10.2c-.9,0-1.6-.7-1.6-1.6v-3.6c0-.9.7-1.6,1.6-1.6Z"/>
      <path class="st3" d="M75.1,298.7l2.9,7.4c.2.4.6.6,1,.6h10.2c.4,0,.8-.2,1-.6l3-7.4c.2-.4.2-.8,0-1.2l-8-12.2c0-.2-.3-.3-.5-.4v9.5c.8.2,1.3.9,1.3,1.7s-.8,1.8-1.8,1.8-1.8-.8-1.8-1.8.6-1.5,1.3-1.7v-9.5c-.2,0-.4.2-.5.4l-8,12.2v1.2h0Z"/>
      <path class="st3" d="M140.8,269.3h-4.6l-4.7,14.3-4.6-14.3h-4.6l6.6,20.4h5.1l6.8-20.4h0Z"/>
      <path class="st3" d="M155.5,269.3v3c1.9.1,3.6,1.4,4.3,3.1,0,0,0,.3.2.4l4.9,13.8h3.5l5-14.4h0v14.4h4.2v-20.3h-6.3l-4.5,14h0l-4.6-13.3-.3-.7h-6.4,0Z"/>
      <path class="st3" d="M179.8,269.3v3.8h6.1v16.6h4.5v-16.6h6.2v-3.8h-16.8Z"/>
      <path class="st3" d="M155.5,273.6h-.3v2h.3c1.9,0,3.5,1.3,4.2,3,.3.6.4,1.3.4,2v-2c0-.7-.2-1.4-.4-2-.7-1.6-2.3-2.8-4.2-3Z"/>
      <path class="st3" d="M159.8,285.6v-4h0c0-2.4-1.9-4.3-4.2-4.5h-8.5v-7.8h-4.5v20.4h4.5v-8.7h7c.7,0,1.3.6,1.3,1.3v7.6h4.5v-4.2h-.1Z"/>
    </g>
  </g>
</svg>