<svg width="211" height="65" viewBox="0 0 211 65" fill="none" xmlns="http://www.w3.org/2000/svg">
<path d="M1.72976 0.500031H0V2.22976H1.72976V0.500031Z" fill="#4F4F4F"/>
<path d="M3.45951 0.500031H1.72976V2.22976H3.45951V0.500031Z" fill="#4F4F4F"/>
<path d="M5.18927 0.500031H3.45951V2.22976H5.18927V0.500031Z" fill="#4F4F4F"/>
<path d="M6.91903 0.500031H5.18927V2.22976H6.91903V0.500031Z" fill="#4F4F4F"/>
<path d="M8.64879 0.500031H6.91903V2.22976H8.64879V0.500031Z" fill="#4F4F4F"/>
<path d="M10.3785 0.500031H8.64879V2.22976H10.3785V0.500031Z" fill="#4F4F4F"/>
<path d="M12.1083 0.500031H10.3785V2.22976H12.1083V0.500031Z" fill="#4F4F4F"/>
<path d="M15.5678 0.500031H13.8381V2.22976H15.5678V0.500031Z" fill="#4F4F4F"/>
<path d="M17.2976 0.500031H15.5678V2.22976H17.2976V0.500031Z" fill="#4F4F4F"/>
<path d="M19.0273 0.500031H17.2976V2.22976H19.0273V0.500031Z" fill="#4F4F4F"/>
<path d="M20.7571 0.500031H19.0273V2.22976H20.7571V0.500031Z" fill="#4F4F4F"/>
<path d="M24.2166 0.500031H22.4868V2.22976H24.2166V0.500031Z" fill="#4F4F4F"/>
<path d="M27.6761 0.500031H25.9464V2.22976H27.6761V0.500031Z" fill="#4F4F4F"/>
<path d="M31.1356 0.500031H29.4059V2.22976H31.1356V0.500031Z" fill="#4F4F4F"/>
<path d="M32.8654 0.500031H31.1356V2.22976H32.8654V0.500031Z" fill="#4F4F4F"/>
<path d="M34.5951 0.500031H32.8654V2.22976H34.5951V0.500031Z" fill="#4F4F4F"/>
<path d="M36.3249 0.500031H34.5951V2.22976H36.3249V0.500031Z" fill="#4F4F4F"/>
<path d="M43.2439 0.500031H41.5142V2.22976H43.2439V0.500031Z" fill="#4F4F4F"/>
<path d="M44.9737 0.500031H43.2439V2.22976H44.9737V0.500031Z" fill="#4F4F4F"/>
<path d="M50.163 0.500031H48.4332V2.22976H50.163V0.500031Z" fill="#4F4F4F"/>
<path d="M53.6225 0.500031H51.8927V2.22976H53.6225V0.500031Z" fill="#4F4F4F"/>
<path d="M55.3522 0.500031H53.6225V2.22976H55.3522V0.500031Z" fill="#4F4F4F"/>
<path d="M57.082 0.500031H55.3522V2.22976H57.082V0.500031Z" fill="#4F4F4F"/>
<path d="M58.8117 0.500031H57.082V2.22976H58.8117V0.500031Z" fill="#4F4F4F"/>
<path d="M60.5415 0.500031H58.8117V2.22976H60.5415V0.500031Z" fill="#4F4F4F"/>
<path d="M62.2713 0.500031H60.5415V2.22976H62.2713V0.500031Z" fill="#4F4F4F"/>
<path d="M64.001 0.500031H62.2713V2.22976H64.001V0.500031Z" fill="#4F4F4F"/>
<path d="M1.72976 2.22976H0V3.95949H1.72976V2.22976Z" fill="#4F4F4F"/>
<path d="M12.1083 2.22976H10.3785V3.95949H12.1083V2.22976Z" fill="#4F4F4F"/>
<path d="M19.0273 2.22976H17.2976V3.95949H19.0273V2.22976Z" fill="#4F4F4F"/>
<path d="M27.6761 2.22976H25.9464V3.95949H27.6761V2.22976Z" fill="#4F4F4F"/>
<path d="M29.4059 2.22976H27.6761V3.95949H29.4059L29.4059 2.22976Z" fill="#4F4F4F"/>
<path d="M32.8654 2.22976H31.1356L31.1356 3.95949H32.8654V2.22976Z" fill="#4F4F4F"/>
<path d="M36.3249 2.22976H34.5951V3.95949H36.3249V2.22976Z" fill="#4F4F4F"/>
<path d="M38.0547 2.22976H36.3249V3.95949H38.0547V2.22976Z" fill="#4F4F4F"/>
<path d="M41.5142 2.22976H39.7844V3.95949H41.5142V2.22976Z" fill="#4F4F4F"/>
<path d="M50.163 2.22976H48.4332V3.95949H50.163V2.22976Z" fill="#4F4F4F"/>
<path d="M53.6225 2.22976H51.8927V3.95949H53.6225V2.22976Z" fill="#4F4F4F"/>
<path d="M64.001 2.22976H62.2713V3.95949H64.001V2.22976Z" fill="#4F4F4F"/>
<path d="M1.72976 3.95949H0V5.68922H1.72976V3.95949Z" fill="#4F4F4F"/>
<path d="M5.18927 3.95949H3.45951V5.68922H5.18927V3.95949Z" fill="#4F4F4F"/>
<path d="M6.91903 3.95949H5.18927V5.68922H6.91903V3.95949Z" fill="#4F4F4F"/>
<path d="M8.64879 3.95949H6.91903V5.68922H8.64879V3.95949Z" fill="#4F4F4F"/>
<path d="M12.1083 3.95949H10.3785V5.68922H12.1083V3.95949Z" fill="#4F4F4F"/>
<path d="M17.2976 3.95949H15.5678V5.68922H17.2976V3.95949Z" fill="#4F4F4F"/>
<path d="M20.7571 3.95949H19.0273V5.68922H20.7571V3.95949Z" fill="#4F4F4F"/>
<path d="M25.9464 3.95949H24.2166V5.68922H25.9464L25.9464 3.95949Z" fill="#4F4F4F"/>
<path d="M27.6761 3.95949H25.9464L25.9464 5.68922H27.6761V3.95949Z" fill="#4F4F4F"/>
<path d="M29.4059 3.95949H27.6761V5.68922H29.4059V3.95949Z" fill="#4F4F4F"/>
<path d="M31.1356 3.95949H29.4059V5.68922H31.1356L31.1356 3.95949Z" fill="#4F4F4F"/>
<path d="M32.8654 3.95949H31.1356L31.1356 5.68922H32.8654V3.95949Z" fill="#4F4F4F"/>
<path d="M34.5951 3.95949H32.8654V5.68922H34.5951V3.95949Z" fill="#4F4F4F"/>
<path d="M36.3249 3.95949H34.5951V5.68922H36.3249V3.95949Z" fill="#4F4F4F"/>
<path d="M38.0547 3.95949H36.3249V5.68922H38.0547V3.95949Z" fill="#4F4F4F"/>
<path d="M44.9737 3.95949H43.2439V5.68922H44.9737V3.95949Z" fill="#4F4F4F"/>
<path d="M46.7034 3.95949H44.9737V5.68922H46.7034V3.95949Z" fill="#4F4F4F"/>
<path d="M50.163 3.95949H48.4332V5.68922H50.163V3.95949Z" fill="#4F4F4F"/>
<path d="M53.6225 3.95949H51.8927V5.68922H53.6225V3.95949Z" fill="#4F4F4F"/>
<path d="M57.082 3.95949H55.3522V5.68922H57.082V3.95949Z" fill="#4F4F4F"/>
<path d="M58.8117 3.95949H57.082V5.68922H58.8117V3.95949Z" fill="#4F4F4F"/>
<path d="M60.5415 3.95949H58.8117V5.68922H60.5415V3.95949Z" fill="#4F4F4F"/>
<path d="M64.001 3.95949H62.2713V5.68922H64.001V3.95949Z" fill="#4F4F4F"/>
<path d="M1.72976 5.68922H0V7.41895H1.72976V5.68922Z" fill="#4F4F4F"/>
<path d="M5.18927 5.68922H3.45951V7.41895H5.18927V5.68922Z" fill="#4F4F4F"/>
<path d="M6.91903 5.68922H5.18927V7.41895H6.91903V5.68922Z" fill="#4F4F4F"/>
<path d="M8.64879 5.68922H6.91903V7.41895H8.64879V5.68922Z" fill="#4F4F4F"/>
<path d="M12.1083 5.68922H10.3785V7.41895H12.1083V5.68922Z" fill="#4F4F4F"/>
<path d="M17.2976 5.68922H15.5678V7.41895H17.2976V5.68922Z" fill="#4F4F4F"/>
<path d="M19.0273 5.68922H17.2976V7.41895H19.0273V5.68922Z" fill="#4F4F4F"/>
<path d="M29.4059 5.68922H27.6761L27.6761 7.41895H29.4059V5.68922Z" fill="#4F4F4F"/>
<path d="M31.1356 5.68922H29.4059V7.41895H31.1356V5.68922Z" fill="#4F4F4F"/>
<path d="M32.8654 5.68922H31.1356V7.41895H32.8654V5.68922Z" fill="#4F4F4F"/>
<path d="M36.3249 5.68922H34.5951V7.41895H36.3249V5.68922Z" fill="#4F4F4F"/>
<path d="M38.0547 5.68922H36.3249V7.41895H38.0547V5.68922Z" fill="#4F4F4F"/>
<path d="M39.7844 5.68922H38.0547V7.41895H39.7844V5.68922Z" fill="#4F4F4F"/>
<path d="M43.2439 5.68922H41.5142V7.41895H43.2439V5.68922Z" fill="#4F4F4F"/>
<path d="M48.4332 5.68922H46.7034V7.41895H48.4332V5.68922Z" fill="#4F4F4F"/>
<path d="M50.163 5.68922H48.4332V7.41895H50.163V5.68922Z" fill="#4F4F4F"/>
<path d="M53.6225 5.68922H51.8927V7.41895H53.6225V5.68922Z" fill="#4F4F4F"/>
<path d="M57.082 5.68922H55.3522V7.41895H57.082V5.68922Z" fill="#4F4F4F"/>
<path d="M58.8117 5.68922H57.082V7.41895H58.8117V5.68922Z" fill="#4F4F4F"/>
<path d="M60.5415 5.68922H58.8117V7.41895H60.5415V5.68922Z" fill="#4F4F4F"/>
<path d="M64.001 5.68922H62.2713V7.41895H64.001V5.68922Z" fill="#4F4F4F"/>
<path d="M1.72976 7.41895H0V9.14868H1.72976V7.41895Z" fill="#4F4F4F"/>
<path d="M5.18927 7.41895H3.45951V9.14868H5.18927V7.41895Z" fill="#4F4F4F"/>
<path d="M6.91903 7.41895H5.18927V9.14868H6.91903V7.41895Z" fill="#4F4F4F"/>
<path d="M8.64879 7.41895H6.91903V9.14868H8.64879V7.41895Z" fill="#4F4F4F"/>
<path d="M12.1083 7.41895H10.3785V9.14868H12.1083V7.41895Z" fill="#4F4F4F"/>
<path d="M15.5678 7.41895H13.8381V9.14868H15.5678V7.41895Z" fill="#4F4F4F"/>
<path d="M17.2976 7.41895H15.5678V9.14868H17.2976V7.41895Z" fill="#4F4F4F"/>
<path d="M24.2166 7.41895H22.4868V9.14868H24.2166V7.41895Z" fill="#4F4F4F"/>
<path d="M25.9464 7.41895H24.2166V9.14868H25.9464V7.41895Z" fill="#4F4F4F"/>
<path d="M31.1356 7.41895H29.4059L29.4059 9.14868H31.1356V7.41895Z" fill="#4F4F4F"/>
<path d="M32.8654 7.41895H31.1356V9.14868H32.8654V7.41895Z" fill="#4F4F4F"/>
<path d="M48.4332 7.41895H46.7034V9.14868H48.4332V7.41895Z" fill="#4F4F4F"/>
<path d="M50.163 7.41895H48.4332V9.14868H50.163V7.41895Z" fill="#4F4F4F"/>
<path d="M53.6225 7.41895H51.8927V9.14868H53.6225V7.41895Z" fill="#4F4F4F"/>
<path d="M57.082 7.41895H55.3522V9.14868H57.082V7.41895Z" fill="#4F4F4F"/>
<path d="M58.8117 7.41895H57.082V9.14868H58.8117V7.41895Z" fill="#4F4F4F"/>
<path d="M60.5415 7.41895H58.8117V9.14868H60.5415V7.41895Z" fill="#4F4F4F"/>
<path d="M64.001 7.41895H62.2713V9.14868H64.001V7.41895Z" fill="#4F4F4F"/>
<path d="M1.72976 9.14868H0V10.8784H1.72976V9.14868Z" fill="#4F4F4F"/>
<path d="M12.1083 9.14868H10.3785V10.8784H12.1083V9.14868Z" fill="#4F4F4F"/>
<path d="M17.2976 9.14868H15.5678V10.8784H17.2976V9.14868Z" fill="#4F4F4F"/>
<path d="M24.2166 9.14868H22.4868V10.8784H24.2166V9.14868Z" fill="#4F4F4F"/>
<path d="M25.9464 9.14868H24.2166V10.8784H25.9464V9.14868Z" fill="#4F4F4F"/>
<path d="M27.6761 9.14868H25.9464V10.8784H27.6761V9.14868Z" fill="#4F4F4F"/>
<path d="M31.1356 9.14868H29.4059V10.8784H31.1356V9.14868Z" fill="#4F4F4F"/>
<path d="M32.8654 9.14868H31.1356V10.8784H32.8654V9.14868Z" fill="#4F4F4F"/>
<path d="M36.3249 9.14868H34.5951V10.8784H36.3249V9.14868Z" fill="#4F4F4F"/>
<path d="M43.2439 9.14868H41.5142V10.8784H43.2439V9.14868Z" fill="#4F4F4F"/>
<path d="M48.4332 9.14868H46.7034V10.8784H48.4332V9.14868Z" fill="#4F4F4F"/>
<path d="M50.163 9.14868H48.4332V10.8784H50.163V9.14868Z" fill="#4F4F4F"/>
<path d="M53.6225 9.14868H51.8927V10.8784H53.6225V9.14868Z" fill="#4F4F4F"/>
<path d="M64.001 9.14868H62.2713V10.8784H64.001V9.14868Z" fill="#4F4F4F"/>
<path d="M1.72976 10.8784H0V12.6081H1.72976V10.8784Z" fill="#4F4F4F"/>
<path d="M3.45951 10.8784H1.72976V12.6081H3.45951V10.8784Z" fill="#4F4F4F"/>
<path d="M5.18927 10.8784H3.45951V12.6081H5.18927V10.8784Z" fill="#4F4F4F"/>
<path d="M6.91903 10.8784H5.18927V12.6081H6.91903V10.8784Z" fill="#4F4F4F"/>
<path d="M8.64879 10.8784H6.91903V12.6081H8.64879V10.8784Z" fill="#4F4F4F"/>
<path d="M10.3785 10.8784H8.64879V12.6081H10.3785V10.8784Z" fill="#4F4F4F"/>
<path d="M12.1083 10.8784H10.3785V12.6081H12.1083V10.8784Z" fill="#4F4F4F"/>
<path d="M15.5678 10.8784H13.8381V12.6081H15.5678V10.8784Z" fill="#4F4F4F"/>
<path d="M19.0273 10.8784H17.2976V12.6081H19.0273V10.8784Z" fill="#4F4F4F"/>
<path d="M22.4868 10.8784H20.7571V12.6081H22.4868L22.4868 10.8784Z" fill="#4F4F4F"/>
<path d="M25.9464 10.8784H24.2166V12.6081H25.9464V10.8784Z" fill="#4F4F4F"/>
<path d="M29.4059 10.8784H27.6761L27.6761 12.6081H29.4059L29.4059 10.8784Z" fill="#4F4F4F"/>
<path d="M32.8654 10.8784H31.1356L31.1356 12.6081H32.8654V10.8784Z" fill="#4F4F4F"/>
<path d="M36.3249 10.8784H34.5951V12.6081H36.3249V10.8784Z" fill="#4F4F4F"/>
<path d="M39.7844 10.8784H38.0547V12.6081H39.7844V10.8784Z" fill="#4F4F4F"/>
<path d="M43.2439 10.8784H41.5142V12.6081H43.2439V10.8784Z" fill="#4F4F4F"/>
<path d="M46.7034 10.8784H44.9737V12.6081H46.7034V10.8784Z" fill="#4F4F4F"/>
<path d="M50.163 10.8784H48.4332V12.6081H50.163V10.8784Z" fill="#4F4F4F"/>
<path d="M53.6225 10.8784H51.8927V12.6081H53.6225V10.8784Z" fill="#4F4F4F"/>
<path d="M55.3522 10.8784H53.6225V12.6081H55.3522V10.8784Z" fill="#4F4F4F"/>
<path d="M57.082 10.8784H55.3522V12.6081H57.082V10.8784Z" fill="#4F4F4F"/>
<path d="M58.8117 10.8784H57.082V12.6081H58.8117V10.8784Z" fill="#4F4F4F"/>
<path d="M60.5415 10.8784H58.8117V12.6081H60.5415V10.8784Z" fill="#4F4F4F"/>
<path d="M62.2713 10.8784H60.5415V12.6081H62.2713V10.8784Z" fill="#4F4F4F"/>
<path d="M64.001 10.8784H62.2713V12.6081H64.001V10.8784Z" fill="#4F4F4F"/>
<path d="M15.5678 12.6081H13.8381V14.3379H15.5678V12.6081Z" fill="#4F4F4F"/>
<path d="M22.4868 12.6081H20.7571V14.3379H22.4868V12.6081Z" fill="#4F4F4F"/>
<path d="M24.2166 12.6081H22.4868V14.3379H24.2166V12.6081Z" fill="#4F4F4F"/>
<path d="M27.6761 12.6081H25.9464L25.9464 14.3379H27.6761L27.6761 12.6081Z" fill="#4F4F4F"/>
<path d="M32.8654 12.6081H31.1356V14.3379H32.8654V12.6081Z" fill="#4F4F4F"/>
<path d="M36.3249 12.6081H34.5951V14.3379H36.3249V12.6081Z" fill="#4F4F4F"/>
<path d="M44.9737 12.6081H43.2439V14.3379H44.9737V12.6081Z" fill="#4F4F4F"/>
<path d="M50.163 12.6081H48.4332V14.3379H50.163V12.6081Z" fill="#4F4F4F"/>
<path d="M1.72976 14.3379H0V16.0676H1.72976V14.3379Z" fill="#4F4F4F"/>
<path d="M6.91903 14.3379H5.18927V16.0676H6.91903V14.3379Z" fill="#4F4F4F"/>
<path d="M8.64879 14.3379H6.91903V16.0676H8.64879V14.3379Z" fill="#4F4F4F"/>
<path d="M10.3785 14.3379H8.64879V16.0676H10.3785V14.3379Z" fill="#4F4F4F"/>
<path d="M12.1083 14.3379H10.3785V16.0676H12.1083V14.3379Z" fill="#4F4F4F"/>
<path d="M13.8381 14.3379H12.1083V16.0676H13.8381V14.3379Z" fill="#4F4F4F"/>
<path d="M15.5678 14.3379H13.8381V16.0676H15.5678V14.3379Z" fill="#4F4F4F"/>
<path d="M17.2976 14.3379H15.5678V16.0676H17.2976V14.3379Z" fill="#4F4F4F"/>
<path d="M19.0273 14.3379H17.2976V16.0676H19.0273V14.3379Z" fill="#4F4F4F"/>
<path d="M20.7571 14.3379H19.0273V16.0676H20.7571L20.7571 14.3379Z" fill="#4F4F4F"/>
<path d="M22.4868 14.3379H20.7571L20.7571 16.0676H22.4868V14.3379Z" fill="#4F4F4F"/>
<path d="M24.2166 14.3379H22.4868V16.0676H24.2166V14.3379Z" fill="#4F4F4F"/>
<path d="M25.9464 14.3379H24.2166V16.0676H25.9464L25.9464 14.3379Z" fill="#4F4F4F"/>
<path d="M27.6761 14.3379H25.9464L25.9464 16.0676H27.6761V14.3379Z" fill="#4F4F4F"/>
<path d="M34.5951 14.3379H32.8654V16.0676H34.5951V14.3379Z" fill="#4F4F4F"/>
<path d="M36.3249 14.3379H34.5951V16.0676H36.3249V14.3379Z" fill="#4F4F4F"/>
<path d="M41.5142 14.3379H39.7844V16.0676H41.5142V14.3379Z" fill="#4F4F4F"/>
<path d="M44.9737 14.3379H43.2439V16.0676H44.9737V14.3379Z" fill="#4F4F4F"/>
<path d="M46.7034 14.3379H44.9737V16.0676H46.7034V14.3379Z" fill="#4F4F4F"/>
<path d="M50.163 14.3379H48.4332V16.0676H50.163V14.3379Z" fill="#4F4F4F"/>
<path d="M51.8927 14.3379H50.163V16.0676H51.8927V14.3379Z" fill="#4F4F4F"/>
<path d="M53.6225 14.3379H51.8927V16.0676H53.6225V14.3379Z" fill="#4F4F4F"/>
<path d="M57.082 14.3379H55.3522V16.0676H57.082V14.3379Z" fill="#4F4F4F"/>
<path d="M64.001 14.3379H62.2713V16.0676H64.001V14.3379Z" fill="#4F4F4F"/>
<path d="M1.72976 16.0676H0V17.7973H1.72976V16.0676Z" fill="#4F4F4F"/>
<path d="M3.45951 16.0676H1.72976V17.7973H3.45951V16.0676Z" fill="#4F4F4F"/>
<path d="M10.3785 16.0676H8.64879V17.7973H10.3785V16.0676Z" fill="#4F4F4F"/>
<path d="M17.2976 16.0676H15.5678V17.7973H17.2976V16.0676Z" fill="#4F4F4F"/>
<path d="M22.4868 16.0676H20.7571L20.7571 17.7973H22.4868V16.0676Z" fill="#4F4F4F"/>
<path d="M27.6761 16.0676H25.9464L25.9464 17.7973H27.6761V16.0676Z" fill="#4F4F4F"/>
<path d="M29.4059 16.0676H27.6761V17.7973H29.4059V16.0676Z" fill="#4F4F4F"/>
<path d="M32.8654 16.0676H31.1356V17.7973H32.8654V16.0676Z" fill="#4F4F4F"/>
<path d="M34.5951 16.0676H32.8654V17.7973H34.5951V16.0676Z" fill="#4F4F4F"/>
<path d="M36.3249 16.0676H34.5951V17.7973H36.3249V16.0676Z" fill="#4F4F4F"/>
<path d="M39.7844 16.0676H38.0547V17.7973H39.7844V16.0676Z" fill="#4F4F4F"/>
<path d="M41.5142 16.0676H39.7844V17.7973H41.5142V16.0676Z" fill="#4F4F4F"/>
<path d="M43.2439 16.0676H41.5142V17.7973H43.2439V16.0676Z" fill="#4F4F4F"/>
<path d="M50.163 16.0676H48.4332V17.7973H50.163V16.0676Z" fill="#4F4F4F"/>
<path d="M51.8927 16.0676H50.163V17.7973H51.8927V16.0676Z" fill="#4F4F4F"/>
<path d="M58.8117 16.0676H57.082V17.7973H58.8117V16.0676Z" fill="#4F4F4F"/>
<path d="M60.5415 16.0676H58.8117V17.7973H60.5415V16.0676Z" fill="#4F4F4F"/>
<path d="M3.45951 17.7973H1.72976V19.5271H3.45951V17.7973Z" fill="#4F4F4F"/>
<path d="M10.3785 17.7973H8.64879V19.5271H10.3785V17.7973Z" fill="#4F4F4F"/>
<path d="M12.1083 17.7973H10.3785V19.5271H12.1083V17.7973Z" fill="#4F4F4F"/>
<path d="M13.8381 17.7973H12.1083V19.5271H13.8381V17.7973Z" fill="#4F4F4F"/>
<path d="M17.2976 17.7973H15.5678V19.5271H17.2976V17.7973Z" fill="#4F4F4F"/>
<path d="M19.0273 17.7973H17.2976V19.5271H19.0273V17.7973Z" fill="#4F4F4F"/>
<path d="M24.2166 17.7973H22.4868L22.4868 19.5271H24.2166V17.7973Z" fill="#4F4F4F"/>
<path d="M25.9464 17.7973H24.2166V19.5271H25.9464L25.9464 17.7973Z" fill="#4F4F4F"/>
<path d="M27.6761 17.7973H25.9464L25.9464 19.5271H27.6761V17.7973Z" fill="#4F4F4F"/>
<path d="M29.4059 17.7973H27.6761V19.5271H29.4059V17.7973Z" fill="#4F4F4F"/>
<path d="M31.1356 17.7973H29.4059V19.5271H31.1356L31.1356 17.7973Z" fill="#4F4F4F"/>
<path d="M38.0547 17.7973H36.3249V19.5271H38.0547V17.7973Z" fill="#4F4F4F"/>
<path d="M39.7844 17.7973H38.0547V19.5271H39.7844V17.7973Z" fill="#4F4F4F"/>
<path d="M43.2439 17.7973H41.5142V19.5271H43.2439V17.7973Z" fill="#4F4F4F"/>
<path d="M44.9737 17.7973H43.2439V19.5271H44.9737V17.7973Z" fill="#4F4F4F"/>
<path d="M46.7034 17.7973H44.9737V19.5271H46.7034V17.7973Z" fill="#4F4F4F"/>
<path d="M48.4332 17.7973H46.7034V19.5271H48.4332V17.7973Z" fill="#4F4F4F"/>
<path d="M53.6225 17.7973H51.8927V19.5271H53.6225V17.7973Z" fill="#4F4F4F"/>
<path d="M55.3522 17.7973H53.6225V19.5271H55.3522V17.7973Z" fill="#4F4F4F"/>
<path d="M57.082 17.7973H55.3522V19.5271H57.082V17.7973Z" fill="#4F4F4F"/>
<path d="M58.8117 17.7973H57.082V19.5271H58.8117V17.7973Z" fill="#4F4F4F"/>
<path d="M60.5415 17.7973H58.8117V19.5271H60.5415V17.7973Z" fill="#4F4F4F"/>
<path d="M64.001 17.7973H62.2713V19.5271H64.001V17.7973Z" fill="#4F4F4F"/>
<path d="M1.72976 19.5271H0V21.2568H1.72976V19.5271Z" fill="#4F4F4F"/>
<path d="M3.45951 19.5271H1.72976V21.2568H3.45951V19.5271Z" fill="#4F4F4F"/>
<path d="M5.18927 19.5271H3.45951V21.2568H5.18927V19.5271Z" fill="#4F4F4F"/>
<path d="M6.91903 19.5271H5.18927V21.2568H6.91903V19.5271Z" fill="#4F4F4F"/>
<path d="M10.3785 19.5271H8.64879V21.2568H10.3785V19.5271Z" fill="#4F4F4F"/>
<path d="M13.8381 19.5271H12.1083V21.2568H13.8381V19.5271Z" fill="#4F4F4F"/>
<path d="M15.5678 19.5271H13.8381V21.2568H15.5678V19.5271Z" fill="#4F4F4F"/>
<path d="M20.7571 19.5271H19.0273V21.2568H20.7571V19.5271Z" fill="#4F4F4F"/>
<path d="M24.2166 19.5271H22.4868V21.2568H24.2166V19.5271Z" fill="#4F4F4F"/>
<path d="M31.1356 19.5271H29.4059L29.4059 21.2568H31.1356V19.5271Z" fill="#4F4F4F"/>
<path d="M32.8654 19.5271H31.1356V21.2568H32.8654V19.5271Z" fill="#4F4F4F"/>
<path d="M41.5142 19.5271H39.7844V21.2568H41.5142V19.5271Z" fill="#4F4F4F"/>
<path d="M43.2439 19.5271H41.5142V21.2568H43.2439V19.5271Z" fill="#4F4F4F"/>
<path d="M44.9737 19.5271H43.2439V21.2568H44.9737V19.5271Z" fill="#4F4F4F"/>
<path d="M51.8927 19.5271H50.163V21.2568H51.8927V19.5271Z" fill="#4F4F4F"/>
<path d="M55.3522 19.5271H53.6225V21.2568H55.3522V19.5271Z" fill="#4F4F4F"/>
<path d="M58.8117 19.5271H57.082V21.2568H58.8117V19.5271Z" fill="#4F4F4F"/>
<path d="M64.001 19.5271H62.2713V21.2568H64.001V19.5271Z" fill="#4F4F4F"/>
<path d="M5.18927 21.2568H3.45951V22.9865H5.18927V21.2568Z" fill="#4F4F4F"/>
<path d="M8.64879 21.2568H6.91903V22.9865H8.64879V21.2568Z" fill="#4F4F4F"/>
<path d="M12.1083 21.2568H10.3785V22.9865H12.1083V21.2568Z" fill="#4F4F4F"/>
<path d="M13.8381 21.2568H12.1083V22.9865H13.8381V21.2568Z" fill="#4F4F4F"/>
<path d="M15.5678 21.2568H13.8381V22.9865H15.5678V21.2568Z" fill="#4F4F4F"/>
<path d="M17.2976 21.2568L15.5678 21.2568V22.9865H17.2976V21.2568Z" fill="#4F4F4F"/>
<path d="M27.6761 21.2568H25.9464V22.9865H27.6761V21.2568Z" fill="#4F4F4F"/>
<path d="M34.5951 21.2568L32.8654 21.2568V22.9865H34.5951V21.2568Z" fill="#4F4F4F"/>
<path d="M36.3249 21.2568H34.5951V22.9865H36.3249V21.2568Z" fill="#4F4F4F"/>
<path d="M50.163 21.2568L48.4332 21.2568V22.9865H50.163V21.2568Z" fill="#4F4F4F"/>
<path d="M53.6225 21.2568H51.8927V22.9865H53.6225V21.2568Z" fill="#4F4F4F"/>
<path d="M64.001 21.2568H62.2713V22.9865H64.001V21.2568Z" fill="#4F4F4F"/>
<path d="M3.45951 22.9865L1.72976 22.9865V24.7162H3.45951V22.9865Z" fill="#4F4F4F"/>
<path d="M5.18927 22.9865H3.45951V24.7162H5.18927V22.9865Z" fill="#4F4F4F"/>
<path d="M8.64879 22.9865H6.91903V24.7162H8.64879V22.9865Z" fill="#4F4F4F"/>
<path d="M10.3785 22.9865H8.64879V24.7162H10.3785V22.9865Z" fill="#4F4F4F"/>
<path d="M13.8381 22.9865H12.1083V24.7162H13.8381V22.9865Z" fill="#4F4F4F"/>
<path d="M15.5678 22.9865H13.8381V24.7162H15.5678V22.9865Z" fill="#4F4F4F"/>
<path d="M19.0273 22.9865L17.2976 22.9865V24.7162H19.0273V22.9865Z" fill="#4F4F4F"/>
<path d="M22.4868 22.9865H20.7571V24.7162H22.4868V22.9865Z" fill="#4F4F4F"/>
<path d="M24.2166 22.9865H22.4868V24.7162H24.2166V22.9865Z" fill="#4F4F4F"/>
<path d="M32.8654 22.9865L31.1356 22.9865V24.7162H32.8654V22.9865Z" fill="#4F4F4F"/>
<path d="M36.3249 22.9865H34.5951V24.7162H36.3249V22.9865Z" fill="#4F4F4F"/>
<path d="M38.0547 22.9865L36.3249 22.9865V24.7162H38.0547V22.9865Z" fill="#4F4F4F"/>
<path d="M39.7844 22.9865H38.0547V24.7162H39.7844V22.9865Z" fill="#4F4F4F"/>
<path d="M41.5142 22.9865H39.7844V24.7162H41.5142V22.9865Z" fill="#4F4F4F"/>
<path d="M46.7034 22.9865H44.9737V24.7162H46.7034V22.9865Z" fill="#4F4F4F"/>
<path d="M50.163 22.9865H48.4332V24.7162H50.163V22.9865Z" fill="#4F4F4F"/>
<path d="M57.082 22.9865H55.3522V24.7162H57.082V22.9865Z" fill="#4F4F4F"/>
<path d="M62.2713 22.9865L60.5415 22.9865V24.7162H62.2713V22.9865Z" fill="#4F4F4F"/>
<path d="M64.001 22.9865H62.2713V24.7162H64.001V22.9865Z" fill="#4F4F4F"/>
<path d="M1.72976 24.7162H0V26.446H1.72976V24.7162Z" fill="#4F4F4F"/>
<path d="M5.18927 24.7162H3.45951V26.446H5.18927V24.7162Z" fill="#4F4F4F"/>
<path d="M6.91903 24.7162H5.18927V26.446H6.91903V24.7162Z" fill="#4F4F4F"/>
<path d="M12.1083 24.7162H10.3785V26.446H12.1083V24.7162Z" fill="#4F4F4F"/>
<path d="M19.0273 24.7162H17.2976V26.446H19.0273V24.7162Z" fill="#4F4F4F"/>
<path d="M24.2166 24.7162H22.4868L22.4868 26.446H24.2166V24.7162Z" fill="#4F4F4F"/>
<path d="M25.9464 24.7162H24.2166V26.446H25.9464V24.7162Z" fill="#4F4F4F"/>
<path d="M29.4059 24.7162H27.6761V26.446H29.4059V24.7162Z" fill="#4F4F4F"/>
<path d="M34.5951 24.7162H32.8654V26.446H34.5951V24.7162Z" fill="#4F4F4F"/>
<path d="M36.3249 24.7162H34.5951V26.446H36.3249V24.7162Z" fill="#4F4F4F"/>
<path d="M38.0547 24.7162H36.3249V26.446H38.0547V24.7162Z" fill="#4F4F4F"/>
<path d="M41.5142 24.7162H39.7844V26.446H41.5142V24.7162Z" fill="#4F4F4F"/>
<path d="M44.9737 24.7162H43.2439V26.446H44.9737V24.7162Z" fill="#4F4F4F"/>
<path d="M53.6225 24.7162H51.8927V26.446H53.6225V24.7162Z" fill="#4F4F4F"/>
<path d="M55.3522 24.7162H53.6225V26.446H55.3522V24.7162Z" fill="#4F4F4F"/>
<path d="M58.8117 24.7162H57.082V26.446H58.8117V24.7162Z" fill="#4F4F4F"/>
<path d="M60.5415 24.7162H58.8117V26.446H60.5415V24.7162Z" fill="#4F4F4F"/>
<path d="M1.72976 26.446H0V28.1757H1.72976V26.446Z" fill="#4F4F4F"/>
<path d="M6.91903 26.446H5.18927V28.1757H6.91903V26.446Z" fill="#4F4F4F"/>
<path d="M10.3785 26.446L8.64879 26.446V28.1757H10.3785V26.446Z" fill="#4F4F4F"/>
<path d="M13.8381 26.446L12.1083 26.446V28.1757H13.8381V26.446Z" fill="#4F4F4F"/>
<path d="M19.0273 26.446H17.2976V28.1757H19.0273V26.446Z" fill="#4F4F4F"/>
<path d="M20.7571 26.446L19.0273 26.446V28.1757H20.7571V26.446Z" fill="#4F4F4F"/>
<path d="M24.2166 26.446H22.4868V28.1757H24.2166V26.446Z" fill="#4F4F4F"/>
<path d="M25.9464 26.446H24.2166V28.1757H25.9464V26.446Z" fill="#4F4F4F"/>
<path d="M27.6761 26.446H25.9464V28.1757H27.6761L27.6761 26.446Z" fill="#4F4F4F"/>
<path d="M29.4059 26.446H27.6761L27.6761 28.1757H29.4059V26.446Z" fill="#4F4F4F"/>
<path d="M36.3249 26.446H34.5951V28.1757H36.3249V26.446Z" fill="#4F4F4F"/>
<path d="M38.0547 26.446H36.3249V28.1757H38.0547V26.446Z" fill="#4F4F4F"/>
<path d="M39.7844 26.446H38.0547V28.1757H39.7844V26.446Z" fill="#4F4F4F"/>
<path d="M41.5142 26.446H39.7844V28.1757H41.5142V26.446Z" fill="#4F4F4F"/>
<path d="M43.2439 26.446H41.5142V28.1757H43.2439V26.446Z" fill="#4F4F4F"/>
<path d="M46.7034 26.446L44.9737 26.446V28.1757H46.7034V26.446Z" fill="#4F4F4F"/>
<path d="M48.4332 26.446H46.7034V28.1757H48.4332V26.446Z" fill="#4F4F4F"/>
<path d="M51.8927 26.446L50.163 26.446V28.1757H51.8927V26.446Z" fill="#4F4F4F"/>
<path d="M53.6225 26.446H51.8927V28.1757H53.6225V26.446Z" fill="#4F4F4F"/>
<path d="M55.3522 26.446H53.6225V28.1757H55.3522V26.446Z" fill="#4F4F4F"/>
<path d="M64.001 26.446H62.2713V28.1757H64.001V26.446Z" fill="#4F4F4F"/>
<path d="M1.72976 28.1757H0V29.9054H1.72976V28.1757Z" fill="#4F4F4F"/>
<path d="M6.91903 28.1757H5.18927V29.9054H6.91903V28.1757Z" fill="#4F4F4F"/>
<path d="M8.64879 28.1757H6.91903V29.9054H8.64879V28.1757Z" fill="#4F4F4F"/>
<path d="M12.1083 28.1757H10.3785V29.9054H12.1083V28.1757Z" fill="#4F4F4F"/>
<path d="M15.5678 28.1757L13.8381 28.1757V29.9054H15.5678V28.1757Z" fill="#4F4F4F"/>
<path d="M20.7571 28.1757H19.0273V29.9054H20.7571V28.1757Z" fill="#4F4F4F"/>
<path d="M22.4868 28.1757H20.7571V29.9054H22.4868L22.4868 28.1757Z" fill="#4F4F4F"/>
<path d="M24.2166 28.1757H22.4868L22.4868 29.9054H24.2166V28.1757Z" fill="#4F4F4F"/>
<path d="M25.9464 28.1757H24.2166V29.9054H25.9464V28.1757Z" fill="#4F4F4F"/>
<path d="M31.1356 28.1757L29.4059 28.1757L29.4059 29.9054H31.1356V28.1757Z" fill="#4F4F4F"/>
<path d="M32.8654 28.1757H31.1356V29.9054H32.8654V28.1757Z" fill="#4F4F4F"/>
<path d="M38.0547 28.1757H36.3249V29.9054H38.0547V28.1757Z" fill="#4F4F4F"/>
<path d="M41.5142 28.1757H39.7844V29.9054H41.5142V28.1757Z" fill="#4F4F4F"/>
<path d="M43.2439 28.1757H41.5142V29.9054H43.2439V28.1757Z" fill="#4F4F4F"/>
<path d="M48.4332 28.1757H46.7034V29.9054H48.4332V28.1757Z" fill="#4F4F4F"/>
<path d="M51.8927 28.1757H50.163V29.9054H51.8927V28.1757Z" fill="#4F4F4F"/>
<path d="M55.3522 28.1757H53.6225V29.9054H55.3522V28.1757Z" fill="#4F4F4F"/>
<path d="M58.8117 28.1757H57.082V29.9054H58.8117V28.1757Z" fill="#4F4F4F"/>
<path d="M60.5415 28.1757H58.8117V29.9054H60.5415V28.1757Z" fill="#4F4F4F"/>
<path d="M3.45951 29.9054L1.72976 29.9054V31.6352H3.45951V29.9054Z" fill="#4F4F4F"/>
<path d="M5.18927 29.9054L3.45951 29.9054V31.6352H5.18927V29.9054Z" fill="#4F4F4F"/>
<path d="M8.64879 29.9054H6.91903V31.6352H8.64879V29.9054Z" fill="#4F4F4F"/>
<path d="M10.3785 29.9054H8.64879V31.6352H10.3785V29.9054Z" fill="#4F4F4F"/>
<path d="M17.2976 29.9054L15.5678 29.9054V31.6352H17.2976V29.9054Z" fill="#4F4F4F"/>
<path d="M20.7571 29.9054H19.0273V31.6352H20.7571V29.9054Z" fill="#4F4F4F"/>
<path d="M22.4868 29.9054H20.7571V31.6352H22.4868V29.9054Z" fill="#4F4F4F"/>
<path d="M25.9464 29.9054H24.2166V31.6352H25.9464V29.9054Z" fill="#4F4F4F"/>
<path d="M27.6761 29.9054L25.9464 29.9054V31.6352H27.6761V29.9054Z" fill="#4F4F4F"/>
<path d="M32.8654 29.9054H31.1356L31.1356 31.6352H32.8654V29.9054Z" fill="#4F4F4F"/>
<path d="M34.5951 29.9054L32.8654 29.9054V31.6352H34.5951V29.9054Z" fill="#4F4F4F"/>
<path d="M36.3249 29.9054L34.5951 29.9054V31.6352H36.3249V29.9054Z" fill="#4F4F4F"/>
<path d="M38.0547 29.9054H36.3249V31.6352H38.0547V29.9054Z" fill="#4F4F4F"/>
<path d="M46.7034 29.9054L44.9737 29.9054V31.6352H46.7034V29.9054Z" fill="#4F4F4F"/>
<path d="M48.4332 29.9054H46.7034V31.6352H48.4332V29.9054Z" fill="#4F4F4F"/>
<path d="M50.163 29.9054H48.4332V31.6352H50.163V29.9054Z" fill="#4F4F4F"/>
<path d="M53.6225 29.9054H51.8927V31.6352H53.6225V29.9054Z" fill="#4F4F4F"/>
<path d="M55.3522 29.9054H53.6225V31.6352H55.3522V29.9054Z" fill="#4F4F4F"/>
<path d="M60.5415 29.9054H58.8117V31.6352H60.5415V29.9054Z" fill="#4F4F4F"/>
<path d="M62.2713 29.9054L60.5415 29.9054V31.6352H62.2713V29.9054Z" fill="#4F4F4F"/>
<path d="M64.001 29.9054H62.2713V31.6352H64.001V29.9054Z" fill="#4F4F4F"/>
<path d="M3.45951 31.6352H1.72976V33.3649H3.45951V31.6352Z" fill="#4F4F4F"/>
<path d="M5.18927 31.6352H3.45951V33.3649H5.18927V31.6352Z" fill="#4F4F4F"/>
<path d="M8.64879 31.6352H6.91903V33.3649H8.64879V31.6352Z" fill="#4F4F4F"/>
<path d="M12.1083 31.6352L10.3785 31.6352V33.3649H12.1083V31.6352Z" fill="#4F4F4F"/>
<path d="M17.2976 31.6352H15.5678V33.3649H17.2976V31.6352Z" fill="#4F4F4F"/>
<path d="M19.0273 31.6352H17.2976V33.3649H19.0273V31.6352Z" fill="#4F4F4F"/>
<path d="M20.7571 31.6352H19.0273V33.3649H20.7571V31.6352Z" fill="#4F4F4F"/>
<path d="M24.2166 31.6352H22.4868L22.4868 33.3649H24.2166V31.6352Z" fill="#4F4F4F"/>
<path d="M27.6761 31.6352H25.9464L25.9464 33.3649H27.6761V31.6352Z" fill="#4F4F4F"/>
<path d="M29.4059 31.6352L27.6761 31.6352V33.3649H29.4059V31.6352Z" fill="#4F4F4F"/>
<path d="M32.8654 31.6352H31.1356V33.3649H32.8654V31.6352Z" fill="#4F4F4F"/>
<path d="M38.0547 31.6352H36.3249V33.3649H38.0547V31.6352Z" fill="#4F4F4F"/>
<path d="M39.7844 31.6352L38.0547 31.6352V33.3649H39.7844V31.6352Z" fill="#4F4F4F"/>
<path d="M44.9737 31.6352L43.2439 31.6352V33.3649H44.9737V31.6352Z" fill="#4F4F4F"/>
<path d="M46.7034 31.6352H44.9737V33.3649H46.7034V31.6352Z" fill="#4F4F4F"/>
<path d="M48.4332 31.6352H46.7034V33.3649H48.4332V31.6352Z" fill="#4F4F4F"/>
<path d="M55.3522 31.6352H53.6225V33.3649H55.3522V31.6352Z" fill="#4F4F4F"/>
<path d="M57.082 31.6352L55.3522 31.6352V33.3649H57.082V31.6352Z" fill="#4F4F4F"/>
<path d="M60.5415 31.6352H58.8117V33.3649H60.5415V31.6352Z" fill="#4F4F4F"/>
<path d="M1.72976 33.3649H0V35.0946H1.72976V33.3649Z" fill="#4F4F4F"/>
<path d="M3.45951 33.3649H1.72976V35.0946H3.45951V33.3649Z" fill="#4F4F4F"/>
<path d="M10.3785 33.3649H8.64879V35.0946H10.3785V33.3649Z" fill="#4F4F4F"/>
<path d="M15.5678 33.3649H13.8381V35.0946H15.5678V33.3649Z" fill="#4F4F4F"/>
<path d="M17.2976 33.3649H15.5678V35.0946H17.2976V33.3649Z" fill="#4F4F4F"/>
<path d="M19.0273 33.3649H17.2976V35.0946H19.0273V33.3649Z" fill="#4F4F4F"/>
<path d="M20.7571 33.3649H19.0273V35.0946H20.7571V33.3649Z" fill="#4F4F4F"/>
<path d="M29.4059 33.3649H27.6761L27.6761 35.0946H29.4059V33.3649Z" fill="#4F4F4F"/>
<path d="M31.1356 33.3649H29.4059V35.0946H31.1356L31.1356 33.3649Z" fill="#4F4F4F"/>
<path d="M36.3249 33.3649H34.5951V35.0946H36.3249V33.3649Z" fill="#4F4F4F"/>
<path d="M43.2439 33.3649H41.5142V35.0946H43.2439V33.3649Z" fill="#4F4F4F"/>
<path d="M44.9737 33.3649H43.2439V35.0946H44.9737V33.3649Z" fill="#4F4F4F"/>
<path d="M46.7034 33.3649H44.9737V35.0946H46.7034V33.3649Z" fill="#4F4F4F"/>
<path d="M48.4332 33.3649H46.7034V35.0946H48.4332V33.3649Z" fill="#4F4F4F"/>
<path d="M55.3522 33.3649H53.6225V35.0946H55.3522V33.3649Z" fill="#4F4F4F"/>
<path d="M58.8117 33.3649H57.082V35.0946H58.8117V33.3649Z" fill="#4F4F4F"/>
<path d="M64.001 33.3649H62.2713V35.0946H64.001V33.3649Z" fill="#4F4F4F"/>
<path d="M1.72976 35.0946H0V36.8244H1.72976V35.0946Z" fill="#4F4F4F"/>
<path d="M6.91903 35.0946H5.18927V36.8244H6.91903V35.0946Z" fill="#4F4F4F"/>
<path d="M10.3785 35.0946H8.64879V36.8244H10.3785V35.0946Z" fill="#4F4F4F"/>
<path d="M12.1083 35.0946H10.3785V36.8244H12.1083V35.0946Z" fill="#4F4F4F"/>
<path d="M15.5678 35.0946H13.8381V36.8244H15.5678V35.0946Z" fill="#4F4F4F"/>
<path d="M20.7571 35.0946H19.0273V36.8244H20.7571V35.0946Z" fill="#4F4F4F"/>
<path d="M31.1356 35.0946H29.4059L29.4059 36.8244H31.1356V35.0946Z" fill="#4F4F4F"/>
<path d="M32.8654 35.0946H31.1356V36.8244H32.8654V35.0946Z" fill="#4F4F4F"/>
<path d="M39.7844 35.0946H38.0547V36.8244H39.7844V35.0946Z" fill="#4F4F4F"/>
<path d="M43.2439 35.0946H41.5142V36.8244H43.2439V35.0946Z" fill="#4F4F4F"/>
<path d="M48.4332 35.0946H46.7034V36.8244H48.4332V35.0946Z" fill="#4F4F4F"/>
<path d="M50.163 35.0946H48.4332V36.8244H50.163V35.0946Z" fill="#4F4F4F"/>
<path d="M53.6225 35.0946H51.8927V36.8244H53.6225V35.0946Z" fill="#4F4F4F"/>
<path d="M55.3522 35.0946H53.6225V36.8244H55.3522V35.0946Z" fill="#4F4F4F"/>
<path d="M58.8117 35.0946H57.082V36.8244H58.8117V35.0946Z" fill="#4F4F4F"/>
<path d="M60.5415 35.0946H58.8117V36.8244H60.5415V35.0946Z" fill="#4F4F4F"/>
<path d="M64.001 35.0946H62.2713V36.8244H64.001V35.0946Z" fill="#4F4F4F"/>
<path d="M3.45951 36.8244H1.72976V38.5541H3.45951V36.8244Z" fill="#4F4F4F"/>
<path d="M5.18927 36.8244H3.45951V38.5541H5.18927V36.8244Z" fill="#4F4F4F"/>
<path d="M13.8381 36.8244H12.1083V38.5541H13.8381V36.8244Z" fill="#4F4F4F"/>
<path d="M19.0273 36.8244H17.2976V38.5541H19.0273V36.8244Z" fill="#4F4F4F"/>
<path d="M20.7571 36.8244H19.0273V38.5541H20.7571V36.8244Z" fill="#4F4F4F"/>
<path d="M22.4868 36.8244H20.7571V38.5541H22.4868V36.8244Z" fill="#4F4F4F"/>
<path d="M24.2166 36.8244H22.4868V38.5541H24.2166V36.8244Z" fill="#4F4F4F"/>
<path d="M31.1356 36.8244H29.4059V38.5541H31.1356V36.8244Z" fill="#4F4F4F"/>
<path d="M34.5951 36.8244H32.8654V38.5541H34.5951V36.8244Z" fill="#4F4F4F"/>
<path d="M36.3249 36.8244H34.5951V38.5541H36.3249V36.8244Z" fill="#4F4F4F"/>
<path d="M39.7844 36.8244H38.0547V38.5541H39.7844V36.8244Z" fill="#4F4F4F"/>
<path d="M41.5142 36.8244H39.7844V38.5541H41.5142V36.8244Z" fill="#4F4F4F"/>
<path d="M48.4332 36.8244H46.7034V38.5541H48.4332V36.8244Z" fill="#4F4F4F"/>
<path d="M50.163 36.8244H48.4332V38.5541H50.163V36.8244Z" fill="#4F4F4F"/>
<path d="M51.8927 36.8244H50.163V38.5541H51.8927V36.8244Z" fill="#4F4F4F"/>
<path d="M60.5415 36.8244H58.8117V38.5541H60.5415V36.8244Z" fill="#4F4F4F"/>
<path d="M62.2713 36.8244H60.5415V38.5541H62.2713V36.8244Z" fill="#4F4F4F"/>
<path d="M64.001 36.8244H62.2713V38.5541H64.001V36.8244Z" fill="#4F4F4F"/>
<path d="M8.64879 38.5541H6.91903V40.2838H8.64879V38.5541Z" fill="#4F4F4F"/>
<path d="M12.1083 38.5541H10.3785V40.2838H12.1083V38.5541Z" fill="#4F4F4F"/>
<path d="M17.2976 38.5541H15.5678V40.2838H17.2976V38.5541Z" fill="#4F4F4F"/>
<path d="M20.7571 38.5541H19.0273V40.2838H20.7571V38.5541Z" fill="#4F4F4F"/>
<path d="M22.4868 38.5541H20.7571V40.2838H22.4868V38.5541Z" fill="#4F4F4F"/>
<path d="M27.6761 38.5541H25.9464V40.2838H27.6761V38.5541Z" fill="#4F4F4F"/>
<path d="M29.4059 38.5541H27.6761V40.2838H29.4059L29.4059 38.5541Z" fill="#4F4F4F"/>
<path d="M36.3249 38.5541H34.5951V40.2838H36.3249V38.5541Z" fill="#4F4F4F"/>
<path d="M38.0547 38.5541H36.3249V40.2838H38.0547V38.5541Z" fill="#4F4F4F"/>
<path d="M39.7844 38.5541H38.0547V40.2838H39.7844V38.5541Z" fill="#4F4F4F"/>
<path d="M44.9737 38.5541H43.2439V40.2838H44.9737V38.5541Z" fill="#4F4F4F"/>
<path d="M46.7034 38.5541H44.9737V40.2838H46.7034V38.5541Z" fill="#4F4F4F"/>
<path d="M48.4332 38.5541H46.7034V40.2838H48.4332V38.5541Z" fill="#4F4F4F"/>
<path d="M50.163 38.5541H48.4332V40.2838H50.163V38.5541Z" fill="#4F4F4F"/>
<path d="M55.3522 38.5541H53.6225V40.2838H55.3522V38.5541Z" fill="#4F4F4F"/>
<path d="M57.082 38.5541H55.3522V40.2838H57.082V38.5541Z" fill="#4F4F4F"/>
<path d="M3.45951 40.2838H1.72976V42.0135H3.45951V40.2838Z" fill="#4F4F4F"/>
<path d="M8.64879 40.2838H6.91903V42.0135H8.64879V40.2838Z" fill="#4F4F4F"/>
<path d="M15.5678 40.2838H13.8381V42.0135H15.5678V40.2838Z" fill="#4F4F4F"/>
<path d="M19.0273 40.2838H17.2976V42.0135H19.0273V40.2838Z" fill="#4F4F4F"/>
<path d="M20.7571 40.2838H19.0273V42.0135H20.7571V40.2838Z" fill="#4F4F4F"/>
<path d="M24.2166 40.2838H22.4868L22.4868 42.0135H24.2166V40.2838Z" fill="#4F4F4F"/>
<path d="M25.9464 40.2838H24.2166V42.0135H25.9464L25.9464 40.2838Z" fill="#4F4F4F"/>
<path d="M27.6761 40.2838H25.9464L25.9464 42.0135H27.6761V40.2838Z" fill="#4F4F4F"/>
<path d="M29.4059 40.2838H27.6761V42.0135H29.4059V40.2838Z" fill="#4F4F4F"/>
<path d="M36.3249 40.2838H34.5951V42.0135H36.3249V40.2838Z" fill="#4F4F4F"/>
<path d="M38.0547 40.2838H36.3249V42.0135H38.0547V40.2838Z" fill="#4F4F4F"/>
<path d="M39.7844 40.2838H38.0547V42.0135H39.7844V40.2838Z" fill="#4F4F4F"/>
<path d="M43.2439 40.2838H41.5142V42.0135H43.2439V40.2838Z" fill="#4F4F4F"/>
<path d="M46.7034 40.2838H44.9737V42.0135H46.7034V40.2838Z" fill="#4F4F4F"/>
<path d="M51.8927 40.2838H50.163V42.0135H51.8927V40.2838Z" fill="#4F4F4F"/>
<path d="M53.6225 40.2838H51.8927V42.0135H53.6225V40.2838Z" fill="#4F4F4F"/>
<path d="M58.8117 40.2838H57.082V42.0135H58.8117V40.2838Z" fill="#4F4F4F"/>
<path d="M60.5415 40.2838H58.8117V42.0135H60.5415V40.2838Z" fill="#4F4F4F"/>
<path d="M62.2713 40.2838H60.5415V42.0135H62.2713V40.2838Z" fill="#4F4F4F"/>
<path d="M3.45951 42.0135H1.72976V43.7433H3.45951V42.0135Z" fill="#4F4F4F"/>
<path d="M5.18927 42.0135H3.45951V43.7433H5.18927V42.0135Z" fill="#4F4F4F"/>
<path d="M6.91903 42.0135H5.18927V43.7433H6.91903V42.0135Z" fill="#4F4F4F"/>
<path d="M12.1083 42.0135H10.3785V43.7433H12.1083V42.0135Z" fill="#4F4F4F"/>
<path d="M13.8381 42.0135H12.1083V43.7433H13.8381V42.0135Z" fill="#4F4F4F"/>
<path d="M17.2976 42.0135H15.5678V43.7433H17.2976V42.0135Z" fill="#4F4F4F"/>
<path d="M19.0273 42.0135H17.2976V43.7433H19.0273V42.0135Z" fill="#4F4F4F"/>
<path d="M22.4868 42.0135H20.7571L20.7571 43.7433H22.4868L22.4868 42.0135Z" fill="#4F4F4F"/>
<path d="M24.2166 42.0135H22.4868L22.4868 43.7433H24.2166V42.0135Z" fill="#4F4F4F"/>
<path d="M25.9464 42.0135H24.2166V43.7433H25.9464V42.0135Z" fill="#4F4F4F"/>
<path d="M27.6761 42.0135H25.9464V43.7433H27.6761V42.0135Z" fill="#4F4F4F"/>
<path d="M29.4059 42.0135H27.6761V43.7433H29.4059V42.0135Z" fill="#4F4F4F"/>
<path d="M34.5951 42.0135H32.8654V43.7433H34.5951V42.0135Z" fill="#4F4F4F"/>
<path d="M36.3249 42.0135H34.5951V43.7433H36.3249V42.0135Z" fill="#4F4F4F"/>
<path d="M39.7844 42.0135H38.0547V43.7433H39.7844V42.0135Z" fill="#4F4F4F"/>
<path d="M41.5142 42.0135H39.7844V43.7433H41.5142V42.0135Z" fill="#4F4F4F"/>
<path d="M43.2439 42.0135H41.5142V43.7433H43.2439V42.0135Z" fill="#4F4F4F"/>
<path d="M44.9737 42.0135H43.2439V43.7433H44.9737V42.0135Z" fill="#4F4F4F"/>
<path d="M46.7034 42.0135H44.9737V43.7433H46.7034V42.0135Z" fill="#4F4F4F"/>
<path d="M50.163 42.0135H48.4332V43.7433H50.163V42.0135Z" fill="#4F4F4F"/>
<path d="M53.6225 42.0135H51.8927V43.7433H53.6225V42.0135Z" fill="#4F4F4F"/>
<path d="M57.082 42.0135H55.3522V43.7433H57.082V42.0135Z" fill="#4F4F4F"/>
<path d="M60.5415 42.0135H58.8117V43.7433H60.5415V42.0135Z" fill="#4F4F4F"/>
<path d="M62.2713 42.0135H60.5415V43.7433H62.2713V42.0135Z" fill="#4F4F4F"/>
<path d="M64.001 42.0135H62.2713V43.7433H64.001V42.0135Z" fill="#4F4F4F"/>
<path d="M6.91903 43.7433H5.18927V45.473H6.91903V43.7433Z" fill="#4F4F4F"/>
<path d="M8.64879 43.7433H6.91903V45.473H8.64879V43.7433Z" fill="#4F4F4F"/>
<path d="M17.2976 43.7433H15.5678V45.473H17.2976V43.7433Z" fill="#4F4F4F"/>
<path d="M19.0273 43.7433H17.2976V45.473H19.0273V43.7433Z" fill="#4F4F4F"/>
<path d="M38.0547 43.7433H36.3249V45.473H38.0547V43.7433Z" fill="#4F4F4F"/>
<path d="M44.9737 43.7433H43.2439V45.473H44.9737V43.7433Z" fill="#4F4F4F"/>
<path d="M60.5415 43.7433H58.8117V45.473H60.5415V43.7433Z" fill="#4F4F4F"/>
<path d="M5.18927 45.473H3.45951V47.2027H5.18927V45.473Z" fill="#4F4F4F"/>
<path d="M6.91903 45.473H5.18927V47.2027H6.91903V45.473Z" fill="#4F4F4F"/>
<path d="M8.64879 45.473H6.91903V47.2027H8.64879V45.473Z" fill="#4F4F4F"/>
<path d="M10.3785 45.473H8.64879V47.2027H10.3785V45.473Z" fill="#4F4F4F"/>
<path d="M12.1083 45.473H10.3785V47.2027H12.1083V45.473Z" fill="#4F4F4F"/>
<path d="M17.2976 45.473H15.5678V47.2027H17.2976V45.473Z" fill="#4F4F4F"/>
<path d="M19.0273 45.473H17.2976V47.2027H19.0273V45.473Z" fill="#4F4F4F"/>
<path d="M20.7571 45.473H19.0273V47.2027H20.7571V45.473Z" fill="#4F4F4F"/>
<path d="M24.2166 45.473H22.4868V47.2027H24.2166V45.473Z" fill="#4F4F4F"/>
<path d="M27.6761 45.473H25.9464V47.2027H27.6761V45.473Z" fill="#4F4F4F"/>
<path d="M32.8654 45.473H31.1356V47.2027H32.8654V45.473Z" fill="#4F4F4F"/>
<path d="M38.0547 45.473H36.3249V47.2027H38.0547V45.473Z" fill="#4F4F4F"/>
<path d="M39.7844 45.473H38.0547V47.2027H39.7844V45.473Z" fill="#4F4F4F"/>
<path d="M44.9737 45.473H43.2439V47.2027H44.9737V45.473Z" fill="#4F4F4F"/>
<path d="M46.7034 45.473H44.9737V47.2027H46.7034V45.473Z" fill="#4F4F4F"/>
<path d="M48.4332 45.473H46.7034V47.2027H48.4332V45.473Z" fill="#4F4F4F"/>
<path d="M50.163 45.473H48.4332V47.2027H50.163V45.473Z" fill="#4F4F4F"/>
<path d="M51.8927 45.473H50.163V47.2027H51.8927V45.473Z" fill="#4F4F4F"/>
<path d="M60.5415 45.473H58.8117V47.2027H60.5415V45.473Z" fill="#4F4F4F"/>
<path d="M1.72976 47.2027H0V48.9325H1.72976V47.2027Z" fill="#4F4F4F"/>
<path d="M5.18927 47.2027H3.45951V48.9325H5.18927V47.2027Z" fill="#4F4F4F"/>
<path d="M6.91903 47.2027H5.18927V48.9325H6.91903V47.2027Z" fill="#4F4F4F"/>
<path d="M8.64879 47.2027H6.91903V48.9325H8.64879V47.2027Z" fill="#4F4F4F"/>
<path d="M15.5678 47.2027H13.8381V48.9325H15.5678V47.2027Z" fill="#4F4F4F"/>
<path d="M17.2976 47.2027H15.5678V48.9325H17.2976V47.2027Z" fill="#4F4F4F"/>
<path d="M19.0273 47.2027H17.2976V48.9325H19.0273V47.2027Z" fill="#4F4F4F"/>
<path d="M24.2166 47.2027H22.4868V48.9325H24.2166V47.2027Z" fill="#4F4F4F"/>
<path d="M25.9464 47.2027H24.2166V48.9325H25.9464L25.9464 47.2027Z" fill="#4F4F4F"/>
<path d="M31.1356 47.2027H29.4059V48.9325H31.1356L31.1356 47.2027Z" fill="#4F4F4F"/>
<path d="M32.8654 47.2027H31.1356L31.1356 48.9325H32.8654V47.2027Z" fill="#4F4F4F"/>
<path d="M34.5951 47.2027H32.8654V48.9325H34.5951V47.2027Z" fill="#4F4F4F"/>
<path d="M36.3249 47.2027H34.5951V48.9325H36.3249V47.2027Z" fill="#4F4F4F"/>
<path d="M38.0547 47.2027H36.3249V48.9325H38.0547V47.2027Z" fill="#4F4F4F"/>
<path d="M39.7844 47.2027H38.0547V48.9325H39.7844V47.2027Z" fill="#4F4F4F"/>
<path d="M43.2439 47.2027H41.5142V48.9325H43.2439V47.2027Z" fill="#4F4F4F"/>
<path d="M44.9737 47.2027H43.2439V48.9325H44.9737V47.2027Z" fill="#4F4F4F"/>
<path d="M46.7034 47.2027H44.9737V48.9325H46.7034V47.2027Z" fill="#4F4F4F"/>
<path d="M50.163 47.2027H48.4332V48.9325H50.163V47.2027Z" fill="#4F4F4F"/>
<path d="M55.3522 47.2027H53.6225V48.9325H55.3522V47.2027Z" fill="#4F4F4F"/>
<path d="M58.8117 47.2027H57.082V48.9325H58.8117V47.2027Z" fill="#4F4F4F"/>
<path d="M60.5415 47.2027H58.8117V48.9325H60.5415V47.2027Z" fill="#4F4F4F"/>
<path d="M62.2713 47.2027H60.5415V48.9325H62.2713V47.2027Z" fill="#4F4F4F"/>
<path d="M64.001 47.2027H62.2713V48.9325H64.001V47.2027Z" fill="#4F4F4F"/>
<path d="M1.72976 48.9325H0V50.6622H1.72976V48.9325Z" fill="#4F4F4F"/>
<path d="M6.91903 48.9325H5.18927V50.6622H6.91903V48.9325Z" fill="#4F4F4F"/>
<path d="M8.64879 48.9325H6.91903V50.6622H8.64879V48.9325Z" fill="#4F4F4F"/>
<path d="M10.3785 48.9325H8.64879V50.6622H10.3785V48.9325Z" fill="#4F4F4F"/>
<path d="M12.1083 48.9325H10.3785V50.6622H12.1083V48.9325Z" fill="#4F4F4F"/>
<path d="M15.5678 48.9325H13.8381V50.6622H15.5678V48.9325Z" fill="#4F4F4F"/>
<path d="M17.2976 48.9325H15.5678V50.6622H17.2976V48.9325Z" fill="#4F4F4F"/>
<path d="M19.0273 48.9325H17.2976V50.6622H19.0273V48.9325Z" fill="#4F4F4F"/>
<path d="M20.7571 48.9325H19.0273V50.6622H20.7571V48.9325Z" fill="#4F4F4F"/>
<path d="M24.2166 48.9325H22.4868V50.6622H24.2166V48.9325Z" fill="#4F4F4F"/>
<path d="M31.1356 48.9325H29.4059V50.6622H31.1356V48.9325Z" fill="#4F4F4F"/>
<path d="M32.8654 48.9325H31.1356V50.6622H32.8654V48.9325Z" fill="#4F4F4F"/>
<path d="M34.5951 48.9325H32.8654V50.6622H34.5951V48.9325Z" fill="#4F4F4F"/>
<path d="M38.0547 48.9325H36.3249V50.6622H38.0547V48.9325Z" fill="#4F4F4F"/>
<path d="M39.7844 48.9325H38.0547V50.6622H39.7844V48.9325Z" fill="#4F4F4F"/>
<path d="M43.2439 48.9325H41.5142V50.6622H43.2439V48.9325Z" fill="#4F4F4F"/>
<path d="M44.9737 48.9325H43.2439V50.6622H44.9737V48.9325Z" fill="#4F4F4F"/>
<path d="M46.7034 48.9325H44.9737V50.6622H46.7034V48.9325Z" fill="#4F4F4F"/>
<path d="M50.163 48.9325H48.4332V50.6622H50.163V48.9325Z" fill="#4F4F4F"/>
<path d="M51.8927 48.9325H50.163V50.6622H51.8927V48.9325Z" fill="#4F4F4F"/>
<path d="M53.6225 48.9325H51.8927V50.6622H53.6225V48.9325Z" fill="#4F4F4F"/>
<path d="M55.3522 48.9325H53.6225V50.6622H55.3522V48.9325Z" fill="#4F4F4F"/>
<path d="M57.082 48.9325H55.3522V50.6622H57.082V48.9325Z" fill="#4F4F4F"/>
<path d="M15.5678 50.6622H13.8381V52.3919H15.5678V50.6622Z" fill="#4F4F4F"/>
<path d="M19.0273 50.6622H17.2976V52.3919H19.0273V50.6622Z" fill="#4F4F4F"/>
<path d="M20.7571 50.6622H19.0273V52.3919H20.7571V50.6622Z" fill="#4F4F4F"/>
<path d="M22.4868 50.6622H20.7571V52.3919H22.4868L22.4868 50.6622Z" fill="#4F4F4F"/>
<path d="M29.4059 50.6622H27.6761V52.3919H29.4059L29.4059 50.6622Z" fill="#4F4F4F"/>
<path d="M31.1356 50.6622H29.4059L29.4059 52.3919H31.1356V50.6622Z" fill="#4F4F4F"/>
<path d="M34.5951 50.6622H32.8654V52.3919H34.5951V50.6622Z" fill="#4F4F4F"/>
<path d="M36.3249 50.6622H34.5951V52.3919H36.3249V50.6622Z" fill="#4F4F4F"/>
<path d="M41.5142 50.6622H39.7844V52.3919H41.5142V50.6622Z" fill="#4F4F4F"/>
<path d="M46.7034 50.6622H44.9737V52.3919H46.7034V50.6622Z" fill="#4F4F4F"/>
<path d="M50.163 50.6622H48.4332V52.3919H50.163V50.6622Z" fill="#4F4F4F"/>
<path d="M57.082 50.6622H55.3522V52.3919H57.082V50.6622Z" fill="#4F4F4F"/>
<path d="M58.8117 50.6622H57.082V52.3919H58.8117V50.6622Z" fill="#4F4F4F"/>
<path d="M1.72976 52.3919H0V54.1217H1.72976V52.3919Z" fill="#4F4F4F"/>
<path d="M3.45951 52.3919H1.72976V54.1217H3.45951V52.3919Z" fill="#4F4F4F"/>
<path d="M5.18927 52.3919H3.45951V54.1217H5.18927V52.3919Z" fill="#4F4F4F"/>
<path d="M6.91903 52.3919H5.18927V54.1217H6.91903V52.3919Z" fill="#4F4F4F"/>
<path d="M8.64879 52.3919H6.91903V54.1217H8.64879V52.3919Z" fill="#4F4F4F"/>
<path d="M10.3785 52.3919H8.64879V54.1217H10.3785V52.3919Z" fill="#4F4F4F"/>
<path d="M12.1083 52.3919H10.3785V54.1217H12.1083V52.3919Z" fill="#4F4F4F"/>
<path d="M15.5678 52.3919H13.8381V54.1217H15.5678V52.3919Z" fill="#4F4F4F"/>
<path d="M22.4868 52.3919H20.7571L20.7571 54.1217H22.4868V52.3919Z" fill="#4F4F4F"/>
<path d="M25.9464 52.3919H24.2166V54.1217H25.9464V52.3919Z" fill="#4F4F4F"/>
<path d="M29.4059 52.3919H27.6761V54.1217H29.4059V52.3919Z" fill="#4F4F4F"/>
<path d="M32.8654 52.3919H31.1356L31.1356 54.1217H32.8654V52.3919Z" fill="#4F4F4F"/>
<path d="M36.3249 52.3919H34.5951V54.1217H36.3249V52.3919Z" fill="#4F4F4F"/>
<path d="M43.2439 52.3919H41.5142V54.1217H43.2439V52.3919Z" fill="#4F4F4F"/>
<path d="M50.163 52.3919H48.4332V54.1217H50.163V52.3919Z" fill="#4F4F4F"/>
<path d="M53.6225 52.3919H51.8927V54.1217H53.6225V52.3919Z" fill="#4F4F4F"/>
<path d="M57.082 52.3919H55.3522V54.1217H57.082V52.3919Z" fill="#4F4F4F"/>
<path d="M58.8117 52.3919H57.082V54.1217H58.8117V52.3919Z" fill="#4F4F4F"/>
<path d="M60.5415 52.3919H58.8117V54.1217H60.5415V52.3919Z" fill="#4F4F4F"/>
<path d="M62.2713 52.3919H60.5415V54.1217H62.2713V52.3919Z" fill="#4F4F4F"/>
<path d="M1.72976 54.1217H0V55.8514H1.72976V54.1217Z" fill="#4F4F4F"/>
<path d="M12.1083 54.1217H10.3785V55.8514H12.1083V54.1217Z" fill="#4F4F4F"/>
<path d="M15.5678 54.1217H13.8381V55.8514H15.5678V54.1217Z" fill="#4F4F4F"/>
<path d="M25.9464 54.1217H24.2166V55.8514H25.9464V54.1217Z" fill="#4F4F4F"/>
<path d="M27.6761 54.1217H25.9464V55.8514H27.6761L27.6761 54.1217Z" fill="#4F4F4F"/>
<path d="M29.4059 54.1217H27.6761L27.6761 55.8514H29.4059V54.1217Z" fill="#4F4F4F"/>
<path d="M34.5951 54.1217H32.8654V55.8514H34.5951V54.1217Z" fill="#4F4F4F"/>
<path d="M36.3249 54.1217H34.5951V55.8514H36.3249V54.1217Z" fill="#4F4F4F"/>
<path d="M38.0547 54.1217H36.3249V55.8514H38.0547V54.1217Z" fill="#4F4F4F"/>
<path d="M39.7844 54.1217H38.0547V55.8514H39.7844V54.1217Z" fill="#4F4F4F"/>
<path d="M41.5142 54.1217H39.7844V55.8514H41.5142V54.1217Z" fill="#4F4F4F"/>
<path d="M48.4332 54.1217H46.7034V55.8514H48.4332V54.1217Z" fill="#4F4F4F"/>
<path d="M50.163 54.1217H48.4332V55.8514H50.163V54.1217Z" fill="#4F4F4F"/>
<path d="M57.082 54.1217H55.3522V55.8514H57.082V54.1217Z" fill="#4F4F4F"/>
<path d="M58.8117 54.1217H57.082V55.8514H58.8117V54.1217Z" fill="#4F4F4F"/>
<path d="M64.001 54.1217H62.2713V55.8514H64.001V54.1217Z" fill="#4F4F4F"/>
<path d="M1.72976 55.8514H0V57.5811H1.72976V55.8514Z" fill="#4F4F4F"/>
<path d="M5.18927 55.8514H3.45951V57.5811H5.18927V55.8514Z" fill="#4F4F4F"/>
<path d="M6.91903 55.8514H5.18927V57.5811H6.91903V55.8514Z" fill="#4F4F4F"/>
<path d="M8.64879 55.8514H6.91903V57.5811H8.64879V55.8514Z" fill="#4F4F4F"/>
<path d="M12.1083 55.8514H10.3785V57.5811H12.1083V55.8514Z" fill="#4F4F4F"/>
<path d="M15.5678 55.8514H13.8381V57.5811H15.5678V55.8514Z" fill="#4F4F4F"/>
<path d="M17.2976 55.8514H15.5678V57.5811H17.2976V55.8514Z" fill="#4F4F4F"/>
<path d="M20.7571 55.8514H19.0273V57.5811H20.7571V55.8514Z" fill="#4F4F4F"/>
<path d="M24.2166 55.8514H22.4868V57.5811H24.2166V55.8514Z" fill="#4F4F4F"/>
<path d="M25.9464 55.8514H24.2166V57.5811H25.9464V55.8514Z" fill="#4F4F4F"/>
<path d="M27.6761 55.8514H25.9464V57.5811H27.6761V55.8514Z" fill="#4F4F4F"/>
<path d="M31.1356 55.8514H29.4059L29.4059 57.5811H31.1356V55.8514Z" fill="#4F4F4F"/>
<path d="M32.8654 55.8514H31.1356V57.5811H32.8654V55.8514Z" fill="#4F4F4F"/>
<path d="M38.0547 55.8514H36.3249V57.5811H38.0547V55.8514Z" fill="#4F4F4F"/>
<path d="M39.7844 55.8514H38.0547V57.5811H39.7844V55.8514Z" fill="#4F4F4F"/>
<path d="M41.5142 55.8514H39.7844V57.5811H41.5142V55.8514Z" fill="#4F4F4F"/>
<path d="M44.9737 55.8514H43.2439V57.5811H44.9737V55.8514Z" fill="#4F4F4F"/>
<path d="M46.7034 55.8514H44.9737V57.5811H46.7034V55.8514Z" fill="#4F4F4F"/>
<path d="M48.4332 55.8514H46.7034V57.5811H48.4332V55.8514Z" fill="#4F4F4F"/>
<path d="M50.163 55.8514H48.4332V57.5811H50.163V55.8514Z" fill="#4F4F4F"/>
<path d="M51.8927 55.8514H50.163V57.5811H51.8927V55.8514Z" fill="#4F4F4F"/>
<path d="M53.6225 55.8514H51.8927V57.5811H53.6225V55.8514Z" fill="#4F4F4F"/>
<path d="M55.3522 55.8514H53.6225V57.5811H55.3522V55.8514Z" fill="#4F4F4F"/>
<path d="M57.082 55.8514H55.3522V57.5811H57.082V55.8514Z" fill="#4F4F4F"/>
<path d="M62.2713 55.8514H60.5415V57.5811H62.2713V55.8514Z" fill="#4F4F4F"/>
<path d="M1.72976 57.5811H0V59.3108H1.72976V57.5811Z" fill="#4F4F4F"/>
<path d="M5.18927 57.5811H3.45951V59.3108H5.18927V57.5811Z" fill="#4F4F4F"/>
<path d="M6.91903 57.5811H5.18927V59.3108H6.91903V57.5811Z" fill="#4F4F4F"/>
<path d="M8.64879 57.5811H6.91903V59.3108H8.64879V57.5811Z" fill="#4F4F4F"/>
<path d="M12.1083 57.5811H10.3785V59.3108H12.1083V57.5811Z" fill="#4F4F4F"/>
<path d="M15.5678 57.5811H13.8381V59.3108H15.5678V57.5811Z" fill="#4F4F4F"/>
<path d="M17.2976 57.5811H15.5678V59.3108H17.2976V57.5811Z" fill="#4F4F4F"/>
<path d="M19.0273 57.5811H17.2976V59.3108H19.0273V57.5811Z" fill="#4F4F4F"/>
<path d="M20.7571 57.5811H19.0273V59.3108H20.7571V57.5811Z" fill="#4F4F4F"/>
<path d="M22.4868 57.5811H20.7571V59.3108H22.4868L22.4868 57.5811Z" fill="#4F4F4F"/>
<path d="M24.2166 57.5811H22.4868L22.4868 59.3108H24.2166V57.5811Z" fill="#4F4F4F"/>
<path d="M25.9464 57.5811H24.2166V59.3108H25.9464V57.5811Z" fill="#4F4F4F"/>
<path d="M29.4059 57.5811H27.6761L27.6761 59.3108H29.4059L29.4059 57.5811Z" fill="#4F4F4F"/>
<path d="M31.1356 57.5811H29.4059L29.4059 59.3108H31.1356V57.5811Z" fill="#4F4F4F"/>
<path d="M36.3249 57.5811H34.5951V59.3108H36.3249V57.5811Z" fill="#4F4F4F"/>
<path d="M39.7844 57.5811H38.0547V59.3108H39.7844V57.5811Z" fill="#4F4F4F"/>
<path d="M43.2439 57.5811H41.5142V59.3108H43.2439V57.5811Z" fill="#4F4F4F"/>
<path d="M44.9737 57.5811H43.2439V59.3108H44.9737V57.5811Z" fill="#4F4F4F"/>
<path d="M46.7034 57.5811H44.9737V59.3108H46.7034V57.5811Z" fill="#4F4F4F"/>
<path d="M55.3522 57.5811H53.6225V59.3108H55.3522V57.5811Z" fill="#4F4F4F"/>
<path d="M57.082 57.5811H55.3522V59.3108H57.082V57.5811Z" fill="#4F4F4F"/>
<path d="M58.8117 57.5811H57.082V59.3108H58.8117V57.5811Z" fill="#4F4F4F"/>
<path d="M60.5415 57.5811H58.8117V59.3108H60.5415V57.5811Z" fill="#4F4F4F"/>
<path d="M62.2713 57.5811H60.5415V59.3108H62.2713V57.5811Z" fill="#4F4F4F"/>
<path d="M1.72976 59.3108H0V61.0406H1.72976V59.3108Z" fill="#4F4F4F"/>
<path d="M5.18927 59.3108H3.45951V61.0406H5.18927V59.3108Z" fill="#4F4F4F"/>
<path d="M6.91903 59.3108H5.18927V61.0406H6.91903V59.3108Z" fill="#4F4F4F"/>
<path d="M8.64879 59.3108H6.91903V61.0406H8.64879V59.3108Z" fill="#4F4F4F"/>
<path d="M12.1083 59.3108H10.3785V61.0406H12.1083V59.3108Z" fill="#4F4F4F"/>
<path d="M19.0273 59.3108H17.2976V61.0406H19.0273V59.3108Z" fill="#4F4F4F"/>
<path d="M20.7571 59.3108H19.0273V61.0406H20.7571V59.3108Z" fill="#4F4F4F"/>
<path d="M22.4868 59.3108H20.7571V61.0406H22.4868V59.3108Z" fill="#4F4F4F"/>
<path d="M25.9464 59.3108H24.2166V61.0406H25.9464V59.3108Z" fill="#4F4F4F"/>
<path d="M27.6761 59.3108H25.9464V61.0406H27.6761L27.6761 59.3108Z" fill="#4F4F4F"/>
<path d="M29.4059 59.3108H27.6761L27.6761 61.0406H29.4059V59.3108Z" fill="#4F4F4F"/>
<path d="M31.1356 59.3108H29.4059V61.0406H31.1356V59.3108Z" fill="#4F4F4F"/>
<path d="M32.8654 59.3108H31.1356V61.0406H32.8654V59.3108Z" fill="#4F4F4F"/>
<path d="M34.5951 59.3108H32.8654V61.0406H34.5951V59.3108Z" fill="#4F4F4F"/>
<path d="M36.3249 59.3108H34.5951V61.0406H36.3249V59.3108Z" fill="#4F4F4F"/>
<path d="M39.7844 59.3108H38.0547V61.0406H39.7844V59.3108Z" fill="#4F4F4F"/>
<path d="M41.5142 59.3108H39.7844V61.0406H41.5142V59.3108Z" fill="#4F4F4F"/>
<path d="M43.2439 59.3108H41.5142V61.0406H43.2439V59.3108Z" fill="#4F4F4F"/>
<path d="M48.4332 59.3108H46.7034V61.0406H48.4332V59.3108Z" fill="#4F4F4F"/>
<path d="M50.163 59.3108H48.4332V61.0406H50.163V59.3108Z" fill="#4F4F4F"/>
<path d="M55.3522 59.3108H53.6225V61.0406H55.3522V59.3108Z" fill="#4F4F4F"/>
<path d="M57.082 59.3108H55.3522V61.0406H57.082V59.3108Z" fill="#4F4F4F"/>
<path d="M58.8117 59.3108H57.082V61.0406H58.8117V59.3108Z" fill="#4F4F4F"/>
<path d="M62.2713 59.3108H60.5415V61.0406H62.2713V59.3108Z" fill="#4F4F4F"/>
<path d="M64.001 59.3108H62.2713V61.0406H64.001V59.3108Z" fill="#4F4F4F"/>
<path d="M1.72976 61.0406H0V62.7703H1.72976V61.0406Z" fill="#4F4F4F"/>
<path d="M12.1083 61.0406H10.3785V62.7703H12.1083V61.0406Z" fill="#4F4F4F"/>
<path d="M17.2976 61.0406H15.5678V62.7703H17.2976V61.0406Z" fill="#4F4F4F"/>
<path d="M20.7571 61.0406H19.0273V62.7703H20.7571V61.0406Z" fill="#4F4F4F"/>
<path d="M22.4868 61.0406H20.7571V62.7703H22.4868V61.0406Z" fill="#4F4F4F"/>
<path d="M31.1356 61.0406H29.4059L29.4059 62.7703H31.1356V61.0406Z" fill="#4F4F4F"/>
<path d="M34.5951 61.0406H32.8654V62.7703H34.5951V61.0406Z" fill="#4F4F4F"/>
<path d="M43.2439 61.0406H41.5142V62.7703H43.2439V61.0406Z" fill="#4F4F4F"/>
<path d="M48.4332 61.0406H46.7034V62.7703H48.4332V61.0406Z" fill="#4F4F4F"/>
<path d="M51.8927 61.0406H50.163V62.7703H51.8927V61.0406Z" fill="#4F4F4F"/>
<path d="M53.6225 61.0406H51.8927V62.7703H53.6225V61.0406Z" fill="#4F4F4F"/>
<path d="M62.2713 61.0406H60.5415V62.7703H62.2713V61.0406Z" fill="#4F4F4F"/>
<path d="M64.001 61.0406H62.2713V62.7703H64.001V61.0406Z" fill="#4F4F4F"/>
<path d="M1.72976 62.7703H0V64.5H1.72976V62.7703Z" fill="#4F4F4F"/>
<path d="M3.45951 62.7703H1.72976V64.5H3.45951V62.7703Z" fill="#4F4F4F"/>
<path d="M5.18927 62.7703H3.45951V64.5H5.18927V62.7703Z" fill="#4F4F4F"/>
<path d="M6.91903 62.7703H5.18927V64.5H6.91903V62.7703Z" fill="#4F4F4F"/>
<path d="M8.64879 62.7703H6.91903V64.5H8.64879V62.7703Z" fill="#4F4F4F"/>
<path d="M10.3785 62.7703H8.64879V64.5H10.3785V62.7703Z" fill="#4F4F4F"/>
<path d="M12.1083 62.7703H10.3785V64.5H12.1083V62.7703Z" fill="#4F4F4F"/>
<path d="M15.5678 62.7703H13.8381V64.5H15.5678V62.7703Z" fill="#4F4F4F"/>
<path d="M22.4868 62.7703H20.7571L20.7571 64.5H22.4868V62.7703Z" fill="#4F4F4F"/>
<path d="M41.5142 62.7703H39.7844V64.5H41.5142V62.7703Z" fill="#4F4F4F"/>
<path d="M50.163 62.7703H48.4332V64.5H50.163V62.7703Z" fill="#4F4F4F"/>
<path d="M55.3522 62.7703H53.6225V64.5H55.3522V62.7703Z" fill="#4F4F4F"/>
<path d="M57.082 62.7703H55.3522V64.5H57.082V62.7703Z" fill="#4F4F4F"/>
<path d="M58.8117 62.7703H57.082V64.5H58.8117V62.7703Z" fill="#4F4F4F"/>
<path d="M64.001 62.7703H62.2713V64.5H64.001V62.7703Z" fill="#4F4F4F"/>
<path d="M77.2832 3.54691V13.5H75.9844V3.54691H77.2832ZM80.4824 3.54691V4.62698H72.792V3.54691H80.4824ZM85.3496 12.2354V8.42776C85.3496 8.1361 85.2904 7.88317 85.1719 7.66898C85.0579 7.45023 84.8848 7.28161 84.6523 7.16312C84.4199 7.04463 84.1328 6.98538 83.791 6.98538C83.472 6.98538 83.1917 7.04007 82.9502 7.14944C82.7132 7.25882 82.5264 7.40237 82.3896 7.58011C82.2575 7.75784 82.1914 7.94925 82.1914 8.15433H80.9268C80.9268 7.89 80.9951 7.62796 81.1318 7.36819C81.2686 7.10843 81.4645 6.87373 81.7197 6.66409C81.9795 6.4499 82.2894 6.28128 82.6494 6.15823C83.014 6.03063 83.4196 5.96683 83.8662 5.96683C84.404 5.96683 84.8779 6.05797 85.2881 6.24026C85.7028 6.42256 86.0264 6.69827 86.2588 7.06741C86.4958 7.432 86.6143 7.89 86.6143 8.44144V11.8867C86.6143 12.1328 86.6348 12.3949 86.6758 12.6729C86.7214 12.9509 86.7874 13.1901 86.874 13.3907V13.5H85.5547C85.4909 13.3542 85.4408 13.1605 85.4043 12.919C85.3678 12.6729 85.3496 12.445 85.3496 12.2354ZM85.5684 9.01566L85.582 9.90433H84.3037C83.9437 9.90433 83.6224 9.93395 83.3398 9.99319C83.0573 10.0479 82.8203 10.1322 82.6289 10.2461C82.4375 10.3601 82.2917 10.5036 82.1914 10.6768C82.0911 10.8454 82.041 11.0437 82.041 11.2715C82.041 11.5039 82.0934 11.7159 82.1982 11.9073C82.3031 12.0987 82.4603 12.2513 82.6699 12.3653C82.8841 12.4746 83.1462 12.5293 83.4561 12.5293C83.8434 12.5293 84.1852 12.4473 84.4814 12.2832C84.7777 12.1192 85.0124 11.9187 85.1855 11.6817C85.3633 11.4447 85.459 11.2145 85.4727 10.9912L86.0127 11.5996C85.9808 11.791 85.8942 12.003 85.7529 12.2354C85.6117 12.4678 85.4225 12.6911 85.1855 12.9053C84.9531 13.1149 84.6751 13.2904 84.3516 13.4317C84.0326 13.5684 83.6725 13.6367 83.2715 13.6367C82.7702 13.6367 82.3304 13.5388 81.9521 13.3428C81.5785 13.1468 81.2868 12.8848 81.0771 12.5567C80.8721 12.224 80.7695 11.8526 80.7695 11.4424C80.7695 11.0459 80.847 10.6973 81.002 10.3965C81.1569 10.0912 81.3802 9.83825 81.6719 9.63773C81.9635 9.43265 82.3145 9.2777 82.7246 9.17288C83.1348 9.06806 83.5928 9.01566 84.0986 9.01566H85.5684ZM84.4814 4.90042H83.5723L83.5654 3.86136C83.7979 3.84769 83.987 3.8249 84.1328 3.793C84.2786 3.75654 84.3857 3.70413 84.4541 3.63577C84.5225 3.56286 84.5566 3.46715 84.5566 3.34866C84.5566 3.25296 84.527 3.17321 84.4678 3.10941C84.4085 3.04105 84.3265 2.98636 84.2217 2.94534C84.1169 2.89977 83.9961 2.86787 83.8594 2.84964C83.7227 2.83141 83.5768 2.8223 83.4219 2.8223L83.4697 2.09769C83.807 2.09769 84.1032 2.12731 84.3584 2.18655C84.6182 2.2458 84.8346 2.33239 85.0078 2.44632C85.1855 2.56025 85.3177 2.69697 85.4043 2.85648C85.4954 3.01142 85.541 3.1846 85.541 3.37601C85.541 3.72236 85.4316 3.97529 85.2129 4.1348C84.9941 4.28974 84.7526 4.38545 84.4883 4.42191L84.4814 4.90042ZM89.9775 6.10355V13.5H88.7061V6.10355H89.9775ZM88.6104 4.14163C88.6104 3.93655 88.6719 3.76338 88.7949 3.6221C88.9225 3.48082 89.1094 3.41019 89.3555 3.41019C89.597 3.41019 89.7816 3.48082 89.9092 3.6221C90.0413 3.76338 90.1074 3.93655 90.1074 4.14163C90.1074 4.3376 90.0413 4.50622 89.9092 4.64749C89.7816 4.78421 89.597 4.85257 89.3555 4.85257C89.1094 4.85257 88.9225 4.78421 88.7949 4.64749C88.6719 4.50622 88.6104 4.3376 88.6104 4.14163ZM102.405 5.50882H103.376C103.376 6.00556 103.31 6.42256 103.178 6.7598C103.05 7.09704 102.825 7.34997 102.501 7.51859C102.177 7.6872 101.722 7.77151 101.134 7.77151V6.99222C101.544 6.99222 101.838 6.94209 102.016 6.84183C102.193 6.73701 102.303 6.57523 102.344 6.35648C102.385 6.13773 102.405 5.85517 102.405 5.50882ZM100.006 11.791V6.10355H101.277V13.5H100.067L100.006 11.791ZM100.245 10.2325L100.771 10.2188C100.771 10.711 100.719 11.1667 100.614 11.586C100.514 12.0007 100.35 12.3607 100.122 12.666C99.8942 12.9714 99.5957 13.2106 99.2266 13.3838C98.8574 13.5524 98.4085 13.6367 97.8799 13.6367C97.5199 13.6367 97.1895 13.5843 96.8887 13.4795C96.5924 13.3747 96.3372 13.2129 96.123 12.9942C95.9089 12.7754 95.7425 12.4906 95.624 12.1397C95.5101 11.7888 95.4531 11.3672 95.4531 10.875V6.10355H96.7178V10.8887C96.7178 11.2214 96.7542 11.4971 96.8271 11.7159C96.9046 11.93 97.0072 12.1009 97.1348 12.2285C97.2669 12.3516 97.4128 12.4382 97.5723 12.4883C97.7363 12.5384 97.9049 12.5635 98.0781 12.5635C98.6159 12.5635 99.042 12.461 99.3564 12.2559C99.6709 12.0463 99.8965 11.766 100.033 11.4151C100.174 11.0596 100.245 10.6654 100.245 10.2325ZM97.7842 5.15335L99.1104 3.14359H100.635L98.8027 5.15335H97.7842ZM105.413 7.68265V13.5H104.148V6.10355H105.345L105.413 7.68265ZM105.112 9.52151L104.586 9.50101C104.59 8.99515 104.666 8.52803 104.812 8.09964C104.957 7.6667 105.162 7.29072 105.427 6.97171C105.691 6.6527 106.006 6.40661 106.37 6.23343C106.739 6.05569 107.147 5.96683 107.594 5.96683C107.958 5.96683 108.286 6.01696 108.578 6.11722C108.87 6.21292 109.118 6.36787 109.323 6.58206C109.533 6.79625 109.692 7.07425 109.802 7.41605C109.911 7.75329 109.966 8.16572 109.966 8.65335V13.5H108.694V8.63968C108.694 8.25231 108.637 7.94241 108.523 7.70999C108.41 7.47301 108.243 7.30211 108.024 7.1973C107.806 7.08792 107.537 7.03323 107.218 7.03323C106.903 7.03323 106.616 7.09931 106.356 7.23148C106.101 7.36364 105.88 7.54593 105.693 7.77835C105.511 8.01077 105.368 8.27737 105.263 8.57816C105.162 8.87438 105.112 9.18883 105.112 9.52151ZM116.679 6.10355H117.827V13.3428C117.827 13.9945 117.695 14.5505 117.431 15.0108C117.166 15.4711 116.797 15.8197 116.323 16.0567C115.854 16.2982 115.312 16.419 114.696 16.419C114.441 16.419 114.14 16.378 113.794 16.2959C113.452 16.2185 113.115 16.084 112.782 15.8926C112.454 15.7058 112.178 15.4528 111.955 15.1338L112.618 14.3819C112.928 14.7556 113.252 15.0153 113.589 15.1612C113.931 15.307 114.268 15.3799 114.601 15.3799C115.002 15.3799 115.348 15.3047 115.64 15.1543C115.931 15.0039 116.157 14.7806 116.316 14.4844C116.48 14.1927 116.562 13.8327 116.562 13.4043V7.7305L116.679 6.10355ZM111.586 9.88382V9.74026C111.586 9.17516 111.652 8.66247 111.784 8.20218C111.921 7.73734 112.115 7.33857 112.365 7.00589C112.62 6.67321 112.928 6.418 113.288 6.24026C113.648 6.05797 114.054 5.96683 114.505 5.96683C114.97 5.96683 115.375 6.04886 115.722 6.21292C116.073 6.37243 116.369 6.60713 116.61 6.91702C116.856 7.22236 117.05 7.5915 117.191 8.02444C117.333 8.45739 117.431 8.9473 117.485 9.49417V10.1231C117.435 10.6654 117.337 11.153 117.191 11.586C117.05 12.0189 116.856 12.3881 116.61 12.6934C116.369 12.9987 116.073 13.2334 115.722 13.3975C115.371 13.557 114.961 13.6367 114.491 13.6367C114.049 13.6367 113.648 13.5433 113.288 13.3565C112.933 13.1696 112.627 12.9076 112.372 12.5703C112.117 12.2331 111.921 11.8366 111.784 11.3809C111.652 10.9206 111.586 10.4216 111.586 9.88382ZM112.851 9.74026V9.88382C112.851 10.253 112.887 10.5993 112.96 10.9229C113.037 11.2464 113.154 11.5313 113.309 11.7774C113.468 12.0235 113.671 12.2172 113.917 12.3584C114.163 12.4951 114.457 12.5635 114.799 12.5635C115.218 12.5635 115.564 12.4746 115.838 12.2969C116.111 12.1192 116.328 11.8845 116.487 11.5928C116.651 11.3011 116.779 10.9844 116.87 10.6426V8.99515C116.82 8.7445 116.743 8.50296 116.638 8.27054C116.537 8.03356 116.405 7.82392 116.241 7.64163C116.082 7.45478 115.883 7.30667 115.646 7.1973C115.41 7.08792 115.132 7.03323 114.812 7.03323C114.466 7.03323 114.168 7.10615 113.917 7.25198C113.671 7.39326 113.468 7.58922 113.309 7.83987C113.154 8.08597 113.037 8.37308 112.96 8.7012C112.887 9.02477 112.851 9.37112 112.851 9.74026ZM127.883 12.0645V3.00003H129.154V13.5H127.992L127.883 12.0645ZM122.906 9.88382V9.74026C122.906 9.17516 122.975 8.66247 123.111 8.20218C123.253 7.73734 123.451 7.33857 123.706 7.00589C123.966 6.67321 124.273 6.418 124.629 6.24026C124.989 6.05797 125.39 5.96683 125.832 5.96683C126.297 5.96683 126.702 6.04886 127.049 6.21292C127.4 6.37243 127.696 6.60713 127.938 6.91702C128.184 7.22236 128.377 7.5915 128.519 8.02444C128.66 8.45739 128.758 8.9473 128.812 9.49417V10.1231C128.762 10.6654 128.664 11.153 128.519 11.586C128.377 12.0189 128.184 12.3881 127.938 12.6934C127.696 12.9987 127.4 13.2334 127.049 13.3975C126.698 13.557 126.288 13.6367 125.818 13.6367C125.385 13.6367 124.989 13.5433 124.629 13.3565C124.273 13.1696 123.966 12.9076 123.706 12.5703C123.451 12.2331 123.253 11.8366 123.111 11.3809C122.975 10.9206 122.906 10.4216 122.906 9.88382ZM124.178 9.74026V9.88382C124.178 10.253 124.214 10.5993 124.287 10.9229C124.365 11.2464 124.483 11.5313 124.643 11.7774C124.802 12.0235 125.005 12.2172 125.251 12.3584C125.497 12.4951 125.791 12.5635 126.133 12.5635C126.552 12.5635 126.896 12.4746 127.165 12.2969C127.438 12.1192 127.657 11.8845 127.821 11.5928C127.985 11.3011 128.113 10.9844 128.204 10.6426V8.99515C128.149 8.7445 128.07 8.50296 127.965 8.27054C127.865 8.03356 127.732 7.82392 127.568 7.64163C127.409 7.45478 127.211 7.30667 126.974 7.1973C126.741 7.08792 126.465 7.03323 126.146 7.03323C125.8 7.03323 125.502 7.10615 125.251 7.25198C125.005 7.39326 124.802 7.58922 124.643 7.83987C124.483 8.08597 124.365 8.37308 124.287 8.7012C124.214 9.02477 124.178 9.37112 124.178 9.74026ZM135.648 11.791V6.10355H136.92V13.5H135.71L135.648 11.791ZM135.888 10.2325L136.414 10.2188C136.414 10.711 136.362 11.1667 136.257 11.586C136.157 12.0007 135.993 12.3607 135.765 12.666C135.537 12.9714 135.238 13.2106 134.869 13.3838C134.5 13.5524 134.051 13.6367 133.522 13.6367C133.162 13.6367 132.832 13.5843 132.531 13.4795C132.235 13.3747 131.98 13.2129 131.766 12.9942C131.551 12.7754 131.385 12.4906 131.267 12.1397C131.153 11.7888 131.096 11.3672 131.096 10.875V6.10355H132.36V10.8887C132.36 11.2214 132.397 11.4971 132.47 11.7159C132.547 11.93 132.65 12.1009 132.777 12.2285C132.91 12.3516 133.055 12.4382 133.215 12.4883C133.379 12.5384 133.548 12.5635 133.721 12.5635C134.258 12.5635 134.685 12.461 134.999 12.2559C135.313 12.0463 135.539 11.766 135.676 11.4151C135.817 11.0596 135.888 10.6654 135.888 10.2325ZM132.853 15.1817C132.853 14.9766 132.914 14.8034 133.037 14.6621C133.165 14.5209 133.352 14.4502 133.598 14.4502C133.839 14.4502 134.024 14.5209 134.151 14.6621C134.284 14.8034 134.35 14.9766 134.35 15.1817C134.35 15.3776 134.284 15.544 134.151 15.6807C134.024 15.822 133.839 15.8926 133.598 15.8926C133.352 15.8926 133.165 15.822 133.037 15.6807C132.914 15.544 132.853 15.3776 132.853 15.1817ZM140.112 7.68265V13.5H138.848V6.10355H140.044L140.112 7.68265ZM139.812 9.52151L139.285 9.50101C139.29 8.99515 139.365 8.52803 139.511 8.09964C139.657 7.6667 139.862 7.29072 140.126 6.97171C140.39 6.6527 140.705 6.40661 141.069 6.23343C141.438 6.05569 141.846 5.96683 142.293 5.96683C142.658 5.96683 142.986 6.01696 143.277 6.11722C143.569 6.21292 143.817 6.36787 144.022 6.58206C144.232 6.79625 144.392 7.07425 144.501 7.41605C144.61 7.75329 144.665 8.16572 144.665 8.65335V13.5H143.394V8.63968C143.394 8.25231 143.337 7.94241 143.223 7.70999C143.109 7.47301 142.942 7.30211 142.724 7.1973C142.505 7.08792 142.236 7.03323 141.917 7.03323C141.603 7.03323 141.315 7.09931 141.056 7.23148C140.8 7.36364 140.579 7.54593 140.393 7.77835C140.21 8.01077 140.067 8.27737 139.962 8.57816C139.862 8.87438 139.812 9.18883 139.812 9.52151ZM151.378 6.10355H152.526V13.3428C152.526 13.9945 152.394 14.5505 152.13 15.0108C151.866 15.4711 151.496 15.8197 151.022 16.0567C150.553 16.2982 150.011 16.419 149.396 16.419C149.14 16.419 148.84 16.378 148.493 16.2959C148.151 16.2185 147.814 16.084 147.481 15.8926C147.153 15.7058 146.878 15.4528 146.654 15.1338L147.317 14.3819C147.627 14.7556 147.951 15.0153 148.288 15.1612C148.63 15.307 148.967 15.3799 149.3 15.3799C149.701 15.3799 150.047 15.3047 150.339 15.1543C150.631 15.0039 150.856 14.7806 151.016 14.4844C151.18 14.1927 151.262 13.8327 151.262 13.4043V7.7305L151.378 6.10355ZM146.285 9.88382V9.74026C146.285 9.17516 146.351 8.66247 146.483 8.20218C146.62 7.73734 146.814 7.33857 147.064 7.00589C147.32 6.67321 147.627 6.418 147.987 6.24026C148.347 6.05797 148.753 5.96683 149.204 5.96683C149.669 5.96683 150.075 6.04886 150.421 6.21292C150.772 6.37243 151.068 6.60713 151.31 6.91702C151.556 7.22236 151.749 7.5915 151.891 8.02444C152.032 8.45739 152.13 8.9473 152.185 9.49417V10.1231C152.134 10.6654 152.036 11.153 151.891 11.586C151.749 12.0189 151.556 12.3881 151.31 12.6934C151.068 12.9987 150.772 13.2334 150.421 13.3975C150.07 13.557 149.66 13.6367 149.19 13.6367C148.748 13.6367 148.347 13.5433 147.987 13.3565C147.632 13.1696 147.326 12.9076 147.071 12.5703C146.816 12.2331 146.62 11.8366 146.483 11.3809C146.351 10.9206 146.285 10.4216 146.285 9.88382ZM147.55 9.74026V9.88382C147.55 10.253 147.586 10.5993 147.659 10.9229C147.737 11.2464 147.853 11.5313 148.008 11.7774C148.167 12.0235 148.37 12.2172 148.616 12.3584C148.862 12.4951 149.156 12.5635 149.498 12.5635C149.917 12.5635 150.264 12.4746 150.537 12.2969C150.811 12.1192 151.027 11.8845 151.187 11.5928C151.351 11.3011 151.478 10.9844 151.569 10.6426V8.99515C151.519 8.7445 151.442 8.50296 151.337 8.27054C151.237 8.03356 151.104 7.82392 150.94 7.64163C150.781 7.45478 150.583 7.30667 150.346 7.1973C150.109 7.08792 149.831 7.03323 149.512 7.03323C149.165 7.03323 148.867 7.10615 148.616 7.25198C148.37 7.39326 148.167 7.58922 148.008 7.83987C147.853 8.08597 147.737 8.37308 147.659 8.7012C147.586 9.02477 147.55 9.37112 147.55 9.74026ZM161.796 4.42874L158.501 13.5H157.154L160.948 3.54691H161.816L161.796 4.42874ZM164.558 13.5L161.256 4.42874L161.235 3.54691H162.104L165.911 13.5H164.558ZM164.387 9.81546V10.8955H158.795V9.81546H164.387ZM168.317 7.68265V13.5H167.053V6.10355H168.249L168.317 7.68265ZM168.017 9.52151L167.49 9.50101C167.495 8.99515 167.57 8.52803 167.716 8.09964C167.862 7.6667 168.067 7.29072 168.331 6.97171C168.595 6.6527 168.91 6.40661 169.274 6.23343C169.644 6.05569 170.051 5.96683 170.498 5.96683C170.863 5.96683 171.191 6.01696 171.482 6.11722C171.774 6.21292 172.022 6.36787 172.228 6.58206C172.437 6.79625 172.597 7.07425 172.706 7.41605C172.815 7.75329 172.87 8.16572 172.87 8.65335V13.5H171.599V8.63968C171.599 8.25231 171.542 7.94241 171.428 7.70999C171.314 7.47301 171.147 7.30211 170.929 7.1973C170.71 7.08792 170.441 7.03323 170.122 7.03323C169.808 7.03323 169.521 7.09931 169.261 7.23148C169.006 7.36364 168.785 7.54593 168.598 7.77835C168.415 8.01077 168.272 8.27737 168.167 8.57816C168.067 8.87438 168.017 9.18883 168.017 9.52151ZM179.453 12.0645V3.00003H180.725V13.5H179.562L179.453 12.0645ZM174.477 9.88382V9.74026C174.477 9.17516 174.545 8.66247 174.682 8.20218C174.823 7.73734 175.021 7.33857 175.276 7.00589C175.536 6.67321 175.844 6.418 176.199 6.24026C176.559 6.05797 176.96 5.96683 177.402 5.96683C177.867 5.96683 178.273 6.04886 178.619 6.21292C178.97 6.37243 179.266 6.60713 179.508 6.91702C179.754 7.22236 179.948 7.5915 180.089 8.02444C180.23 8.45739 180.328 8.9473 180.383 9.49417V10.1231C180.333 10.6654 180.235 11.153 180.089 11.586C179.948 12.0189 179.754 12.3881 179.508 12.6934C179.266 12.9987 178.97 13.2334 178.619 13.3975C178.268 13.557 177.858 13.6367 177.389 13.6367C176.956 13.6367 176.559 13.5433 176.199 13.3565C175.844 13.1696 175.536 12.9076 175.276 12.5703C175.021 12.2331 174.823 11.8366 174.682 11.3809C174.545 10.9206 174.477 10.4216 174.477 9.88382ZM175.748 9.74026V9.88382C175.748 10.253 175.785 10.5993 175.857 10.9229C175.935 11.2464 176.053 11.5313 176.213 11.7774C176.372 12.0235 176.575 12.2172 176.821 12.3584C177.067 12.4951 177.361 12.5635 177.703 12.5635C178.122 12.5635 178.466 12.4746 178.735 12.2969C179.009 12.1192 179.228 11.8845 179.392 11.5928C179.556 11.3011 179.683 10.9844 179.774 10.6426V8.99515C179.72 8.7445 179.64 8.50296 179.535 8.27054C179.435 8.03356 179.303 7.82392 179.139 7.64163C178.979 7.45478 178.781 7.30667 178.544 7.1973C178.312 7.08792 178.036 7.03323 177.717 7.03323C177.37 7.03323 177.072 7.10615 176.821 7.25198C176.575 7.39326 176.372 7.58922 176.213 7.83987C176.053 8.08597 175.935 8.37308 175.857 8.7012C175.785 9.02477 175.748 9.37112 175.748 9.74026ZM183.958 7.26566V13.5H182.693V6.10355H183.924L183.958 7.26566ZM186.269 6.06253L186.262 7.23831C186.157 7.21553 186.057 7.20185 185.961 7.1973C185.87 7.18818 185.765 7.18362 185.646 7.18362C185.355 7.18362 185.097 7.2292 184.874 7.32034C184.651 7.41149 184.462 7.53909 184.307 7.70316C184.152 7.86722 184.029 8.06318 183.938 8.29105C183.851 8.51435 183.794 8.76045 183.767 9.02933L183.411 9.23441C183.411 8.78779 183.454 8.36852 183.541 7.97659C183.632 7.58467 183.771 7.23831 183.958 6.93753C184.145 6.63219 184.382 6.39521 184.669 6.22659C184.961 6.05342 185.307 5.96683 185.708 5.96683C185.799 5.96683 185.904 5.97822 186.022 6.00101C186.141 6.01924 186.223 6.03974 186.269 6.06253ZM186.966 9.88382V9.72659C186.966 9.19339 187.043 8.69892 187.198 8.24319C187.353 7.78291 187.576 7.38415 187.868 7.04691C188.16 6.70511 188.513 6.44079 188.928 6.25394C189.342 6.06253 189.807 5.96683 190.322 5.96683C190.842 5.96683 191.309 6.06253 191.724 6.25394C192.143 6.44079 192.498 6.70511 192.79 7.04691C193.086 7.38415 193.312 7.78291 193.467 8.24319C193.622 8.69892 193.699 9.19339 193.699 9.72659V9.88382C193.699 10.417 193.622 10.9115 193.467 11.3672C193.312 11.8229 193.086 12.2217 192.79 12.5635C192.498 12.9007 192.145 13.1651 191.73 13.3565C191.32 13.5433 190.855 13.6367 190.336 13.6367C189.816 13.6367 189.349 13.5433 188.935 13.3565C188.52 13.1651 188.164 12.9007 187.868 12.5635C187.576 12.2217 187.353 11.8229 187.198 11.3672C187.043 10.9115 186.966 10.417 186.966 9.88382ZM188.23 9.72659V9.88382C188.23 10.253 188.274 10.6016 188.36 10.9297C188.447 11.2533 188.577 11.5404 188.75 11.791C188.928 12.0417 189.149 12.2399 189.413 12.3858C189.677 12.527 189.985 12.5977 190.336 12.5977C190.682 12.5977 190.985 12.527 191.245 12.3858C191.509 12.2399 191.728 12.0417 191.901 11.791C192.075 11.5404 192.204 11.2533 192.291 10.9297C192.382 10.6016 192.428 10.253 192.428 9.88382V9.72659C192.428 9.36201 192.382 9.01793 192.291 8.69437C192.204 8.36624 192.072 8.07685 191.895 7.8262C191.721 7.57099 191.503 7.37047 191.238 7.22464C190.979 7.07881 190.673 7.00589 190.322 7.00589C189.976 7.00589 189.671 7.07881 189.406 7.22464C189.146 7.37047 188.928 7.57099 188.75 7.8262C188.577 8.07685 188.447 8.36624 188.36 8.69437C188.274 9.01793 188.23 9.36201 188.23 9.72659ZM196.659 6.10355V13.5H195.388V6.10355H196.659ZM195.292 4.14163C195.292 3.93655 195.354 3.76338 195.477 3.6221C195.604 3.48082 195.791 3.41019 196.037 3.41019C196.279 3.41019 196.463 3.48082 196.591 3.6221C196.723 3.76338 196.789 3.93655 196.789 4.14163C196.789 4.3376 196.723 4.50622 196.591 4.64749C196.463 4.78421 196.279 4.85257 196.037 4.85257C195.791 4.85257 195.604 4.78421 195.477 4.64749C195.354 4.50622 195.292 4.3376 195.292 4.14163ZM203.352 12.0645V3.00003H204.623V13.5H203.461L203.352 12.0645ZM198.375 9.88382V9.74026C198.375 9.17516 198.443 8.66247 198.58 8.20218C198.721 7.73734 198.92 7.33857 199.175 7.00589C199.435 6.67321 199.742 6.418 200.098 6.24026C200.458 6.05797 200.859 5.96683 201.301 5.96683C201.766 5.96683 202.171 6.04886 202.518 6.21292C202.868 6.37243 203.165 6.60713 203.406 6.91702C203.652 7.22236 203.846 7.5915 203.987 8.02444C204.129 8.45739 204.227 8.9473 204.281 9.49417V10.1231C204.231 10.6654 204.133 11.153 203.987 11.586C203.846 12.0189 203.652 12.3881 203.406 12.6934C203.165 12.9987 202.868 13.2334 202.518 13.3975C202.167 13.557 201.757 13.6367 201.287 13.6367C200.854 13.6367 200.458 13.5433 200.098 13.3565C199.742 13.1696 199.435 12.9076 199.175 12.5703C198.92 12.2331 198.721 11.8366 198.58 11.3809C198.443 10.9206 198.375 10.4216 198.375 9.88382ZM199.646 9.74026V9.88382C199.646 10.253 199.683 10.5993 199.756 10.9229C199.833 11.2464 199.952 11.5313 200.111 11.7774C200.271 12.0235 200.474 12.2172 200.72 12.3584C200.966 12.4951 201.26 12.5635 201.602 12.5635C202.021 12.5635 202.365 12.4746 202.634 12.2969C202.907 12.1192 203.126 11.8845 203.29 11.5928C203.454 11.3011 203.582 10.9844 203.673 10.6426V8.99515C203.618 8.7445 203.538 8.50296 203.434 8.27054C203.333 8.03356 203.201 7.82392 203.037 7.64163C202.878 7.45478 202.679 7.30667 202.442 7.1973C202.21 7.08792 201.934 7.03323 201.615 7.03323C201.269 7.03323 200.97 7.10615 200.72 7.25198C200.474 7.39326 200.271 7.58922 200.111 7.83987C199.952 8.08597 199.833 8.37308 199.756 8.7012C199.683 9.02477 199.646 9.37112 199.646 9.74026ZM206.537 12.8301C206.537 12.6159 206.603 12.4359 206.735 12.2901C206.872 12.1397 207.068 12.0645 207.323 12.0645C207.578 12.0645 207.772 12.1397 207.904 12.2901C208.041 12.4359 208.109 12.6159 208.109 12.8301C208.109 13.0397 208.041 13.2175 207.904 13.3633C207.772 13.5091 207.578 13.5821 207.323 13.5821C207.068 13.5821 206.872 13.5091 206.735 13.3633C206.603 13.2175 206.537 13.0397 206.537 12.8301ZM206.544 6.79398C206.544 6.57978 206.61 6.39977 206.742 6.25394C206.879 6.10355 207.075 6.02835 207.33 6.02835C207.585 6.02835 207.779 6.10355 207.911 6.25394C208.048 6.39977 208.116 6.57978 208.116 6.79398C208.116 7.00361 208.048 7.18135 207.911 7.32718C207.779 7.47301 207.585 7.54593 207.33 7.54593C207.075 7.54593 206.879 7.47301 206.742 7.32718C206.61 7.18135 206.544 7.00361 206.544 6.79398Z" fill="black"/>
<path d="M205.489 64.2768H78.4674C75.5654 64.2768 73.333 62.0445 73.333 59.1424V28.7823C73.333 25.8802 75.7886 23.6479 78.4674 23.6479H205.489C208.391 23.6479 210.623 25.8802 210.623 28.7823V59.3656C210.623 62.0445 208.391 64.2768 205.489 64.2768Z" fill="black"/>
<path d="M205.489 24.5408C207.944 24.5408 209.73 26.5499 209.73 28.7823V59.3656C209.73 61.8212 207.721 63.6071 205.489 63.6071H78.4674C76.0118 63.6071 74.226 61.598 74.226 59.3656V28.7823C74.226 26.3267 76.2351 24.5408 78.4674 24.5408H205.489V24.5408ZM205.489 23.6479H78.4674C75.7886 23.6479 73.333 25.8802 73.333 28.7823V59.3656C73.333 62.2677 75.5654 64.5001 78.4674 64.5001H205.489C208.391 64.5001 210.623 62.2677 210.623 59.3656V28.7823C210.623 25.8802 208.391 23.6479 205.489 23.6479Z" fill="#A6A5A5"/>
<path d="M142.757 45.7484C140.302 45.7484 138.516 47.5342 138.516 49.9898C138.516 52.4454 140.525 54.2313 142.757 54.2313C145.213 54.2313 146.999 52.4454 146.999 49.9898C146.999 47.5342 144.99 45.7484 142.757 45.7484ZM142.757 52.6687C141.418 52.6687 140.302 51.5525 140.302 49.9898C140.302 48.4272 141.418 47.311 142.757 47.311C144.097 47.311 145.213 48.4272 145.213 49.9898C145.213 51.5525 143.874 52.6687 142.757 52.6687ZM133.158 45.7484C130.703 45.7484 128.917 47.5342 128.917 49.9898C128.917 52.4454 130.926 54.2313 133.158 54.2313C135.614 54.2313 137.4 52.4454 137.4 49.9898C137.623 47.5342 135.614 45.7484 133.158 45.7484ZM133.158 52.6687C131.819 52.6687 130.703 51.5525 130.703 49.9898C130.703 48.4272 131.819 47.311 133.158 47.311C134.498 47.311 135.614 48.4272 135.614 49.9898C135.614 51.5525 134.498 52.6687 133.158 52.6687ZM121.997 47.0878V48.8737H126.461C126.238 49.9898 126.015 50.6595 125.568 51.106C124.675 51.7757 123.782 52.6687 121.997 52.6687C119.318 52.6687 117.085 50.4363 117.085 47.7575C117.085 45.0786 119.094 42.8463 121.997 42.8463C123.559 42.8463 124.452 43.516 125.345 44.1857L126.684 42.8463C125.568 41.7301 124.229 41.0604 121.997 41.0604C118.201 41.0604 115.076 43.9625 115.076 47.7575C115.076 51.5525 118.201 54.4546 121.997 54.4546C124.006 54.4546 125.568 53.7848 126.684 52.6687C127.801 51.5525 128.247 49.7666 128.247 48.4272C128.247 47.9807 128.247 47.5342 128.247 47.311H121.997V47.0878ZM167.983 48.4272C167.537 47.5342 166.42 45.7484 164.188 45.7484C161.956 45.7484 160.17 47.5342 160.17 49.9898C160.17 52.4454 161.956 54.2313 164.411 54.2313C166.42 54.2313 167.537 53.1151 167.983 52.2222L166.42 51.3293C165.974 51.999 165.304 52.4454 164.188 52.4454C163.295 52.4454 162.625 51.999 162.179 51.106L167.983 48.6504V48.4272ZM162.179 49.9898C162.179 48.4272 163.518 47.5342 164.411 47.5342C165.081 47.5342 165.751 47.9807 165.974 48.4272L162.179 49.9898ZM157.491 54.2313H159.5V41.5069H157.491V54.2313ZM154.366 46.6413C153.919 46.1948 153.026 45.7484 152.133 45.7484C149.901 45.7484 147.892 47.7575 147.892 49.9898C147.892 52.4454 149.901 54.2313 152.133 54.2313C153.25 54.2313 153.919 53.7848 154.366 53.3384V54.0081C154.366 55.5707 153.473 56.4637 152.133 56.4637C151.017 56.4637 150.347 55.5707 149.901 54.901L148.338 55.5707C148.785 56.6869 150.124 58.0263 152.133 58.0263C154.366 58.0263 156.152 56.6869 156.152 53.5616V45.9716H154.366V46.6413ZM152.133 52.6687C150.794 52.6687 149.678 51.5525 149.678 49.9898C149.678 48.4272 150.794 47.311 152.133 47.311C153.473 47.311 154.366 48.4272 154.366 49.9898C154.366 51.5525 153.473 52.6687 152.133 52.6687ZM176.913 41.5069H172.448V54.2313H174.234V49.3201H176.913C178.922 49.3201 181.154 47.7575 181.154 45.3019C181.154 42.8463 178.922 41.5069 176.913 41.5069ZM176.913 47.5342H174.234V43.0695H176.913C178.252 43.0695 179.145 44.1857 179.145 45.3019C179.145 46.4181 178.252 47.5342 176.913 47.5342ZM188.744 45.7484C187.405 45.7484 185.842 46.4181 185.396 47.7575L187.181 48.4272C187.628 47.7575 188.298 47.5342 188.967 47.5342C189.86 47.5342 190.976 48.2039 190.976 49.0969V49.3201C190.53 49.0969 189.86 48.8737 188.967 48.8737C187.181 48.8737 185.396 49.7666 185.396 51.7757C185.396 53.5616 186.958 54.6778 188.521 54.6778C189.86 54.6778 190.53 54.0081 190.976 53.3384V54.2313H192.762V49.3201C192.539 47.0878 190.753 45.7484 188.744 45.7484ZM188.521 52.6687C187.851 52.6687 186.958 52.4454 186.958 51.5525C186.958 50.6595 188.074 50.2131 188.967 50.2131C189.86 50.2131 190.083 50.4363 190.753 50.6595C190.53 51.7757 189.414 52.6687 188.521 52.6687ZM199.236 45.9716L197.004 51.5525L194.771 45.9716H192.762L196.111 53.5616L194.102 57.8031H196.111L201.245 45.7484H199.236V45.9716ZM182.047 54.2313H183.833V41.5069H182.047V54.2313Z" fill="white"/>
<path d="M84.048 31.2378C83.8248 31.461 83.6016 32.1307 83.6016 32.5772V55.1241C83.6016 55.7938 83.8248 56.2402 84.048 56.4635L96.5493 43.9622V43.739L84.048 31.2378Z" fill="#5BC8F3"/>
<path d="M100.792 48.2039L96.5508 43.9625V43.7392L100.792 39.4977L105.703 42.3998C107.043 43.2928 107.043 44.6322 105.703 45.3019L100.792 48.2039Z" fill="url(#paint0_linear_8600_292535)"/>
<path d="M101.015 48.2038L96.7733 43.9623L84.0488 56.6868C84.4953 57.1333 85.3882 57.1333 86.058 56.6868L101.015 48.2038Z" fill="url(#paint1_linear_8600_292535)"/>
<path d="M101.014 39.7208L86.2806 31.2378C85.3877 30.7914 84.718 30.7914 84.2715 31.2378L96.9959 43.9623L101.014 39.7208Z" fill="url(#paint2_linear_8600_292535)"/>
<path d="M117.754 36.5956H117.084V31.4612H115.521V30.7915H119.54V31.4612H117.977V36.5956H117.754Z" fill="white" stroke="white" stroke-width="0.2" stroke-miterlimit="10"/>
<path d="M120.658 34.8098L119.988 36.5956H119.318L121.104 31.0147H121.997L123.783 36.5956H123.113L122.667 34.8098H120.658ZM122.444 34.3633L121.997 32.8006C121.774 32.3542 121.774 32.1309 121.774 31.9077C121.774 32.1309 121.551 32.5774 121.551 32.8006L121.104 34.3633H122.444ZM121.327 30.7915C121.551 30.345 121.774 30.345 121.774 29.8986C121.774 29.6753 121.551 29.6753 121.551 29.6753C121.327 29.6753 121.327 29.8986 121.104 29.8986L120.881 29.6753C121.104 29.4521 121.327 29.2289 121.774 29.2289C122.22 29.2289 122.444 29.4521 122.444 29.8986C122.444 30.345 121.997 30.345 121.774 30.7915H121.327Z" fill="white" stroke="white" stroke-width="0.2" stroke-miterlimit="10"/>
<path d="M124.673 36.5956V30.7915H125.343V36.5956H124.673V36.5956Z" fill="white" stroke="white" stroke-width="0.2" stroke-miterlimit="10"/>
<path d="M128.472 36.5956V30.7915H129.365L132.267 35.2562V34.14V30.7915H132.936V36.5956H132.267L129.141 31.9077V33.0239V36.5956H128.472V36.5956Z" fill="white" stroke="white" stroke-width="0.2" stroke-miterlimit="10"/>
<path d="M138.962 33.6938C138.962 35.4796 137.846 36.5958 136.506 36.5958C135.167 36.5958 134.051 35.4796 134.051 33.917C134.051 32.1311 135.167 31.0149 136.506 31.0149C138.069 31.0149 138.962 32.1311 138.962 33.6938ZM134.72 33.917C134.72 35.0332 135.39 36.1494 136.506 36.1494C137.623 36.1494 138.292 35.0332 138.292 33.917C138.292 32.8008 137.623 31.6846 136.506 31.6846C135.39 31.4614 134.72 32.5776 134.72 33.917ZM136.73 29.8987L137.623 30.7917H136.953L136.506 30.122L135.837 30.7917H135.167L136.06 29.8987H136.73V29.8987ZM136.06 37.712C136.06 37.4888 136.283 37.2655 136.506 37.2655C136.73 37.2655 136.953 37.4888 136.953 37.712C136.953 37.9352 136.73 38.1585 136.506 38.1585C136.283 37.9352 136.06 37.712 136.06 37.712Z" fill="white" stroke="white" stroke-width="0.2" stroke-miterlimit="10"/>
<path d="M140.08 36.5956V30.7915H140.75V36.5956H140.08V36.5956Z" fill="white" stroke="white" stroke-width="0.2" stroke-miterlimit="10"/>
<path d="M143.649 36.5956V30.7915H145.435C146.328 30.7915 146.998 31.0147 147.668 31.6844C148.114 32.1309 148.561 33.0239 148.561 33.6936C148.561 34.5865 148.337 35.2562 147.668 35.7027C147.221 36.1492 146.328 36.5956 145.435 36.5956H143.649V36.5956ZM144.542 35.9259H145.659C146.328 35.9259 146.775 35.7027 147.221 35.2562C147.668 34.8098 147.891 34.3633 147.891 33.6936C147.891 33.0239 147.668 32.5774 147.221 32.1309C146.775 31.6844 146.328 31.4612 145.659 31.4612H144.542V35.9259Z" fill="white" stroke="white" stroke-width="0.2" stroke-miterlimit="10"/>
<path d="M151.462 36.5956C150.792 36.5956 150.346 36.3724 149.899 35.9259C149.453 35.4795 149.229 35.033 149.229 34.3633V30.7915H149.899V34.5865C149.899 35.033 150.122 35.4795 150.346 35.7027C150.569 35.9259 151.015 36.1492 151.462 36.1492C151.908 36.1492 152.355 35.9259 152.578 35.7027C152.801 35.4795 153.024 35.033 153.024 34.5865V30.7915H153.694V34.3633C153.694 35.033 153.471 35.7027 153.024 35.9259C152.801 36.3724 152.132 36.5956 151.462 36.5956Z" fill="white" stroke="white" stroke-width="0.2" stroke-miterlimit="10"/>
<path d="M155.035 36.5956V30.7915H155.928L158.83 35.2562V34.14V30.7915H159.5V36.5956H158.83L155.928 31.9077V33.0239V36.5956H155.035V36.5956Z" fill="white" stroke="white" stroke-width="0.2" stroke-miterlimit="10"/>
<path d="M166.417 33.9168C166.417 34.8097 166.194 35.4794 165.747 35.9259C165.301 36.5956 164.408 36.8188 163.515 36.8188C162.622 36.8188 161.952 36.5956 161.283 35.9259C160.613 35.2562 160.39 34.5865 160.39 33.6935C160.39 32.8006 160.613 32.1309 161.283 31.4612C161.952 30.7915 162.622 30.5682 163.515 30.5682C163.961 30.5682 164.408 30.5682 164.631 30.7915C165.078 31.0147 165.301 31.2379 165.524 31.4612L165.078 31.9077C164.631 31.4612 164.185 31.2379 163.515 31.2379C162.845 31.2379 162.399 31.4612 161.952 31.9077C161.506 32.3541 161.283 32.8006 161.283 33.6935C161.283 34.3633 161.506 35.033 161.952 35.4794C162.399 35.9259 162.845 36.1491 163.515 36.1491C164.185 36.1491 164.631 35.9259 165.078 35.4794C165.301 35.2562 165.524 34.8097 165.524 34.3633H163.515V33.4703H166.417C166.417 33.6935 166.417 33.6935 166.417 33.9168Z" fill="white" stroke="white" stroke-width="0.2" stroke-miterlimit="10"/>
<path d="M171.108 36.5956H170.439V31.4612H168.876V30.7915H172.894V31.4612H171.332V36.5956H171.108Z" fill="white" stroke="white" stroke-width="0.2" stroke-miterlimit="10"/>
<path d="M173.563 36.5956V30.7915H175.573C176.019 30.7915 176.466 31.0147 176.912 31.238C177.358 31.4612 177.358 31.9077 177.358 32.5774C177.358 33.0239 177.135 33.2471 176.912 33.6936C176.689 33.9168 176.242 34.14 176.019 34.3633L177.582 36.8189H176.689L175.126 34.3633H174.233V36.8189H173.563V36.5956ZM174.233 33.4703H175.349C175.573 33.4703 175.796 33.4703 176.019 33.2471C176.242 33.0239 176.242 32.8006 176.242 32.5774C176.242 32.3542 176.242 32.1309 176.019 31.9077C175.796 31.6844 175.573 31.6844 175.349 31.6844H174.01V33.4703H174.233Z" fill="white" stroke="white" stroke-width="0.2" stroke-miterlimit="10"/>
<path d="M181.821 31.4612H179.142V33.2471H181.598V33.9168H179.142V35.7027H181.821V36.3724H178.473V30.7915H181.821V31.4612ZM178.919 30.1218L179.812 29.2289H180.482L181.375 30.1218H180.482L180.035 29.6753L179.589 30.1218H178.919Z" fill="white" stroke="white" stroke-width="0.2" stroke-miterlimit="10"/>
<path d="M182.937 36.5956V30.7915H183.829L186.732 35.2562V34.14V30.7915H187.401V36.5956H186.732L183.829 31.9077V33.0239V36.5956H182.937V36.5956Z" fill="white" stroke="white" stroke-width="0.2" stroke-miterlimit="10"/>
<defs>
<linearGradient id="paint0_linear_8600_292535" x1="105.034" y1="43.9705" x2="80.4682" y2="43.9705" gradientUnits="userSpaceOnUse">
<stop stop-color="#FFDF00"/>
<stop offset="0.4087" stop-color="#FBBC0E"/>
<stop offset="0.7754" stop-color="#F9A418"/>
<stop offset="1" stop-color="#F89B1C"/>
</linearGradient>
<linearGradient id="paint1_linear_8600_292535" x1="98.6583" y1="46.3003" x2="75.5525" y2="69.4059" gradientUnits="userSpaceOnUse">
<stop stop-color="#EE4447"/>
<stop offset="1" stop-color="#C5166C"/>
</linearGradient>
<linearGradient id="paint2_linear_8600_292535" x1="75.449" y1="18.431" x2="94.3144" y2="37.2965" gradientUnits="userSpaceOnUse">
<stop stop-color="#269E6F"/>
<stop offset="0.05089" stop-color="#2BA06F"/>
<stop offset="0.4663" stop-color="#53B26B"/>
<stop offset="0.7971" stop-color="#6BBD69"/>
<stop offset="1" stop-color="#74C168"/>
</linearGradient>
</defs>
</svg>
