<svg width="194" height="64" viewBox="0 0 194 64" fill="none" xmlns="http://www.w3.org/2000/svg">
<g clip-path="url(#clip0_8600_292534)">
<path d="M1.71897 0H0V1.71898H1.71897V0Z" fill="#4F4F4F"/>
<path d="M3.43795 0H1.71897V1.71898H3.43795V0Z" fill="#4F4F4F"/>
<path d="M5.15692 0H3.43795V1.71898H5.15692V0Z" fill="#4F4F4F"/>
<path d="M6.87589 0H5.15692V1.71898H6.87589V0Z" fill="#4F4F4F"/>
<path d="M8.59487 0H6.87589V1.71898H8.59487V0Z" fill="#4F4F4F"/>
<path d="M10.3138 0H8.59487V1.71898H10.3138V0Z" fill="#4F4F4F"/>
<path d="M12.0328 0H10.3138V1.71898H12.0328V0Z" fill="#4F4F4F"/>
<path d="M15.4708 0H13.7518V1.71898H15.4708V0Z" fill="#4F4F4F"/>
<path d="M17.1897 0H15.4708V1.71898H17.1897V0Z" fill="#4F4F4F"/>
<path d="M18.9087 0H17.1897V1.71898H18.9087V0Z" fill="#4F4F4F"/>
<path d="M22.3467 0H20.6277V1.71898H22.3467V0Z" fill="#4F4F4F"/>
<path d="M25.7846 0H24.0656V1.71898H25.7846V0Z" fill="#4F4F4F"/>
<path d="M30.9415 0H29.2226V1.71898H30.9415V0Z" fill="#4F4F4F"/>
<path d="M44.6933 0H42.9743V1.71898H44.6933V0Z" fill="#4F4F4F"/>
<path d="M46.4123 0H44.6933V1.71898H46.4123V0Z" fill="#4F4F4F"/>
<path d="M48.1313 0H46.4123V1.71898H48.1313V0Z" fill="#4F4F4F"/>
<path d="M49.8502 0H48.1313V1.71898H49.8502V0Z" fill="#4F4F4F"/>
<path d="M53.2882 0H51.5692V1.71898H53.2882V0Z" fill="#4F4F4F"/>
<path d="M55.0071 0H53.2882V1.71898H55.0071V0Z" fill="#4F4F4F"/>
<path d="M56.7261 0H55.0071V1.71898H56.7261V0Z" fill="#4F4F4F"/>
<path d="M58.4451 0H56.7261V1.71898H58.4451V0Z" fill="#4F4F4F"/>
<path d="M60.1641 0H58.4451V1.71898H60.1641V0Z" fill="#4F4F4F"/>
<path d="M61.883 0H60.1641V1.71898H61.883V0Z" fill="#4F4F4F"/>
<path d="M63.602 0H61.883V1.71898H63.602V0Z" fill="#4F4F4F"/>
<path d="M1.71897 1.71898H0V3.43796H1.71897V1.71898Z" fill="#4F4F4F"/>
<path d="M12.0328 1.71898H10.3138V3.43796H12.0328V1.71898Z" fill="#4F4F4F"/>
<path d="M17.1897 1.71898H15.4708V3.43796H17.1897V1.71898Z" fill="#4F4F4F"/>
<path d="M18.9087 1.71898H17.1897V3.43796H18.9087V1.71898Z" fill="#4F4F4F"/>
<path d="M20.6277 1.71898H18.9087V3.43796H20.6277L20.6277 1.71898Z" fill="#4F4F4F"/>
<path d="M22.3467 1.71898H20.6277L20.6277 3.43796H22.3467V1.71898Z" fill="#4F4F4F"/>
<path d="M27.5036 1.71898H25.7846L25.7846 3.43796H27.5036V1.71898Z" fill="#4F4F4F"/>
<path d="M29.2226 1.71898H27.5036V3.43796H29.2225L29.2226 1.71898Z" fill="#4F4F4F"/>
<path d="M32.6605 1.71898H30.9415L30.9415 3.43796H32.6605V1.71898Z" fill="#4F4F4F"/>
<path d="M34.3795 1.71898H32.6605V3.43796H34.3795V1.71898Z" fill="#4F4F4F"/>
<path d="M37.8174 1.71898H36.0984V3.43796H37.8174V1.71898Z" fill="#4F4F4F"/>
<path d="M39.5364 1.71898H37.8174V3.43796H39.5364V1.71898Z" fill="#4F4F4F"/>
<path d="M42.9743 1.71898H41.2554V3.43796H42.9743V1.71898Z" fill="#4F4F4F"/>
<path d="M44.6933 1.71898H42.9743V3.43796H44.6933V1.71898Z" fill="#4F4F4F"/>
<path d="M53.2882 1.71898H51.5692V3.43796H53.2882V1.71898Z" fill="#4F4F4F"/>
<path d="M63.602 1.71898H61.883V3.43796H63.602V1.71898Z" fill="#4F4F4F"/>
<path d="M1.71897 3.43796H0V5.15694H1.71897V3.43796Z" fill="#4F4F4F"/>
<path d="M5.15692 3.43796H3.43795V5.15694H5.15692V3.43796Z" fill="#4F4F4F"/>
<path d="M6.87589 3.43796H5.15692V5.15694H6.87589V3.43796Z" fill="#4F4F4F"/>
<path d="M8.59487 3.43796H6.87589V5.15694H8.59487V3.43796Z" fill="#4F4F4F"/>
<path d="M12.0328 3.43796H10.3138V5.15694H12.0328V3.43796Z" fill="#4F4F4F"/>
<path d="M17.1897 3.43796H15.4708V5.15694H17.1897V3.43796Z" fill="#4F4F4F"/>
<path d="M22.3467 3.43796H20.6277L20.6277 5.15694H22.3467V3.43796Z" fill="#4F4F4F"/>
<path d="M27.5036 3.43796H25.7846V5.15694H27.5036V3.43796Z" fill="#4F4F4F"/>
<path d="M30.9415 3.43796H29.2225L29.2226 5.15694H30.9415L30.9415 3.43796Z" fill="#4F4F4F"/>
<path d="M44.6933 3.43796H42.9743V5.15694H44.6933V3.43796Z" fill="#4F4F4F"/>
<path d="M49.8502 3.43796H48.1313V5.15694H49.8502V3.43796Z" fill="#4F4F4F"/>
<path d="M53.2882 3.43796H51.5692V5.15694H53.2882V3.43796Z" fill="#4F4F4F"/>
<path d="M56.7261 3.43796H55.0071V5.15694H56.7261V3.43796Z" fill="#4F4F4F"/>
<path d="M58.4451 3.43796H56.7261V5.15694H58.4451V3.43796Z" fill="#4F4F4F"/>
<path d="M60.1641 3.43796H58.4451V5.15694H60.1641V3.43796Z" fill="#4F4F4F"/>
<path d="M63.602 3.43796H61.883V5.15694H63.602V3.43796Z" fill="#4F4F4F"/>
<path d="M1.71897 5.15694H0V6.87592H1.71897V5.15694Z" fill="#4F4F4F"/>
<path d="M5.15692 5.15694H3.43795V6.87592H5.15692V5.15694Z" fill="#4F4F4F"/>
<path d="M6.87589 5.15694H5.15692V6.87592H6.87589V5.15694Z" fill="#4F4F4F"/>
<path d="M8.59487 5.15694H6.87589V6.87592H8.59487V5.15694Z" fill="#4F4F4F"/>
<path d="M12.0328 5.15694H10.3138V6.87592H12.0328V5.15694Z" fill="#4F4F4F"/>
<path d="M17.1897 5.15694H15.4708V6.87592H17.1897V5.15694Z" fill="#4F4F4F"/>
<path d="M18.9087 5.15694H17.1897V6.87592H18.9087V5.15694Z" fill="#4F4F4F"/>
<path d="M20.6277 5.15694H18.9087V6.87592H20.6277L20.6277 5.15694Z" fill="#4F4F4F"/>
<path d="M29.2226 5.15694H27.5036L27.5036 6.87592H29.2225L29.2226 5.15694Z" fill="#4F4F4F"/>
<path d="M32.6605 5.15694H30.9415L30.9415 6.87592H32.6605V5.15694Z" fill="#4F4F4F"/>
<path d="M36.0984 5.15694H34.3795V6.87592H36.0984V5.15694Z" fill="#4F4F4F"/>
<path d="M37.8174 5.15694H36.0984V6.87592H37.8174V5.15694Z" fill="#4F4F4F"/>
<path d="M39.5364 5.15694H37.8174V6.87592H39.5364V5.15694Z" fill="#4F4F4F"/>
<path d="M42.9743 5.15694H41.2554V6.87592H42.9743V5.15694Z" fill="#4F4F4F"/>
<path d="M46.4123 5.15694H44.6933V6.87592H46.4123V5.15694Z" fill="#4F4F4F"/>
<path d="M48.1313 5.15694H46.4123V6.87592H48.1313V5.15694Z" fill="#4F4F4F"/>
<path d="M49.8502 5.15694H48.1313V6.87592H49.8502V5.15694Z" fill="#4F4F4F"/>
<path d="M53.2882 5.15694H51.5692V6.87592H53.2882V5.15694Z" fill="#4F4F4F"/>
<path d="M56.7261 5.15694H55.0071V6.87592H56.7261V5.15694Z" fill="#4F4F4F"/>
<path d="M58.4451 5.15694H56.7261V6.87592H58.4451V5.15694Z" fill="#4F4F4F"/>
<path d="M60.1641 5.15694H58.4451V6.87592H60.1641V5.15694Z" fill="#4F4F4F"/>
<path d="M63.602 5.15694H61.883V6.87592H63.602V5.15694Z" fill="#4F4F4F"/>
<path d="M1.71897 6.87592H0V8.59489H1.71897V6.87592Z" fill="#4F4F4F"/>
<path d="M5.15692 6.87592H3.43795V8.59489H5.15692V6.87592Z" fill="#4F4F4F"/>
<path d="M6.87589 6.87592H5.15692V8.59489H6.87589V6.87592Z" fill="#4F4F4F"/>
<path d="M8.59487 6.87592H6.87589V8.59489H8.59487V6.87592Z" fill="#4F4F4F"/>
<path d="M12.0328 6.87592H10.3138V8.59489H12.0328V6.87592Z" fill="#4F4F4F"/>
<path d="M18.9087 6.87592H17.1897V8.59489H18.9087V6.87592Z" fill="#4F4F4F"/>
<path d="M20.6277 6.87592H18.9087V8.59489H20.6277V6.87592Z" fill="#4F4F4F"/>
<path d="M29.2225 6.87592H27.5036V8.59489H29.2225V6.87592Z" fill="#4F4F4F"/>
<path d="M30.9415 6.87592H29.2225V8.59489H30.9415L30.9415 6.87592Z" fill="#4F4F4F"/>
<path d="M37.8174 6.87592H36.0984V8.59489H37.8174V6.87592Z" fill="#4F4F4F"/>
<path d="M41.2554 6.87592H39.5364V8.59489H41.2554V6.87592Z" fill="#4F4F4F"/>
<path d="M44.6933 6.87592H42.9743V8.59489H44.6933V6.87592Z" fill="#4F4F4F"/>
<path d="M53.2882 6.87592H51.5692V8.59489H53.2882V6.87592Z" fill="#4F4F4F"/>
<path d="M56.7261 6.87592H55.0071V8.59489H56.7261V6.87592Z" fill="#4F4F4F"/>
<path d="M58.4451 6.87592H56.7261V8.59489H58.4451V6.87592Z" fill="#4F4F4F"/>
<path d="M60.1641 6.87592H58.4451V8.59489H60.1641V6.87592Z" fill="#4F4F4F"/>
<path d="M63.602 6.87592H61.883V8.59489H63.602V6.87592Z" fill="#4F4F4F"/>
<path d="M1.71897 8.59489H0V10.3139H1.71897V8.59489Z" fill="#4F4F4F"/>
<path d="M12.0328 8.59489H10.3138V10.3139H12.0328V8.59489Z" fill="#4F4F4F"/>
<path d="M20.6277 8.59489H18.9087V10.3139H20.6277V8.59489Z" fill="#4F4F4F"/>
<path d="M34.3795 8.59489H32.6605V10.3139H34.3795V8.59489Z" fill="#4F4F4F"/>
<path d="M37.8174 8.59489H36.0984V10.3139H37.8174V8.59489Z" fill="#4F4F4F"/>
<path d="M41.2554 8.59489H39.5364V10.3139H41.2554V8.59489Z" fill="#4F4F4F"/>
<path d="M44.6933 8.59489H42.9743V10.3139H44.6933V8.59489Z" fill="#4F4F4F"/>
<path d="M48.1313 8.59489H46.4123V10.3139H48.1313V8.59489Z" fill="#4F4F4F"/>
<path d="M49.8502 8.59489H48.1313V10.3139H49.8502V8.59489Z" fill="#4F4F4F"/>
<path d="M53.2882 8.59489H51.5692V10.3139H53.2882V8.59489Z" fill="#4F4F4F"/>
<path d="M63.602 8.59489H61.883V10.3139H63.602V8.59489Z" fill="#4F4F4F"/>
<path d="M1.71897 10.3139H0V12.0329H1.71897V10.3139Z" fill="#4F4F4F"/>
<path d="M3.43795 10.3139H1.71897V12.0329H3.43795V10.3139Z" fill="#4F4F4F"/>
<path d="M5.15692 10.3139H3.43795V12.0329H5.15692V10.3139Z" fill="#4F4F4F"/>
<path d="M6.87589 10.3139H5.15692V12.0329H6.87589V10.3139Z" fill="#4F4F4F"/>
<path d="M8.59487 10.3139H6.87589V12.0329H8.59487V10.3139Z" fill="#4F4F4F"/>
<path d="M10.3138 10.3139H8.59487V12.0329H10.3138V10.3139Z" fill="#4F4F4F"/>
<path d="M12.0328 10.3139H10.3138V12.0329H12.0328V10.3139Z" fill="#4F4F4F"/>
<path d="M15.4708 10.3139H13.7518V12.0329H15.4708V10.3139Z" fill="#4F4F4F"/>
<path d="M18.9087 10.3139H17.1897V12.0329H18.9087V10.3139Z" fill="#4F4F4F"/>
<path d="M22.3467 10.3139H20.6277L20.6277 12.0329H22.3467V10.3139Z" fill="#4F4F4F"/>
<path d="M25.7846 10.3139H24.0656V12.0329H25.7846V10.3139Z" fill="#4F4F4F"/>
<path d="M29.2225 10.3139H27.5036V12.0329H29.2225V10.3139Z" fill="#4F4F4F"/>
<path d="M32.6605 10.3139H30.9415V12.0329H32.6605V10.3139Z" fill="#4F4F4F"/>
<path d="M36.0984 10.3139H34.3795V12.0329H36.0984V10.3139Z" fill="#4F4F4F"/>
<path d="M39.5364 10.3139H37.8174V12.0329H39.5364V10.3139Z" fill="#4F4F4F"/>
<path d="M42.9743 10.3139H41.2554V12.0329H42.9743V10.3139Z" fill="#4F4F4F"/>
<path d="M46.4123 10.3139H44.6933V12.0329H46.4123V10.3139Z" fill="#4F4F4F"/>
<path d="M49.8502 10.3139H48.1313V12.0329H49.8502V10.3139Z" fill="#4F4F4F"/>
<path d="M53.2882 10.3139H51.5692V12.0329H53.2882V10.3139Z" fill="#4F4F4F"/>
<path d="M55.0071 10.3139H53.2882V12.0329H55.0071V10.3139Z" fill="#4F4F4F"/>
<path d="M56.7261 10.3139H55.0071V12.0329H56.7261V10.3139Z" fill="#4F4F4F"/>
<path d="M58.4451 10.3139H56.7261V12.0329H58.4451V10.3139Z" fill="#4F4F4F"/>
<path d="M60.1641 10.3139H58.4451V12.0329H60.1641V10.3139Z" fill="#4F4F4F"/>
<path d="M61.883 10.3139H60.1641V12.0329H61.883V10.3139Z" fill="#4F4F4F"/>
<path d="M63.602 10.3139H61.883V12.0329H63.602V10.3139Z" fill="#4F4F4F"/>
<path d="M17.1897 12.0329H15.4708V13.7518H17.1897V12.0329Z" fill="#4F4F4F"/>
<path d="M18.9087 12.0329H17.1897V13.7518H18.9087V12.0329Z" fill="#4F4F4F"/>
<path d="M20.6277 12.0329H18.9087V13.7518H20.6277L20.6277 12.0329Z" fill="#4F4F4F"/>
<path d="M24.0656 12.0329H22.3467L22.3467 13.7518H24.0656V12.0329Z" fill="#4F4F4F"/>
<path d="M27.5036 12.0329H25.7846L25.7846 13.7518H27.5036L27.5036 12.0329Z" fill="#4F4F4F"/>
<path d="M32.6605 12.0329H30.9415V13.7518H32.6605V12.0329Z" fill="#4F4F4F"/>
<path d="M36.0984 12.0329H34.3795V13.7518H36.0984V12.0329Z" fill="#4F4F4F"/>
<path d="M41.2554 12.0329H39.5364V13.7518H41.2554V12.0329Z" fill="#4F4F4F"/>
<path d="M42.9743 12.0329H41.2554V13.7518H42.9743V12.0329Z" fill="#4F4F4F"/>
<path d="M44.6933 12.0329H42.9743V13.7518H44.6933V12.0329Z" fill="#4F4F4F"/>
<path d="M48.1313 12.0329H46.4123V13.7518H48.1313V12.0329Z" fill="#4F4F4F"/>
<path d="M3.43795 13.7518H1.71897V15.4708H3.43795V13.7518Z" fill="#4F4F4F"/>
<path d="M5.15692 13.7518H3.43795V15.4708H5.15692V13.7518Z" fill="#4F4F4F"/>
<path d="M6.87589 13.7518H5.15692V15.4708H6.87589V13.7518Z" fill="#4F4F4F"/>
<path d="M12.0328 13.7518H10.3138V15.4708H12.0328V13.7518Z" fill="#4F4F4F"/>
<path d="M13.7518 13.7518H12.0328V15.4708H13.7518V13.7518Z" fill="#4F4F4F"/>
<path d="M15.4708 13.7518H13.7518V15.4708H15.4708V13.7518Z" fill="#4F4F4F"/>
<path d="M18.9087 13.7518H17.1897V15.4708H18.9087V13.7518Z" fill="#4F4F4F"/>
<path d="M20.6277 13.7518H18.9087V15.4708H20.6277V13.7518Z" fill="#4F4F4F"/>
<path d="M25.7846 13.7518H24.0656V15.4708H25.7846L25.7846 13.7518Z" fill="#4F4F4F"/>
<path d="M27.5036 13.7518H25.7846L25.7846 15.4708H27.5036V13.7518Z" fill="#4F4F4F"/>
<path d="M34.3795 13.7518H32.6605V15.4708H34.3795V13.7518Z" fill="#4F4F4F"/>
<path d="M39.5364 13.7518H37.8174V15.4708H39.5364V13.7518Z" fill="#4F4F4F"/>
<path d="M44.6933 13.7518H42.9743V15.4708H44.6933V13.7518Z" fill="#4F4F4F"/>
<path d="M46.4123 13.7518H44.6933V15.4708H46.4123V13.7518Z" fill="#4F4F4F"/>
<path d="M48.1313 13.7518H46.4123V15.4708H48.1313V13.7518Z" fill="#4F4F4F"/>
<path d="M49.8502 13.7518H48.1313V15.4708H49.8502V13.7518Z" fill="#4F4F4F"/>
<path d="M51.5692 13.7518H49.8502V15.4708H51.5692V13.7518Z" fill="#4F4F4F"/>
<path d="M63.602 13.7518H61.883V15.4708H63.602V13.7518Z" fill="#4F4F4F"/>
<path d="M1.71897 15.4708H0V17.1898H1.71897V15.4708Z" fill="#4F4F4F"/>
<path d="M8.59487 15.4708H6.87589V17.1898H8.59487V15.4708Z" fill="#4F4F4F"/>
<path d="M10.3138 15.4708H8.59487V17.1898H10.3138V15.4708Z" fill="#4F4F4F"/>
<path d="M13.7518 15.4708H12.0328V17.1898H13.7518V15.4708Z" fill="#4F4F4F"/>
<path d="M15.4708 15.4708H13.7518V17.1898H15.4708V15.4708Z" fill="#4F4F4F"/>
<path d="M20.6277 15.4708H18.9087V17.1898H20.6277V15.4708Z" fill="#4F4F4F"/>
<path d="M22.3467 15.4708H20.6277V17.1898H22.3467V15.4708Z" fill="#4F4F4F"/>
<path d="M24.0656 15.4708H22.3467V17.1898H24.0656V15.4708Z" fill="#4F4F4F"/>
<path d="M29.2225 15.4708H27.5036L27.5036 17.1898H29.2225V15.4708Z" fill="#4F4F4F"/>
<path d="M30.9415 15.4708H29.2225V17.1898H30.9415V15.4708Z" fill="#4F4F4F"/>
<path d="M36.0984 15.4708H34.3795V17.1898H36.0984V15.4708Z" fill="#4F4F4F"/>
<path d="M37.8174 15.4708H36.0984V17.1898H37.8174V15.4708Z" fill="#4F4F4F"/>
<path d="M39.5364 15.4708H37.8174V17.1898H39.5364V15.4708Z" fill="#4F4F4F"/>
<path d="M42.9743 15.4708H41.2554V17.1898H42.9743V15.4708Z" fill="#4F4F4F"/>
<path d="M44.6933 15.4708H42.9743V17.1898H44.6933V15.4708Z" fill="#4F4F4F"/>
<path d="M46.4123 15.4708H44.6933V17.1898H46.4123V15.4708Z" fill="#4F4F4F"/>
<path d="M51.5692 15.4708H49.8502V17.1898H51.5692V15.4708Z" fill="#4F4F4F"/>
<path d="M53.2882 15.4708H51.5692V17.1898H53.2882V15.4708Z" fill="#4F4F4F"/>
<path d="M55.0071 15.4708H53.2882V17.1898H55.0071V15.4708Z" fill="#4F4F4F"/>
<path d="M58.4451 15.4708H56.7261V17.1898H58.4451V15.4708Z" fill="#4F4F4F"/>
<path d="M63.602 15.4708H61.883V17.1898H63.602V15.4708Z" fill="#4F4F4F"/>
<path d="M1.71897 17.1898H0V18.9088H1.71897V17.1898Z" fill="#4F4F4F"/>
<path d="M3.43795 17.1898H1.71897V18.9088H3.43795V17.1898Z" fill="#4F4F4F"/>
<path d="M6.87589 17.1898H5.15692V18.9088H6.87589V17.1898Z" fill="#4F4F4F"/>
<path d="M10.3138 17.1898H8.59487V18.9088H10.3138V17.1898Z" fill="#4F4F4F"/>
<path d="M12.0328 17.1898H10.3138V18.9088H12.0328V17.1898Z" fill="#4F4F4F"/>
<path d="M15.4708 17.1898H13.7518V18.9088H15.4708V17.1898Z" fill="#4F4F4F"/>
<path d="M18.9087 17.1898H17.1897V18.9088H18.9087V17.1898Z" fill="#4F4F4F"/>
<path d="M20.6277 17.1898H18.9087V18.9088H20.6277V17.1898Z" fill="#4F4F4F"/>
<path d="M22.3467 17.1898H20.6277V18.9088H22.3467V17.1898Z" fill="#4F4F4F"/>
<path d="M27.5036 17.1898H25.7846V18.9088H27.5036L27.5036 17.1898Z" fill="#4F4F4F"/>
<path d="M30.9415 17.1898H29.2225L29.2226 18.9088H30.9415V17.1898Z" fill="#4F4F4F"/>
<path d="M37.8174 17.1898H36.0984V18.9088H37.8174V17.1898Z" fill="#4F4F4F"/>
<path d="M39.5364 17.1898H37.8174V18.9088H39.5364V17.1898Z" fill="#4F4F4F"/>
<path d="M42.9743 17.1898H41.2554V18.9088H42.9743V17.1898Z" fill="#4F4F4F"/>
<path d="M51.5692 17.1898H49.8502V18.9088H51.5692V17.1898Z" fill="#4F4F4F"/>
<path d="M58.4451 17.1898H56.7261V18.9088H58.4451V17.1898Z" fill="#4F4F4F"/>
<path d="M10.3138 18.9088H8.59487V20.6277H10.3138V18.9088Z" fill="#4F4F4F"/>
<path d="M13.7518 18.9088H12.0328V20.6277H13.7518V18.9088Z" fill="#4F4F4F"/>
<path d="M20.6277 18.9088H18.9087V20.6277H20.6277V18.9088Z" fill="#4F4F4F"/>
<path d="M22.3467 18.9088H20.6277V20.6277H22.3467V18.9088Z" fill="#4F4F4F"/>
<path d="M25.7846 18.9088H24.0656V20.6277H25.7846L25.7846 18.9088Z" fill="#4F4F4F"/>
<path d="M27.5036 18.9088H25.7846L25.7846 20.6277H27.5036V18.9088Z" fill="#4F4F4F"/>
<path d="M29.2226 18.9088H27.5036V20.6277H29.2225L29.2226 18.9088Z" fill="#4F4F4F"/>
<path d="M30.9415 18.9088H29.2226L29.2225 20.6277H30.9415V18.9088Z" fill="#4F4F4F"/>
<path d="M37.8174 18.9088H36.0984V20.6277H37.8174V18.9088Z" fill="#4F4F4F"/>
<path d="M48.1313 18.9088H46.4123V20.6277H48.1313V18.9088Z" fill="#4F4F4F"/>
<path d="M51.5692 18.9088H49.8502V20.6277H51.5692V18.9088Z" fill="#4F4F4F"/>
<path d="M55.0071 18.9088H53.2882V20.6277H55.0071V18.9088Z" fill="#4F4F4F"/>
<path d="M56.7261 18.9088H55.0071V20.6277H56.7261V18.9088Z" fill="#4F4F4F"/>
<path d="M60.1641 18.9088H58.4451V20.6277H60.1641V18.9088Z" fill="#4F4F4F"/>
<path d="M61.883 18.9088H60.1641V20.6277H61.883V18.9088Z" fill="#4F4F4F"/>
<path d="M63.602 18.9088H61.883V20.6277H63.602V18.9088Z" fill="#4F4F4F"/>
<path d="M3.43795 20.6277H1.71897V22.3467H3.43795V20.6277Z" fill="#4F4F4F"/>
<path d="M5.15692 20.6277H3.43795V22.3467H5.15692V20.6277Z" fill="#4F4F4F"/>
<path d="M12.0328 20.6277H10.3138V22.3467H12.0328V20.6277Z" fill="#4F4F4F"/>
<path d="M17.1897 20.6277H15.4708V22.3467H17.1897V20.6277Z" fill="#4F4F4F"/>
<path d="M20.6277 20.6277H18.9087V22.3467H20.6277V20.6277Z" fill="#4F4F4F"/>
<path d="M22.3467 20.6277H20.6277V22.3467H22.3467V20.6277Z" fill="#4F4F4F"/>
<path d="M24.0656 20.6277H22.3467V22.3467H24.0656V20.6277Z" fill="#4F4F4F"/>
<path d="M25.7846 20.6277H24.0656V22.3467H25.7846V20.6277Z" fill="#4F4F4F"/>
<path d="M29.2225 20.6277H27.5036L27.5036 22.3467H29.2225V20.6277Z" fill="#4F4F4F"/>
<path d="M36.0984 20.6277L34.3795 20.6277V22.3467H36.0984V20.6277Z" fill="#4F4F4F"/>
<path d="M37.8174 20.6277H36.0984V22.3467H37.8174V20.6277Z" fill="#4F4F4F"/>
<path d="M44.6933 20.6277H42.9743V22.3467H44.6933V20.6277Z" fill="#4F4F4F"/>
<path d="M46.4123 20.6277L44.6933 20.6277V22.3467H46.4123V20.6277Z" fill="#4F4F4F"/>
<path d="M49.8502 20.6277H48.1313V22.3467H49.8502V20.6277Z" fill="#4F4F4F"/>
<path d="M53.2882 20.6277H51.5692V22.3467H53.2882V20.6277Z" fill="#4F4F4F"/>
<path d="M55.0071 20.6277H53.2882V22.3467H55.0071V20.6277Z" fill="#4F4F4F"/>
<path d="M58.4451 20.6277H56.7261V22.3467H58.4451V20.6277Z" fill="#4F4F4F"/>
<path d="M63.602 20.6277H61.883V22.3467H63.602V20.6277Z" fill="#4F4F4F"/>
<path d="M5.15692 22.3467H3.43795V24.0657H5.15692V22.3467Z" fill="#4F4F4F"/>
<path d="M6.87589 22.3467L5.15692 22.3467V24.0657H6.87589V22.3467Z" fill="#4F4F4F"/>
<path d="M10.3138 22.3467L8.59487 22.3467V24.0657H10.3138V22.3467Z" fill="#4F4F4F"/>
<path d="M18.9087 22.3467H17.1897V24.0657H18.9087V22.3467Z" fill="#4F4F4F"/>
<path d="M20.6277 22.3467H18.9087V24.0657H20.6277V22.3467Z" fill="#4F4F4F"/>
<path d="M22.3467 22.3467H20.6277V24.0657H22.3467V22.3467Z" fill="#4F4F4F"/>
<path d="M30.9415 22.3467L29.2225 22.3467L29.2226 24.0657H30.9415V22.3467Z" fill="#4F4F4F"/>
<path d="M32.6605 22.3467H30.9415V24.0657H32.6605V22.3467Z" fill="#4F4F4F"/>
<path d="M37.8174 22.3467H36.0984V24.0657H37.8174V22.3467Z" fill="#4F4F4F"/>
<path d="M41.2554 22.3467H39.5364V24.0657H41.2554V22.3467Z" fill="#4F4F4F"/>
<path d="M42.9743 22.3467L41.2554 22.3467V24.0657H42.9743V22.3467Z" fill="#4F4F4F"/>
<path d="M46.4123 22.3467H44.6933V24.0657H46.4123V22.3467Z" fill="#4F4F4F"/>
<path d="M48.1313 22.3467H46.4123V24.0657H48.1313V22.3467Z" fill="#4F4F4F"/>
<path d="M51.5692 22.3467H49.8502V24.0657H51.5692V22.3467Z" fill="#4F4F4F"/>
<path d="M53.2882 22.3467H51.5692V24.0657H53.2882V22.3467Z" fill="#4F4F4F"/>
<path d="M58.4451 22.3467H56.7261V24.0657H58.4451V22.3467Z" fill="#4F4F4F"/>
<path d="M60.1641 22.3467L58.4451 22.3467V24.0657H60.1641V22.3467Z" fill="#4F4F4F"/>
<path d="M61.883 22.3467L60.1641 22.3467V24.0657H61.883V22.3467Z" fill="#4F4F4F"/>
<path d="M63.602 22.3467H61.883V24.0657H63.602V22.3467Z" fill="#4F4F4F"/>
<path d="M3.43795 24.0657H1.71897V25.7847H3.43795V24.0657Z" fill="#4F4F4F"/>
<path d="M5.15692 24.0657H3.43795V25.7847H5.15692V24.0657Z" fill="#4F4F4F"/>
<path d="M12.0328 24.0657H10.3138V25.7847H12.0328V24.0657Z" fill="#4F4F4F"/>
<path d="M13.7518 24.0657H12.0328V25.7847H13.7518V24.0657Z" fill="#4F4F4F"/>
<path d="M17.1897 24.0657H15.4708V25.7847H17.1897V24.0657Z" fill="#4F4F4F"/>
<path d="M20.6277 24.0657H18.9087V25.7847H20.6277V24.0657Z" fill="#4F4F4F"/>
<path d="M25.7846 24.0657H24.0656V25.7847H25.7846V24.0657Z" fill="#4F4F4F"/>
<path d="M30.9415 24.0657H29.2226V25.7847H30.9415V24.0657Z" fill="#4F4F4F"/>
<path d="M37.8174 24.0657H36.0984V25.7847H37.8174V24.0657Z" fill="#4F4F4F"/>
<path d="M39.5364 24.0657H37.8174V25.7847H39.5364V24.0657Z" fill="#4F4F4F"/>
<path d="M42.9743 24.0657H41.2554V25.7847H42.9743V24.0657Z" fill="#4F4F4F"/>
<path d="M44.6933 24.0657H42.9743V25.7847H44.6933V24.0657Z" fill="#4F4F4F"/>
<path d="M46.4123 24.0657H44.6933V25.7847H46.4123V24.0657Z" fill="#4F4F4F"/>
<path d="M56.7261 24.0657H55.0071V25.7847H56.7261V24.0657Z" fill="#4F4F4F"/>
<path d="M60.1641 24.0657H58.4451V25.7847H60.1641V24.0657Z" fill="#4F4F4F"/>
<path d="M63.602 24.0657H61.883V25.7847H63.602V24.0657Z" fill="#4F4F4F"/>
<path d="M1.71897 25.7847L0 25.7847V27.5037H1.71897V25.7847Z" fill="#4F4F4F"/>
<path d="M3.43795 25.7847H1.71897V27.5037H3.43795V25.7847Z" fill="#4F4F4F"/>
<path d="M6.87589 25.7847L5.15692 25.7847V27.5037H6.87589V25.7847Z" fill="#4F4F4F"/>
<path d="M10.3138 25.7847L8.59487 25.7847V27.5037H10.3138V25.7847Z" fill="#4F4F4F"/>
<path d="M13.7518 25.7847H12.0328V27.5037H13.7518V25.7847Z" fill="#4F4F4F"/>
<path d="M15.4708 25.7847H13.7518V27.5037H15.4708V25.7847Z" fill="#4F4F4F"/>
<path d="M18.9087 25.7847H17.1897V27.5037H18.9087V25.7847Z" fill="#4F4F4F"/>
<path d="M22.3467 25.7847L20.6277 25.7847L20.6277 27.5037H22.3467V25.7847Z" fill="#4F4F4F"/>
<path d="M25.7846 25.7847H24.0656V27.5037H25.7846V25.7847Z" fill="#4F4F4F"/>
<path d="M29.2226 25.7847L27.5036 25.7847V27.5037H29.2225L29.2226 25.7847Z" fill="#4F4F4F"/>
<path d="M34.3795 25.7847H32.6605V27.5037H34.3795V25.7847Z" fill="#4F4F4F"/>
<path d="M37.8174 25.7847H36.0984V27.5037H37.8174V25.7847Z" fill="#4F4F4F"/>
<path d="M39.5364 25.7847H37.8174V27.5037H39.5364V25.7847Z" fill="#4F4F4F"/>
<path d="M46.4123 25.7847H44.6933V27.5037H46.4123V25.7847Z" fill="#4F4F4F"/>
<path d="M49.8502 25.7847H48.1313V27.5037H49.8502V25.7847Z" fill="#4F4F4F"/>
<path d="M51.5692 25.7847H49.8502V27.5037H51.5692V25.7847Z" fill="#4F4F4F"/>
<path d="M53.2882 25.7847H51.5692V27.5037H53.2882V25.7847Z" fill="#4F4F4F"/>
<path d="M56.7261 25.7847H55.0071V27.5037H56.7261V25.7847Z" fill="#4F4F4F"/>
<path d="M61.883 25.7847H60.1641V27.5037H61.883V25.7847Z" fill="#4F4F4F"/>
<path d="M1.71897 27.5037H0V29.2226H1.71897V27.5037Z" fill="#4F4F4F"/>
<path d="M6.87589 27.5037H5.15692V29.2226H6.87589V27.5037Z" fill="#4F4F4F"/>
<path d="M8.59487 27.5037H6.87589V29.2226H8.59487V27.5037Z" fill="#4F4F4F"/>
<path d="M10.3138 27.5037H8.59487V29.2226H10.3138V27.5037Z" fill="#4F4F4F"/>
<path d="M12.0328 27.5037H10.3138V29.2226H12.0328V27.5037Z" fill="#4F4F4F"/>
<path d="M13.7518 27.5037H12.0328V29.2226H13.7518V27.5037Z" fill="#4F4F4F"/>
<path d="M15.4708 27.5037H13.7518V29.2226H15.4708V27.5037Z" fill="#4F4F4F"/>
<path d="M17.1897 27.5037H15.4708V29.2226H17.1897V27.5037Z" fill="#4F4F4F"/>
<path d="M18.9087 27.5037H17.1897V29.2226H18.9087V27.5037Z" fill="#4F4F4F"/>
<path d="M22.3467 27.5037H20.6277V29.2226H22.3467V27.5037Z" fill="#4F4F4F"/>
<path d="M24.0656 27.5037H22.3467V29.2226H24.0656V27.5037Z" fill="#4F4F4F"/>
<path d="M25.7846 27.5037H24.0656V29.2226H25.7846V27.5037Z" fill="#4F4F4F"/>
<path d="M30.9415 27.5037L29.2225 27.5037L29.2226 29.2226H30.9415V27.5037Z" fill="#4F4F4F"/>
<path d="M32.6605 27.5037L30.9415 27.5037V29.2226H32.6605V27.5037Z" fill="#4F4F4F"/>
<path d="M34.3795 27.5037H32.6605V29.2226H34.3795V27.5037Z" fill="#4F4F4F"/>
<path d="M37.8174 27.5037H36.0984V29.2226H37.8174V27.5037Z" fill="#4F4F4F"/>
<path d="M46.4123 27.5037H44.6933V29.2226H46.4123V27.5037Z" fill="#4F4F4F"/>
<path d="M48.1313 27.5037H46.4123V29.2226H48.1313V27.5037Z" fill="#4F4F4F"/>
<path d="M51.5692 27.5037H49.8502V29.2226H51.5692V27.5037Z" fill="#4F4F4F"/>
<path d="M53.2882 27.5037H51.5692V29.2226H53.2882V27.5037Z" fill="#4F4F4F"/>
<path d="M55.0071 27.5037H53.2882V29.2226H55.0071V27.5037Z" fill="#4F4F4F"/>
<path d="M61.883 27.5037H60.1641V29.2226H61.883V27.5037Z" fill="#4F4F4F"/>
<path d="M6.87589 29.2226H5.15692V30.9416H6.87589V29.2226Z" fill="#4F4F4F"/>
<path d="M8.59487 29.2226H6.87589V30.9416H8.59487V29.2226Z" fill="#4F4F4F"/>
<path d="M10.3138 29.2226H8.59487V30.9416H10.3138V29.2226Z" fill="#4F4F4F"/>
<path d="M13.7518 29.2226H12.0328V30.9416H13.7518V29.2226Z" fill="#4F4F4F"/>
<path d="M36.0984 29.2226H34.3795V30.9416H36.0984V29.2226Z" fill="#4F4F4F"/>
<path d="M37.8174 29.2226H36.0984V30.9416H37.8174V29.2226Z" fill="#4F4F4F"/>
<path d="M39.5364 29.2226L37.8174 29.2226V30.9416H39.5364V29.2226Z" fill="#4F4F4F"/>
<path d="M41.2554 29.2226H39.5364V30.9416H41.2554V29.2226Z" fill="#4F4F4F"/>
<path d="M42.9743 29.2226H41.2554V30.9416H42.9743V29.2226Z" fill="#4F4F4F"/>
<path d="M44.6933 29.2226L42.9743 29.2226V30.9416H44.6933V29.2226Z" fill="#4F4F4F"/>
<path d="M49.8502 29.2226H48.1313V30.9416H49.8502V29.2226Z" fill="#4F4F4F"/>
<path d="M53.2882 29.2226H51.5692V30.9416H53.2882V29.2226Z" fill="#4F4F4F"/>
<path d="M58.4451 29.2226H56.7261V30.9416H58.4451V29.2226Z" fill="#4F4F4F"/>
<path d="M12.0328 30.9416H10.3138V32.6606H12.0328V30.9416Z" fill="#4F4F4F"/>
<path d="M13.7518 30.9416H12.0328V32.6606H13.7518V30.9416Z" fill="#4F4F4F"/>
<path d="M17.1897 30.9416H15.4708V32.6606H17.1897V30.9416Z" fill="#4F4F4F"/>
<path d="M20.6277 30.9416H18.9087V32.6606H20.6277V30.9416Z" fill="#4F4F4F"/>
<path d="M25.7846 30.9416H24.0656V32.6606H25.7846V30.9416Z" fill="#4F4F4F"/>
<path d="M29.2225 30.9416H27.5036V32.6606H29.2225V30.9416Z" fill="#4F4F4F"/>
<path d="M32.6605 30.9416H30.9415V32.6606H32.6605V30.9416Z" fill="#4F4F4F"/>
<path d="M34.3795 30.9416L32.6605 30.9416V32.6606H34.3795V30.9416Z" fill="#4F4F4F"/>
<path d="M37.8174 30.9416H36.0984V32.6606H37.8174V30.9416Z" fill="#4F4F4F"/>
<path d="M41.2554 30.9416H39.5364V32.6606H41.2554V30.9416Z" fill="#4F4F4F"/>
<path d="M44.6933 30.9416H42.9743V32.6606H44.6933V30.9416Z" fill="#4F4F4F"/>
<path d="M46.4123 30.9416L44.6933 30.9416V32.6606H46.4123V30.9416Z" fill="#4F4F4F"/>
<path d="M49.8502 30.9416H48.1313V32.6606H49.8502V30.9416Z" fill="#4F4F4F"/>
<path d="M51.5692 30.9416H49.8502V32.6606H51.5692V30.9416Z" fill="#4F4F4F"/>
<path d="M53.2882 30.9416H51.5692V32.6606H53.2882V30.9416Z" fill="#4F4F4F"/>
<path d="M56.7261 30.9416L55.0071 30.9416V32.6606H56.7261V30.9416Z" fill="#4F4F4F"/>
<path d="M1.71897 32.6606H0V34.3796H1.71897V32.6606Z" fill="#4F4F4F"/>
<path d="M8.59487 32.6606H6.87589V34.3796H8.59487V32.6606Z" fill="#4F4F4F"/>
<path d="M13.7518 32.6606H12.0328V34.3796H13.7518V32.6606Z" fill="#4F4F4F"/>
<path d="M18.9087 32.6606H17.1897V34.3796H18.9087V32.6606Z" fill="#4F4F4F"/>
<path d="M20.6277 32.6606H18.9087V34.3796H20.6277V32.6606Z" fill="#4F4F4F"/>
<path d="M24.0656 32.6606H22.3467V34.3796H24.0656V32.6606Z" fill="#4F4F4F"/>
<path d="M29.2225 32.6606H27.5036V34.3796H29.2225V32.6606Z" fill="#4F4F4F"/>
<path d="M32.6605 32.6606H30.9415V34.3796H32.6605V32.6606Z" fill="#4F4F4F"/>
<path d="M37.8174 32.6606H36.0984V34.3796H37.8174V32.6606Z" fill="#4F4F4F"/>
<path d="M41.2554 32.6606H39.5364V34.3796H41.2554V32.6606Z" fill="#4F4F4F"/>
<path d="M46.4123 32.6606H44.6933V34.3796H46.4123V32.6606Z" fill="#4F4F4F"/>
<path d="M48.1313 32.6606H46.4123V34.3796H48.1313V32.6606Z" fill="#4F4F4F"/>
<path d="M49.8502 32.6606H48.1313V34.3796H49.8502V32.6606Z" fill="#4F4F4F"/>
<path d="M51.5692 32.6606H49.8502V34.3796H51.5692V32.6606Z" fill="#4F4F4F"/>
<path d="M53.2882 32.6606H51.5692V34.3796H53.2882V32.6606Z" fill="#4F4F4F"/>
<path d="M55.0071 32.6606H53.2882V34.3796H55.0071V32.6606Z" fill="#4F4F4F"/>
<path d="M56.7261 32.6606H55.0071V34.3796H56.7261V32.6606Z" fill="#4F4F4F"/>
<path d="M63.602 32.6606H61.883V34.3796H63.602V32.6606Z" fill="#4F4F4F"/>
<path d="M1.71897 34.3796H0V36.0986H1.71897V34.3796Z" fill="#4F4F4F"/>
<path d="M3.43795 34.3796H1.71897V36.0986H3.43795V34.3796Z" fill="#4F4F4F"/>
<path d="M6.87589 34.3796H5.15692V36.0986H6.87589V34.3796Z" fill="#4F4F4F"/>
<path d="M12.0328 34.3796H10.3138V36.0986H12.0328V34.3796Z" fill="#4F4F4F"/>
<path d="M20.6277 34.3796H18.9087V36.0986H20.6277V34.3796Z" fill="#4F4F4F"/>
<path d="M22.3467 34.3796H20.6277V36.0986H22.3467L22.3467 34.3796Z" fill="#4F4F4F"/>
<path d="M24.0656 34.3796H22.3467L22.3467 36.0986H24.0656V34.3796Z" fill="#4F4F4F"/>
<path d="M27.5036 34.3796H25.7846V36.0986H27.5036L27.5036 34.3796Z" fill="#4F4F4F"/>
<path d="M29.2225 34.3796H27.5036L27.5036 36.0986H29.2225V34.3796Z" fill="#4F4F4F"/>
<path d="M36.0984 34.3796H34.3795V36.0986H36.0984V34.3796Z" fill="#4F4F4F"/>
<path d="M41.2554 34.3796H39.5364V36.0986H41.2554V34.3796Z" fill="#4F4F4F"/>
<path d="M42.9743 34.3796H41.2554V36.0986H42.9743V34.3796Z" fill="#4F4F4F"/>
<path d="M44.6933 34.3796H42.9743V36.0986H44.6933V34.3796Z" fill="#4F4F4F"/>
<path d="M51.5692 34.3796H49.8502V36.0986H51.5692V34.3796Z" fill="#4F4F4F"/>
<path d="M55.0071 34.3796H53.2882V36.0986H55.0071V34.3796Z" fill="#4F4F4F"/>
<path d="M56.7261 34.3796H55.0071V36.0986H56.7261V34.3796Z" fill="#4F4F4F"/>
<path d="M58.4451 34.3796H56.7261V36.0986H58.4451V34.3796Z" fill="#4F4F4F"/>
<path d="M60.1641 34.3796H58.4451V36.0986H60.1641V34.3796Z" fill="#4F4F4F"/>
<path d="M63.602 34.3796H61.883V36.0986H63.602V34.3796Z" fill="#4F4F4F"/>
<path d="M3.43795 36.0986H1.71897V37.8175H3.43795V36.0986Z" fill="#4F4F4F"/>
<path d="M5.15692 36.0986H3.43795V37.8175H5.15692V36.0986Z" fill="#4F4F4F"/>
<path d="M6.87589 36.0986H5.15692V37.8175H6.87589V36.0986Z" fill="#4F4F4F"/>
<path d="M15.4708 36.0986H13.7518V37.8175H15.4708V36.0986Z" fill="#4F4F4F"/>
<path d="M17.1897 36.0986H15.4708V37.8175H17.1897V36.0986Z" fill="#4F4F4F"/>
<path d="M24.0656 36.0986H22.3467L22.3467 37.8175H24.0656V36.0986Z" fill="#4F4F4F"/>
<path d="M27.5036 36.0986H25.7846V37.8175H27.5036V36.0986Z" fill="#4F4F4F"/>
<path d="M29.2225 36.0986H27.5036V37.8175H29.2225V36.0986Z" fill="#4F4F4F"/>
<path d="M32.6605 36.0986H30.9415V37.8175H32.6605V36.0986Z" fill="#4F4F4F"/>
<path d="M39.5364 36.0986H37.8174V37.8175H39.5364V36.0986Z" fill="#4F4F4F"/>
<path d="M42.9743 36.0986H41.2554V37.8175H42.9743V36.0986Z" fill="#4F4F4F"/>
<path d="M46.4123 36.0986H44.6933V37.8175H46.4123V36.0986Z" fill="#4F4F4F"/>
<path d="M51.5692 36.0986H49.8502V37.8175H51.5692V36.0986Z" fill="#4F4F4F"/>
<path d="M55.0071 36.0986H53.2882V37.8175H55.0071V36.0986Z" fill="#4F4F4F"/>
<path d="M56.7261 36.0986H55.0071V37.8175H56.7261V36.0986Z" fill="#4F4F4F"/>
<path d="M60.1641 36.0986H58.4451V37.8175H60.1641V36.0986Z" fill="#4F4F4F"/>
<path d="M1.71897 37.8175H0V39.5365H1.71897V37.8175Z" fill="#4F4F4F"/>
<path d="M3.43795 37.8175H1.71897V39.5365H3.43795V37.8175Z" fill="#4F4F4F"/>
<path d="M6.87589 37.8175H5.15692V39.5365H6.87589V37.8175Z" fill="#4F4F4F"/>
<path d="M12.0328 37.8175H10.3138V39.5365H12.0328V37.8175Z" fill="#4F4F4F"/>
<path d="M13.7518 37.8175H12.0328V39.5365H13.7518V37.8175Z" fill="#4F4F4F"/>
<path d="M17.1897 37.8175H15.4708V39.5365H17.1897V37.8175Z" fill="#4F4F4F"/>
<path d="M18.9087 37.8175H17.1897V39.5365H18.9087V37.8175Z" fill="#4F4F4F"/>
<path d="M20.6277 37.8175H18.9087V39.5365H20.6277V37.8175Z" fill="#4F4F4F"/>
<path d="M25.7846 37.8175H24.0656V39.5365H25.7846L25.7846 37.8175Z" fill="#4F4F4F"/>
<path d="M27.5036 37.8175H25.7846L25.7846 39.5365H27.5036V37.8175Z" fill="#4F4F4F"/>
<path d="M29.2225 37.8175H27.5036V39.5365H29.2225V37.8175Z" fill="#4F4F4F"/>
<path d="M32.6605 37.8175H30.9415V39.5365H32.6605V37.8175Z" fill="#4F4F4F"/>
<path d="M34.3795 37.8175H32.6605V39.5365H34.3795V37.8175Z" fill="#4F4F4F"/>
<path d="M36.0984 37.8175H34.3795V39.5365H36.0984V37.8175Z" fill="#4F4F4F"/>
<path d="M41.2554 37.8175H39.5364V39.5365H41.2554V37.8175Z" fill="#4F4F4F"/>
<path d="M42.9743 37.8175H41.2554V39.5365H42.9743V37.8175Z" fill="#4F4F4F"/>
<path d="M44.6933 37.8175H42.9743V39.5365H44.6933V37.8175Z" fill="#4F4F4F"/>
<path d="M48.1313 37.8175H46.4123V39.5365H48.1313V37.8175Z" fill="#4F4F4F"/>
<path d="M49.8502 37.8175H48.1313V39.5365H49.8502V37.8175Z" fill="#4F4F4F"/>
<path d="M51.5692 37.8175H49.8502V39.5365H51.5692V37.8175Z" fill="#4F4F4F"/>
<path d="M56.7261 37.8175H55.0071V39.5365H56.7261V37.8175Z" fill="#4F4F4F"/>
<path d="M58.4451 37.8175H56.7261V39.5365H58.4451V37.8175Z" fill="#4F4F4F"/>
<path d="M63.602 37.8175H61.883V39.5365H63.602V37.8175Z" fill="#4F4F4F"/>
<path d="M5.15692 39.5365H3.43795V41.2555H5.15692V39.5365Z" fill="#4F4F4F"/>
<path d="M8.59487 39.5365H6.87589V41.2555H8.59487V39.5365Z" fill="#4F4F4F"/>
<path d="M13.7518 39.5365H12.0328V41.2555H13.7518V39.5365Z" fill="#4F4F4F"/>
<path d="M17.1897 39.5365H15.4708V41.2555H17.1897V39.5365Z" fill="#4F4F4F"/>
<path d="M24.0656 39.5365H22.3467V41.2555H24.0656V39.5365Z" fill="#4F4F4F"/>
<path d="M27.5036 39.5365H25.7846L25.7846 41.2555H27.5036V39.5365Z" fill="#4F4F4F"/>
<path d="M29.2225 39.5365H27.5036V41.2555H29.2225V39.5365Z" fill="#4F4F4F"/>
<path d="M30.9415 39.5365H29.2225V41.2555H30.9415L30.9415 39.5365Z" fill="#4F4F4F"/>
<path d="M32.6605 39.5365H30.9415L30.9415 41.2555H32.6605V39.5365Z" fill="#4F4F4F"/>
<path d="M36.0984 39.5365H34.3795V41.2555H36.0984V39.5365Z" fill="#4F4F4F"/>
<path d="M37.8174 39.5365H36.0984V41.2555H37.8174V39.5365Z" fill="#4F4F4F"/>
<path d="M44.6933 39.5365H42.9743V41.2555H44.6933V39.5365Z" fill="#4F4F4F"/>
<path d="M48.1313 39.5365H46.4123V41.2555H48.1313V39.5365Z" fill="#4F4F4F"/>
<path d="M49.8502 39.5365H48.1313V41.2555H49.8502V39.5365Z" fill="#4F4F4F"/>
<path d="M51.5692 39.5365H49.8502V41.2555H51.5692V39.5365Z" fill="#4F4F4F"/>
<path d="M53.2882 39.5365H51.5692V41.2555H53.2882V39.5365Z" fill="#4F4F4F"/>
<path d="M55.0071 39.5365H53.2882V41.2555H55.0071V39.5365Z" fill="#4F4F4F"/>
<path d="M56.7261 39.5365H55.0071V41.2555H56.7261V39.5365Z" fill="#4F4F4F"/>
<path d="M58.4451 39.5365H56.7261V41.2555H58.4451V39.5365Z" fill="#4F4F4F"/>
<path d="M63.602 39.5365H61.883V41.2555H63.602V39.5365Z" fill="#4F4F4F"/>
<path d="M3.43795 41.2555H1.71897V42.9745H3.43795V41.2555Z" fill="#4F4F4F"/>
<path d="M6.87589 41.2555H5.15692V42.9745H6.87589V41.2555Z" fill="#4F4F4F"/>
<path d="M10.3138 41.2555H8.59487V42.9745H10.3138V41.2555Z" fill="#4F4F4F"/>
<path d="M12.0328 41.2555H10.3138V42.9745H12.0328V41.2555Z" fill="#4F4F4F"/>
<path d="M30.9415 41.2555H29.2225L29.2226 42.9745H30.9415V41.2555Z" fill="#4F4F4F"/>
<path d="M32.6605 41.2555H30.9415V42.9745H32.6605V41.2555Z" fill="#4F4F4F"/>
<path d="M36.0984 41.2555H34.3795V42.9745H36.0984V41.2555Z" fill="#4F4F4F"/>
<path d="M37.8174 41.2555H36.0984V42.9745H37.8174V41.2555Z" fill="#4F4F4F"/>
<path d="M42.9743 41.2555H41.2554V42.9745H42.9743V41.2555Z" fill="#4F4F4F"/>
<path d="M49.8502 41.2555H48.1313V42.9745H49.8502V41.2555Z" fill="#4F4F4F"/>
<path d="M58.4451 41.2555H56.7261V42.9745H58.4451V41.2555Z" fill="#4F4F4F"/>
<path d="M60.1641 41.2555H58.4451V42.9745H60.1641V41.2555Z" fill="#4F4F4F"/>
<path d="M63.602 41.2555H61.883V42.9745H63.602V41.2555Z" fill="#4F4F4F"/>
<path d="M1.71897 42.9745H0V44.6935H1.71897V42.9745Z" fill="#4F4F4F"/>
<path d="M6.87589 42.9745H5.15692V44.6935H6.87589V42.9745Z" fill="#4F4F4F"/>
<path d="M10.3138 42.9745H8.59487V44.6935H10.3138V42.9745Z" fill="#4F4F4F"/>
<path d="M15.4708 42.9745H13.7518V44.6935H15.4708V42.9745Z" fill="#4F4F4F"/>
<path d="M17.1897 42.9745H15.4708V44.6935H17.1897V42.9745Z" fill="#4F4F4F"/>
<path d="M25.7846 42.9745H24.0656V44.6935H25.7846V42.9745Z" fill="#4F4F4F"/>
<path d="M29.2226 42.9745H27.5036V44.6935H29.2225L29.2226 42.9745Z" fill="#4F4F4F"/>
<path d="M32.6605 42.9745H30.9415L30.9415 44.6935H32.6605V42.9745Z" fill="#4F4F4F"/>
<path d="M36.0984 42.9745H34.3795V44.6935H36.0984V42.9745Z" fill="#4F4F4F"/>
<path d="M39.5364 42.9745H37.8174V44.6935H39.5364V42.9745Z" fill="#4F4F4F"/>
<path d="M44.6933 42.9745H42.9743V44.6935H44.6933V42.9745Z" fill="#4F4F4F"/>
<path d="M46.4123 42.9745H44.6933V44.6935H46.4123V42.9745Z" fill="#4F4F4F"/>
<path d="M49.8502 42.9745H48.1313V44.6935H49.8502V42.9745Z" fill="#4F4F4F"/>
<path d="M51.5692 42.9745H49.8502V44.6935H51.5692V42.9745Z" fill="#4F4F4F"/>
<path d="M53.2882 42.9745H51.5692V44.6935H53.2882V42.9745Z" fill="#4F4F4F"/>
<path d="M56.7261 42.9745H55.0071V44.6935H56.7261V42.9745Z" fill="#4F4F4F"/>
<path d="M60.1641 42.9745H58.4451V44.6935H60.1641V42.9745Z" fill="#4F4F4F"/>
<path d="M10.3138 44.6935H8.59487V46.4124H10.3138V44.6935Z" fill="#4F4F4F"/>
<path d="M12.0328 44.6935H10.3138V46.4124H12.0328V44.6935Z" fill="#4F4F4F"/>
<path d="M18.9087 44.6935H17.1897V46.4124H18.9087V44.6935Z" fill="#4F4F4F"/>
<path d="M27.5036 44.6935H25.7846L25.7846 46.4124H27.5036L27.5036 44.6935Z" fill="#4F4F4F"/>
<path d="M30.9415 44.6935H29.2225L29.2226 46.4124H30.9415L30.9415 44.6935Z" fill="#4F4F4F"/>
<path d="M34.3795 44.6935H32.6605V46.4124H34.3795V44.6935Z" fill="#4F4F4F"/>
<path d="M37.8174 44.6935H36.0984V46.4124H37.8174V44.6935Z" fill="#4F4F4F"/>
<path d="M39.5364 44.6935H37.8174V46.4124H39.5364V44.6935Z" fill="#4F4F4F"/>
<path d="M41.2554 44.6935H39.5364V46.4124H41.2554V44.6935Z" fill="#4F4F4F"/>
<path d="M42.9743 44.6935H41.2554V46.4124H42.9743V44.6935Z" fill="#4F4F4F"/>
<path d="M44.6933 44.6935H42.9743V46.4124H44.6933V44.6935Z" fill="#4F4F4F"/>
<path d="M46.4123 44.6935H44.6933V46.4124H46.4123V44.6935Z" fill="#4F4F4F"/>
<path d="M48.1313 44.6935H46.4123V46.4124H48.1313V44.6935Z" fill="#4F4F4F"/>
<path d="M49.8502 44.6935H48.1313V46.4124H49.8502V44.6935Z" fill="#4F4F4F"/>
<path d="M53.2882 44.6935H51.5692V46.4124H53.2882V44.6935Z" fill="#4F4F4F"/>
<path d="M55.0071 44.6935H53.2882V46.4124H55.0071V44.6935Z" fill="#4F4F4F"/>
<path d="M61.883 44.6935H60.1641V46.4124H61.883V44.6935Z" fill="#4F4F4F"/>
<path d="M5.15692 46.4124H3.43795V48.1314H5.15692V46.4124Z" fill="#4F4F4F"/>
<path d="M15.4708 46.4124H13.7518V48.1314H15.4708V46.4124Z" fill="#4F4F4F"/>
<path d="M17.1897 46.4124H15.4708V48.1314H17.1897V46.4124Z" fill="#4F4F4F"/>
<path d="M18.9087 46.4124H17.1897V48.1314H18.9087V46.4124Z" fill="#4F4F4F"/>
<path d="M22.3467 46.4124H20.6277V48.1314H22.3467V46.4124Z" fill="#4F4F4F"/>
<path d="M24.0656 46.4124H22.3467V48.1314H24.0656V46.4124Z" fill="#4F4F4F"/>
<path d="M25.7846 46.4124H24.0656V48.1314H25.7846L25.7846 46.4124Z" fill="#4F4F4F"/>
<path d="M29.2226 46.4124H27.5036L27.5036 48.1314H29.2225L29.2226 46.4124Z" fill="#4F4F4F"/>
<path d="M30.9415 46.4124H29.2226L29.2225 48.1314H30.9415V46.4124Z" fill="#4F4F4F"/>
<path d="M32.6605 46.4124H30.9415V48.1314H32.6605V46.4124Z" fill="#4F4F4F"/>
<path d="M37.8174 46.4124H36.0984V48.1314H37.8174V46.4124Z" fill="#4F4F4F"/>
<path d="M39.5364 46.4124H37.8174V48.1314H39.5364V46.4124Z" fill="#4F4F4F"/>
<path d="M41.2554 46.4124H39.5364V48.1314H41.2554V46.4124Z" fill="#4F4F4F"/>
<path d="M44.6933 46.4124H42.9743V48.1314H44.6933V46.4124Z" fill="#4F4F4F"/>
<path d="M46.4123 46.4124H44.6933V48.1314H46.4123V46.4124Z" fill="#4F4F4F"/>
<path d="M49.8502 46.4124H48.1313V48.1314H49.8502V46.4124Z" fill="#4F4F4F"/>
<path d="M56.7261 46.4124H55.0071V48.1314H56.7261V46.4124Z" fill="#4F4F4F"/>
<path d="M58.4451 46.4124H56.7261V48.1314H58.4451V46.4124Z" fill="#4F4F4F"/>
<path d="M60.1641 46.4124H58.4451V48.1314H60.1641V46.4124Z" fill="#4F4F4F"/>
<path d="M61.883 46.4124H60.1641V48.1314H61.883V46.4124Z" fill="#4F4F4F"/>
<path d="M63.602 46.4124H61.883V48.1314H63.602V46.4124Z" fill="#4F4F4F"/>
<path d="M1.71897 48.1314H0V49.8504H1.71897V48.1314Z" fill="#4F4F4F"/>
<path d="M3.43795 48.1314H1.71897V49.8504H3.43795V48.1314Z" fill="#4F4F4F"/>
<path d="M8.59487 48.1314H6.87589V49.8504H8.59487V48.1314Z" fill="#4F4F4F"/>
<path d="M12.0328 48.1314H10.3138V49.8504H12.0328V48.1314Z" fill="#4F4F4F"/>
<path d="M15.4708 48.1314H13.7518V49.8504H15.4708V48.1314Z" fill="#4F4F4F"/>
<path d="M17.1897 48.1314H15.4708V49.8504H17.1897V48.1314Z" fill="#4F4F4F"/>
<path d="M20.6277 48.1314H18.9087V49.8504H20.6277L20.6277 48.1314Z" fill="#4F4F4F"/>
<path d="M24.0656 48.1314H22.3467L22.3467 49.8504H24.0656V48.1314Z" fill="#4F4F4F"/>
<path d="M25.7846 48.1314H24.0656V49.8504H25.7846V48.1314Z" fill="#4F4F4F"/>
<path d="M27.5036 48.1314H25.7846V49.8504H27.5036L27.5036 48.1314Z" fill="#4F4F4F"/>
<path d="M29.2225 48.1314H27.5036L27.5036 49.8504H29.2225V48.1314Z" fill="#4F4F4F"/>
<path d="M41.2554 48.1314H39.5364V49.8504H41.2554V48.1314Z" fill="#4F4F4F"/>
<path d="M46.4123 48.1314H44.6933V49.8504H46.4123V48.1314Z" fill="#4F4F4F"/>
<path d="M49.8502 48.1314H48.1313V49.8504H49.8502V48.1314Z" fill="#4F4F4F"/>
<path d="M51.5692 48.1314H49.8502V49.8504H51.5692V48.1314Z" fill="#4F4F4F"/>
<path d="M53.2882 48.1314H51.5692V49.8504H53.2882V48.1314Z" fill="#4F4F4F"/>
<path d="M55.0071 48.1314H53.2882V49.8504H55.0071V48.1314Z" fill="#4F4F4F"/>
<path d="M56.7261 48.1314H55.0071V49.8504H56.7261V48.1314Z" fill="#4F4F4F"/>
<path d="M61.883 48.1314H60.1641V49.8504H61.883V48.1314Z" fill="#4F4F4F"/>
<path d="M63.602 48.1314H61.883V49.8504H63.602V48.1314Z" fill="#4F4F4F"/>
<path d="M15.4708 49.8504H13.7518V51.5694H15.4708V49.8504Z" fill="#4F4F4F"/>
<path d="M20.6277 49.8504H18.9087V51.5694H20.6277V49.8504Z" fill="#4F4F4F"/>
<path d="M24.0656 49.8504H22.3467V51.5694H24.0656V49.8504Z" fill="#4F4F4F"/>
<path d="M27.5036 49.8504H25.7846L25.7846 51.5694H27.5036V49.8504Z" fill="#4F4F4F"/>
<path d="M29.2225 49.8504H27.5036V51.5694H29.2225V49.8504Z" fill="#4F4F4F"/>
<path d="M32.6605 49.8504H30.9415V51.5694H32.6605V49.8504Z" fill="#4F4F4F"/>
<path d="M36.0984 49.8504H34.3795V51.5694H36.0984V49.8504Z" fill="#4F4F4F"/>
<path d="M37.8174 49.8504H36.0984V51.5694H37.8174V49.8504Z" fill="#4F4F4F"/>
<path d="M39.5364 49.8504H37.8174V51.5694H39.5364V49.8504Z" fill="#4F4F4F"/>
<path d="M42.9743 49.8504H41.2554V51.5694H42.9743V49.8504Z" fill="#4F4F4F"/>
<path d="M44.6933 49.8504H42.9743V51.5694H44.6933V49.8504Z" fill="#4F4F4F"/>
<path d="M49.8502 49.8504H48.1313V51.5694H49.8502V49.8504Z" fill="#4F4F4F"/>
<path d="M56.7261 49.8504H55.0071V51.5694H56.7261V49.8504Z" fill="#4F4F4F"/>
<path d="M58.4451 49.8504H56.7261V51.5694H58.4451V49.8504Z" fill="#4F4F4F"/>
<path d="M60.1641 49.8504H58.4451V51.5694H60.1641V49.8504Z" fill="#4F4F4F"/>
<path d="M1.71897 51.5694H0V53.2883H1.71897V51.5694Z" fill="#4F4F4F"/>
<path d="M3.43795 51.5694H1.71897V53.2883H3.43795V51.5694Z" fill="#4F4F4F"/>
<path d="M5.15692 51.5694H3.43795V53.2883H5.15692V51.5694Z" fill="#4F4F4F"/>
<path d="M6.87589 51.5694H5.15692V53.2883H6.87589V51.5694Z" fill="#4F4F4F"/>
<path d="M8.59487 51.5694H6.87589V53.2883H8.59487V51.5694Z" fill="#4F4F4F"/>
<path d="M10.3138 51.5694H8.59487V53.2883H10.3138V51.5694Z" fill="#4F4F4F"/>
<path d="M12.0328 51.5694H10.3138V53.2883H12.0328V51.5694Z" fill="#4F4F4F"/>
<path d="M15.4708 51.5694H13.7518V53.2883H15.4708V51.5694Z" fill="#4F4F4F"/>
<path d="M18.9087 51.5694H17.1897V53.2883H18.9087V51.5694Z" fill="#4F4F4F"/>
<path d="M20.6277 51.5694H18.9087V53.2883H20.6277V51.5694Z" fill="#4F4F4F"/>
<path d="M22.3467 51.5694H20.6277V53.2883H22.3467L22.3467 51.5694Z" fill="#4F4F4F"/>
<path d="M27.5036 51.5694H25.7846V53.2883H27.5036V51.5694Z" fill="#4F4F4F"/>
<path d="M29.2225 51.5694H27.5036V53.2883H29.2225V51.5694Z" fill="#4F4F4F"/>
<path d="M32.6605 51.5694H30.9415V53.2883H32.6605V51.5694Z" fill="#4F4F4F"/>
<path d="M34.3795 51.5694H32.6605V53.2883H34.3795V51.5694Z" fill="#4F4F4F"/>
<path d="M36.0984 51.5694H34.3795V53.2883H36.0984V51.5694Z" fill="#4F4F4F"/>
<path d="M39.5364 51.5694H37.8174V53.2883H39.5364V51.5694Z" fill="#4F4F4F"/>
<path d="M41.2554 51.5694H39.5364V53.2883H41.2554V51.5694Z" fill="#4F4F4F"/>
<path d="M42.9743 51.5694H41.2554V53.2883H42.9743V51.5694Z" fill="#4F4F4F"/>
<path d="M46.4123 51.5694H44.6933V53.2883H46.4123V51.5694Z" fill="#4F4F4F"/>
<path d="M48.1313 51.5694H46.4123V53.2883H48.1313V51.5694Z" fill="#4F4F4F"/>
<path d="M49.8502 51.5694H48.1313V53.2883H49.8502V51.5694Z" fill="#4F4F4F"/>
<path d="M53.2882 51.5694H51.5692V53.2883H53.2882V51.5694Z" fill="#4F4F4F"/>
<path d="M56.7261 51.5694H55.0071V53.2883H56.7261V51.5694Z" fill="#4F4F4F"/>
<path d="M58.4451 51.5694H56.7261V53.2883H58.4451V51.5694Z" fill="#4F4F4F"/>
<path d="M61.883 51.5694H60.1641V53.2883H61.883V51.5694Z" fill="#4F4F4F"/>
<path d="M63.602 51.5694H61.883V53.2883H63.602V51.5694Z" fill="#4F4F4F"/>
<path d="M1.71897 53.2883H0V55.0073H1.71897V53.2883Z" fill="#4F4F4F"/>
<path d="M12.0328 53.2883H10.3138V55.0073H12.0328V53.2883Z" fill="#4F4F4F"/>
<path d="M17.1897 53.2883H15.4708V55.0073H17.1897V53.2883Z" fill="#4F4F4F"/>
<path d="M18.9087 53.2883H17.1897V55.0073H18.9087V53.2883Z" fill="#4F4F4F"/>
<path d="M20.6277 53.2883H18.9087V55.0073H20.6277V53.2883Z" fill="#4F4F4F"/>
<path d="M22.3467 53.2883H20.6277V55.0073H22.3467V53.2883Z" fill="#4F4F4F"/>
<path d="M24.0656 53.2883H22.3467V55.0073H24.0656V53.2883Z" fill="#4F4F4F"/>
<path d="M25.7846 53.2883H24.0656V55.0073H25.7846L25.7846 53.2883Z" fill="#4F4F4F"/>
<path d="M27.5036 53.2883H25.7846L25.7846 55.0073H27.5036V53.2883Z" fill="#4F4F4F"/>
<path d="M39.5364 53.2883H37.8174V55.0073H39.5364V53.2883Z" fill="#4F4F4F"/>
<path d="M41.2554 53.2883H39.5364V55.0073H41.2554V53.2883Z" fill="#4F4F4F"/>
<path d="M42.9743 53.2883H41.2554V55.0073H42.9743V53.2883Z" fill="#4F4F4F"/>
<path d="M44.6933 53.2883H42.9743V55.0073H44.6933V53.2883Z" fill="#4F4F4F"/>
<path d="M46.4123 53.2883H44.6933V55.0073H46.4123V53.2883Z" fill="#4F4F4F"/>
<path d="M49.8502 53.2883H48.1313V55.0073H49.8502V53.2883Z" fill="#4F4F4F"/>
<path d="M56.7261 53.2883H55.0071V55.0073H56.7261V53.2883Z" fill="#4F4F4F"/>
<path d="M63.602 53.2883H61.883V55.0073H63.602V53.2883Z" fill="#4F4F4F"/>
<path d="M1.71897 55.0073H0V56.7263H1.71897V55.0073Z" fill="#4F4F4F"/>
<path d="M5.15692 55.0073H3.43795V56.7263H5.15692V55.0073Z" fill="#4F4F4F"/>
<path d="M6.87589 55.0073H5.15692V56.7263H6.87589V55.0073Z" fill="#4F4F4F"/>
<path d="M8.59487 55.0073H6.87589V56.7263H8.59487V55.0073Z" fill="#4F4F4F"/>
<path d="M12.0328 55.0073H10.3138V56.7263H12.0328V55.0073Z" fill="#4F4F4F"/>
<path d="M17.1897 55.0073H15.4708V56.7263H17.1897V55.0073Z" fill="#4F4F4F"/>
<path d="M18.9087 55.0073H17.1897V56.7263H18.9087V55.0073Z" fill="#4F4F4F"/>
<path d="M20.6277 55.0073H18.9087V56.7263H20.6277V55.0073Z" fill="#4F4F4F"/>
<path d="M25.7846 55.0073H24.0656V56.7263H25.7846V55.0073Z" fill="#4F4F4F"/>
<path d="M29.2225 55.0073H27.5036L27.5036 56.7263H29.2225V55.0073Z" fill="#4F4F4F"/>
<path d="M36.0984 55.0073H34.3795V56.7263H36.0984V55.0073Z" fill="#4F4F4F"/>
<path d="M37.8174 55.0073H36.0984V56.7263H37.8174V55.0073Z" fill="#4F4F4F"/>
<path d="M39.5364 55.0073H37.8174V56.7263H39.5364V55.0073Z" fill="#4F4F4F"/>
<path d="M41.2554 55.0073H39.5364V56.7263H41.2554V55.0073Z" fill="#4F4F4F"/>
<path d="M49.8502 55.0073H48.1313V56.7263H49.8502V55.0073Z" fill="#4F4F4F"/>
<path d="M51.5692 55.0073H49.8502V56.7263H51.5692V55.0073Z" fill="#4F4F4F"/>
<path d="M53.2882 55.0073H51.5692V56.7263H53.2882V55.0073Z" fill="#4F4F4F"/>
<path d="M55.0071 55.0073H53.2882V56.7263H55.0071V55.0073Z" fill="#4F4F4F"/>
<path d="M56.7261 55.0073H55.0071V56.7263H56.7261V55.0073Z" fill="#4F4F4F"/>
<path d="M61.883 55.0073H60.1641V56.7263H61.883V55.0073Z" fill="#4F4F4F"/>
<path d="M1.71897 56.7263H0V58.4453H1.71897V56.7263Z" fill="#4F4F4F"/>
<path d="M5.15692 56.7263H3.43795V58.4453H5.15692V56.7263Z" fill="#4F4F4F"/>
<path d="M6.87589 56.7263H5.15692V58.4453H6.87589V56.7263Z" fill="#4F4F4F"/>
<path d="M8.59487 56.7263H6.87589V58.4453H8.59487V56.7263Z" fill="#4F4F4F"/>
<path d="M12.0328 56.7263H10.3138V58.4453H12.0328V56.7263Z" fill="#4F4F4F"/>
<path d="M15.4708 56.7263H13.7518V58.4453H15.4708V56.7263Z" fill="#4F4F4F"/>
<path d="M18.9087 56.7263H17.1897V58.4453H18.9087V56.7263Z" fill="#4F4F4F"/>
<path d="M20.6277 56.7263H18.9087V58.4453H20.6277V56.7263Z" fill="#4F4F4F"/>
<path d="M22.3467 56.7263H20.6277V58.4453H22.3467V56.7263Z" fill="#4F4F4F"/>
<path d="M24.0656 56.7263H22.3467V58.4453H24.0656V56.7263Z" fill="#4F4F4F"/>
<path d="M25.7846 56.7263H24.0656V58.4453H25.7846V56.7263Z" fill="#4F4F4F"/>
<path d="M27.5036 56.7263H25.7846V58.4453H27.5036L27.5036 56.7263Z" fill="#4F4F4F"/>
<path d="M32.6605 56.7263H30.9415V58.4453H32.6605V56.7263Z" fill="#4F4F4F"/>
<path d="M36.0984 56.7263H34.3795V58.4453H36.0984V56.7263Z" fill="#4F4F4F"/>
<path d="M39.5364 56.7263H37.8174V58.4453H39.5364V56.7263Z" fill="#4F4F4F"/>
<path d="M41.2554 56.7263H39.5364V58.4453H41.2554V56.7263Z" fill="#4F4F4F"/>
<path d="M44.6933 56.7263H42.9743V58.4453H44.6933V56.7263Z" fill="#4F4F4F"/>
<path d="M48.1313 56.7263H46.4123V58.4453H48.1313V56.7263Z" fill="#4F4F4F"/>
<path d="M49.8502 56.7263H48.1313V58.4453H49.8502V56.7263Z" fill="#4F4F4F"/>
<path d="M1.71897 58.4453H0V60.1643H1.71897V58.4453Z" fill="#4F4F4F"/>
<path d="M5.15692 58.4453H3.43795V60.1643H5.15692V58.4453Z" fill="#4F4F4F"/>
<path d="M6.87589 58.4453H5.15692V60.1643H6.87589V58.4453Z" fill="#4F4F4F"/>
<path d="M8.59487 58.4453H6.87589V60.1643H8.59487V58.4453Z" fill="#4F4F4F"/>
<path d="M12.0328 58.4453H10.3138V60.1643H12.0328V58.4453Z" fill="#4F4F4F"/>
<path d="M15.4708 58.4453H13.7518V60.1643H15.4708V58.4453Z" fill="#4F4F4F"/>
<path d="M17.1897 58.4453H15.4708V60.1643H17.1897V58.4453Z" fill="#4F4F4F"/>
<path d="M18.9087 58.4453H17.1897V60.1643H18.9087V58.4453Z" fill="#4F4F4F"/>
<path d="M22.3467 58.4453H20.6277L20.6277 60.1643H22.3467V58.4453Z" fill="#4F4F4F"/>
<path d="M27.5036 58.4453H25.7846L25.7846 60.1643H27.5036V58.4453Z" fill="#4F4F4F"/>
<path d="M29.2225 58.4453H27.5036V60.1643H29.2225V58.4453Z" fill="#4F4F4F"/>
<path d="M36.0984 58.4453H34.3795V60.1643H36.0984V58.4453Z" fill="#4F4F4F"/>
<path d="M37.8174 58.4453H36.0984V60.1643H37.8174V58.4453Z" fill="#4F4F4F"/>
<path d="M48.1313 58.4453H46.4123V60.1643H48.1313V58.4453Z" fill="#4F4F4F"/>
<path d="M56.7261 58.4453H55.0071V60.1643H56.7261V58.4453Z" fill="#4F4F4F"/>
<path d="M58.4451 58.4453H56.7261V60.1643H58.4451V58.4453Z" fill="#4F4F4F"/>
<path d="M1.71897 60.1643H0V61.8832H1.71897V60.1643Z" fill="#4F4F4F"/>
<path d="M12.0328 60.1643H10.3138V61.8832H12.0328V60.1643Z" fill="#4F4F4F"/>
<path d="M15.4708 60.1643H13.7518V61.8832H15.4708V60.1643Z" fill="#4F4F4F"/>
<path d="M17.1897 60.1643H15.4708V61.8832H17.1897V60.1643Z" fill="#4F4F4F"/>
<path d="M18.9087 60.1643H17.1897V61.8832H18.9087V60.1643Z" fill="#4F4F4F"/>
<path d="M25.7846 60.1643H24.0656V61.8832H25.7846L25.7846 60.1643Z" fill="#4F4F4F"/>
<path d="M27.5036 60.1643H25.7846L25.7846 61.8832H27.5036V60.1643Z" fill="#4F4F4F"/>
<path d="M29.2225 60.1643H27.5036V61.8832H29.2225V60.1643Z" fill="#4F4F4F"/>
<path d="M30.9415 60.1643H29.2225V61.8832H30.9415V60.1643Z" fill="#4F4F4F"/>
<path d="M41.2554 60.1643H39.5364V61.8832H41.2554V60.1643Z" fill="#4F4F4F"/>
<path d="M42.9743 60.1643H41.2554V61.8832H42.9743V60.1643Z" fill="#4F4F4F"/>
<path d="M46.4123 60.1643H44.6933V61.8832H46.4123V60.1643Z" fill="#4F4F4F"/>
<path d="M49.8502 60.1643H48.1313V61.8832H49.8502V60.1643Z" fill="#4F4F4F"/>
<path d="M51.5692 60.1643H49.8502V61.8832H51.5692V60.1643Z" fill="#4F4F4F"/>
<path d="M53.2882 60.1643H51.5692V61.8832H53.2882V60.1643Z" fill="#4F4F4F"/>
<path d="M55.0071 60.1643H53.2882V61.8832H55.0071V60.1643Z" fill="#4F4F4F"/>
<path d="M56.7261 60.1643H55.0071V61.8832H56.7261V60.1643Z" fill="#4F4F4F"/>
<path d="M60.1641 60.1643H58.4451V61.8832H60.1641V60.1643Z" fill="#4F4F4F"/>
<path d="M1.71897 61.8832H0V63.6022H1.71897V61.8832Z" fill="#4F4F4F"/>
<path d="M3.43795 61.8832H1.71897V63.6022H3.43795V61.8832Z" fill="#4F4F4F"/>
<path d="M5.15692 61.8832H3.43795V63.6022H5.15692V61.8832Z" fill="#4F4F4F"/>
<path d="M6.87589 61.8832H5.15692V63.6022H6.87589V61.8832Z" fill="#4F4F4F"/>
<path d="M8.59487 61.8832H6.87589V63.6022H8.59487V61.8832Z" fill="#4F4F4F"/>
<path d="M10.3138 61.8832H8.59487V63.6022H10.3138V61.8832Z" fill="#4F4F4F"/>
<path d="M12.0328 61.8832H10.3138V63.6022H12.0328V61.8832Z" fill="#4F4F4F"/>
<path d="M18.9087 61.8832H17.1897V63.6022H18.9087V61.8832Z" fill="#4F4F4F"/>
<path d="M20.6277 61.8832H18.9087V63.6022H20.6277V61.8832Z" fill="#4F4F4F"/>
<path d="M22.3467 61.8832H20.6277V63.6022H22.3467V61.8832Z" fill="#4F4F4F"/>
<path d="M24.0656 61.8832H22.3467V63.6022H24.0656V61.8832Z" fill="#4F4F4F"/>
<path d="M25.7846 61.8832H24.0656V63.6022H25.7846V61.8832Z" fill="#4F4F4F"/>
<path d="M27.5036 61.8832H25.7846V63.6022H27.5036V61.8832Z" fill="#4F4F4F"/>
<path d="M29.2225 61.8832H27.5036V63.6022H29.2225V61.8832Z" fill="#4F4F4F"/>
<path d="M32.6605 61.8832H30.9415L30.9415 63.6022H32.6605V61.8832Z" fill="#4F4F4F"/>
<path d="M34.3795 61.8832H32.6605V63.6022H34.3795V61.8832Z" fill="#4F4F4F"/>
<path d="M39.5364 61.8832H37.8174V63.6022H39.5364V61.8832Z" fill="#4F4F4F"/>
<path d="M41.2554 61.8832H39.5364V63.6022H41.2554V61.8832Z" fill="#4F4F4F"/>
<path d="M42.9743 61.8832H41.2554V63.6022H42.9743V61.8832Z" fill="#4F4F4F"/>
<path d="M46.4123 61.8832H44.6933V63.6022H46.4123V61.8832Z" fill="#4F4F4F"/>
<path d="M48.1313 61.8832H46.4123V63.6022H48.1313V61.8832Z" fill="#4F4F4F"/>
<path d="M49.8502 61.8832H48.1313V63.6022H49.8502V61.8832Z" fill="#4F4F4F"/>
<path d="M53.2882 61.8832H51.5692V63.6022H53.2882V61.8832Z" fill="#4F4F4F"/>
<path d="M55.0071 61.8832H53.2882V63.6022H55.0071V61.8832Z" fill="#4F4F4F"/>
<path d="M56.7261 61.8832H55.0071V63.6022H56.7261V61.8832Z" fill="#4F4F4F"/>
<path d="M58.4451 61.8832H56.7261V63.6022H58.4451V61.8832Z" fill="#4F4F4F"/>
<path d="M60.1641 61.8832H58.4451V63.6022H60.1641V61.8832Z" fill="#4F4F4F"/>
<path d="M61.883 61.8832H60.1641V63.6022H61.883V61.8832Z" fill="#4F4F4F"/>
<path d="M63.602 61.8832H61.883V63.6022H63.602V61.8832Z" fill="#4F4F4F"/>
</g>
<path d="M76.4346 3.04688V13H75.1357V3.04688H76.4346ZM79.6338 3.04688V4.12695H71.9434V3.04688H79.6338ZM84.501 11.7354V7.92773C84.501 7.63607 84.4417 7.38314 84.3232 7.16895C84.2093 6.9502 84.0361 6.78158 83.8037 6.66309C83.5713 6.5446 83.2842 6.48535 82.9424 6.48535C82.6234 6.48535 82.3431 6.54004 82.1016 6.64941C81.8646 6.75879 81.6777 6.90234 81.541 7.08008C81.4089 7.25781 81.3428 7.44922 81.3428 7.6543H80.0781C80.0781 7.38997 80.1465 7.12793 80.2832 6.86816C80.4199 6.6084 80.6159 6.3737 80.8711 6.16406C81.1309 5.94987 81.4408 5.78125 81.8008 5.6582C82.1654 5.5306 82.571 5.4668 83.0176 5.4668C83.5553 5.4668 84.0293 5.55794 84.4395 5.74023C84.8542 5.92253 85.1777 6.19824 85.4102 6.56738C85.6471 6.93197 85.7656 7.38997 85.7656 7.94141V11.3867C85.7656 11.6328 85.7861 11.8949 85.8271 12.1729C85.8727 12.4508 85.9388 12.6901 86.0254 12.8906V13H84.7061C84.6423 12.8542 84.5921 12.6605 84.5557 12.4189C84.5192 12.1729 84.501 11.945 84.501 11.7354ZM84.7197 8.51562L84.7334 9.4043H83.4551C83.0951 9.4043 82.7738 9.43392 82.4912 9.49316C82.2087 9.54785 81.9717 9.63216 81.7803 9.74609C81.5889 9.86003 81.443 10.0036 81.3428 10.1768C81.2425 10.3454 81.1924 10.5436 81.1924 10.7715C81.1924 11.0039 81.2448 11.2158 81.3496 11.4072C81.4544 11.5986 81.6117 11.7513 81.8213 11.8652C82.0355 11.9746 82.2975 12.0293 82.6074 12.0293C82.9948 12.0293 83.3366 11.9473 83.6328 11.7832C83.929 11.6191 84.1637 11.4186 84.3369 11.1816C84.5146 10.9447 84.6104 10.7145 84.624 10.4912L85.1641 11.0996C85.1322 11.291 85.0456 11.5029 84.9043 11.7354C84.763 11.9678 84.5739 12.1911 84.3369 12.4053C84.1045 12.6149 83.8265 12.7904 83.5029 12.9316C83.1839 13.0684 82.8239 13.1367 82.4229 13.1367C81.9215 13.1367 81.4818 13.0387 81.1035 12.8428C80.7298 12.6468 80.4382 12.3848 80.2285 12.0566C80.0234 11.724 79.9209 11.3525 79.9209 10.9424C79.9209 10.5459 79.9984 10.1973 80.1533 9.89648C80.3083 9.59115 80.5316 9.33822 80.8232 9.1377C81.1149 8.93262 81.4658 8.77767 81.876 8.67285C82.2861 8.56803 82.7441 8.51562 83.25 8.51562H84.7197ZM83.6328 4.40039H82.7236L82.7168 3.36133C82.9492 3.34766 83.1383 3.32487 83.2842 3.29297C83.43 3.25651 83.5371 3.2041 83.6055 3.13574C83.6738 3.06283 83.708 2.96712 83.708 2.84863C83.708 2.75293 83.6784 2.67318 83.6191 2.60938C83.5599 2.54102 83.4779 2.48633 83.373 2.44531C83.2682 2.39974 83.1475 2.36784 83.0107 2.34961C82.874 2.33138 82.7282 2.32227 82.5732 2.32227L82.6211 1.59766C82.9583 1.59766 83.2546 1.62728 83.5098 1.68652C83.7695 1.74577 83.986 1.83236 84.1592 1.94629C84.3369 2.06022 84.4691 2.19694 84.5557 2.35645C84.6468 2.51139 84.6924 2.68457 84.6924 2.87598C84.6924 3.22233 84.583 3.47526 84.3643 3.63477C84.1455 3.78971 83.904 3.88542 83.6396 3.92188L83.6328 4.40039ZM89.1289 5.60352V13H87.8574V5.60352H89.1289ZM87.7617 3.6416C87.7617 3.43652 87.8232 3.26335 87.9463 3.12207C88.0739 2.98079 88.2607 2.91016 88.5068 2.91016C88.7484 2.91016 88.9329 2.98079 89.0605 3.12207C89.1927 3.26335 89.2588 3.43652 89.2588 3.6416C89.2588 3.83757 89.1927 4.00618 89.0605 4.14746C88.9329 4.28418 88.7484 4.35254 88.5068 4.35254C88.2607 4.35254 88.0739 4.28418 87.9463 4.14746C87.8232 4.00618 87.7617 3.83757 87.7617 3.6416ZM101.557 5.00879H102.527C102.527 5.50553 102.461 5.92253 102.329 6.25977C102.201 6.59701 101.976 6.84993 101.652 7.01855C101.329 7.18717 100.873 7.27148 100.285 7.27148V6.49219C100.695 6.49219 100.989 6.44206 101.167 6.3418C101.345 6.23698 101.454 6.0752 101.495 5.85645C101.536 5.6377 101.557 5.35514 101.557 5.00879ZM99.1572 11.291V5.60352H100.429V13H99.2188L99.1572 11.291ZM99.3965 9.73242L99.9229 9.71875C99.9229 10.2109 99.8704 10.6667 99.7656 11.0859C99.6654 11.5007 99.5013 11.8607 99.2734 12.166C99.0456 12.4714 98.7471 12.7106 98.3779 12.8838C98.0088 13.0524 97.5599 13.1367 97.0312 13.1367C96.6712 13.1367 96.3408 13.0843 96.04 12.9795C95.7438 12.8747 95.4886 12.7129 95.2744 12.4941C95.0602 12.2754 94.8939 11.9906 94.7754 11.6396C94.6615 11.2887 94.6045 10.8672 94.6045 10.375V5.60352H95.8691V10.3887C95.8691 10.7214 95.9056 10.9971 95.9785 11.2158C96.056 11.43 96.1585 11.6009 96.2861 11.7285C96.4183 11.8516 96.5641 11.9382 96.7236 11.9883C96.8877 12.0384 97.0563 12.0635 97.2295 12.0635C97.7673 12.0635 98.1934 11.9609 98.5078 11.7559C98.8223 11.5462 99.0479 11.266 99.1846 10.915C99.3258 10.5596 99.3965 10.1654 99.3965 9.73242ZM96.9355 4.65332L98.2617 2.64355H99.7861L97.9541 4.65332H96.9355ZM104.564 7.18262V13H103.3V5.60352H104.496L104.564 7.18262ZM104.264 9.02148L103.737 9.00098C103.742 8.49512 103.817 8.02799 103.963 7.59961C104.109 7.16667 104.314 6.79069 104.578 6.47168C104.842 6.15267 105.157 5.90658 105.521 5.7334C105.891 5.55566 106.299 5.4668 106.745 5.4668C107.11 5.4668 107.438 5.51693 107.729 5.61719C108.021 5.71289 108.27 5.86784 108.475 6.08203C108.684 6.29622 108.844 6.57422 108.953 6.91602C109.062 7.25326 109.117 7.66569 109.117 8.15332V13H107.846V8.13965C107.846 7.75228 107.789 7.44238 107.675 7.20996C107.561 6.97298 107.395 6.80208 107.176 6.69727C106.957 6.58789 106.688 6.5332 106.369 6.5332C106.055 6.5332 105.768 6.59928 105.508 6.73145C105.253 6.86361 105.032 7.0459 104.845 7.27832C104.662 7.51074 104.519 7.77734 104.414 8.07812C104.314 8.37435 104.264 8.6888 104.264 9.02148ZM115.83 5.60352H116.979V12.8428C116.979 13.4945 116.846 14.0505 116.582 14.5107C116.318 14.971 115.949 15.3197 115.475 15.5566C115.005 15.7982 114.463 15.9189 113.848 15.9189C113.592 15.9189 113.292 15.8779 112.945 15.7959C112.604 15.7184 112.266 15.584 111.934 15.3926C111.605 15.2057 111.33 14.9528 111.106 14.6338L111.77 13.8818C112.079 14.2555 112.403 14.5153 112.74 14.6611C113.082 14.807 113.419 14.8799 113.752 14.8799C114.153 14.8799 114.499 14.8047 114.791 14.6543C115.083 14.5039 115.308 14.2806 115.468 13.9844C115.632 13.6927 115.714 13.3327 115.714 12.9043V7.23047L115.83 5.60352ZM110.737 9.38379V9.24023C110.737 8.67513 110.803 8.16243 110.936 7.70215C111.072 7.2373 111.266 6.83854 111.517 6.50586C111.772 6.17318 112.079 5.91797 112.439 5.74023C112.799 5.55794 113.205 5.4668 113.656 5.4668C114.121 5.4668 114.527 5.54883 114.873 5.71289C115.224 5.8724 115.52 6.1071 115.762 6.41699C116.008 6.72233 116.201 7.09147 116.343 7.52441C116.484 7.95736 116.582 8.44727 116.637 8.99414V9.62305C116.587 10.1654 116.489 10.653 116.343 11.0859C116.201 11.5189 116.008 11.888 115.762 12.1934C115.52 12.4987 115.224 12.7334 114.873 12.8975C114.522 13.057 114.112 13.1367 113.643 13.1367C113.201 13.1367 112.799 13.0433 112.439 12.8564C112.084 12.6696 111.779 12.4076 111.523 12.0703C111.268 11.7331 111.072 11.3366 110.936 10.8809C110.803 10.4206 110.737 9.92155 110.737 9.38379ZM112.002 9.24023V9.38379C112.002 9.75293 112.038 10.0993 112.111 10.4229C112.189 10.7464 112.305 11.0312 112.46 11.2773C112.619 11.5234 112.822 11.7171 113.068 11.8584C113.314 11.9951 113.608 12.0635 113.95 12.0635C114.369 12.0635 114.716 11.9746 114.989 11.7969C115.263 11.6191 115.479 11.3844 115.639 11.0928C115.803 10.8011 115.93 10.4844 116.021 10.1426V8.49512C115.971 8.24447 115.894 8.00293 115.789 7.77051C115.689 7.53353 115.557 7.32389 115.393 7.1416C115.233 6.95475 115.035 6.80664 114.798 6.69727C114.561 6.58789 114.283 6.5332 113.964 6.5332C113.618 6.5332 113.319 6.60612 113.068 6.75195C112.822 6.89323 112.619 7.08919 112.46 7.33984C112.305 7.58594 112.189 7.87305 112.111 8.20117C112.038 8.52474 112.002 8.87109 112.002 9.24023ZM127.034 11.5645V2.5H128.306V13H127.144L127.034 11.5645ZM122.058 9.38379V9.24023C122.058 8.67513 122.126 8.16243 122.263 7.70215C122.404 7.2373 122.602 6.83854 122.857 6.50586C123.117 6.17318 123.425 5.91797 123.78 5.74023C124.14 5.55794 124.541 5.4668 124.983 5.4668C125.448 5.4668 125.854 5.54883 126.2 5.71289C126.551 5.8724 126.847 6.1071 127.089 6.41699C127.335 6.72233 127.529 7.09147 127.67 7.52441C127.811 7.95736 127.909 8.44727 127.964 8.99414V9.62305C127.914 10.1654 127.816 10.653 127.67 11.0859C127.529 11.5189 127.335 11.888 127.089 12.1934C126.847 12.4987 126.551 12.7334 126.2 12.8975C125.849 13.057 125.439 13.1367 124.97 13.1367C124.537 13.1367 124.14 13.0433 123.78 12.8564C123.425 12.6696 123.117 12.4076 122.857 12.0703C122.602 11.7331 122.404 11.3366 122.263 10.8809C122.126 10.4206 122.058 9.92155 122.058 9.38379ZM123.329 9.24023V9.38379C123.329 9.75293 123.366 10.0993 123.438 10.4229C123.516 10.7464 123.634 11.0312 123.794 11.2773C123.953 11.5234 124.156 11.7171 124.402 11.8584C124.648 11.9951 124.942 12.0635 125.284 12.0635C125.703 12.0635 126.048 11.9746 126.316 11.7969C126.59 11.6191 126.809 11.3844 126.973 11.0928C127.137 10.8011 127.264 10.4844 127.355 10.1426V8.49512C127.301 8.24447 127.221 8.00293 127.116 7.77051C127.016 7.53353 126.884 7.32389 126.72 7.1416C126.56 6.95475 126.362 6.80664 126.125 6.69727C125.893 6.58789 125.617 6.5332 125.298 6.5332C124.951 6.5332 124.653 6.60612 124.402 6.75195C124.156 6.89323 123.953 7.08919 123.794 7.33984C123.634 7.58594 123.516 7.87305 123.438 8.20117C123.366 8.52474 123.329 8.87109 123.329 9.24023ZM134.8 11.291V5.60352H136.071V13H134.861L134.8 11.291ZM135.039 9.73242L135.565 9.71875C135.565 10.2109 135.513 10.6667 135.408 11.0859C135.308 11.5007 135.144 11.8607 134.916 12.166C134.688 12.4714 134.39 12.7106 134.021 12.8838C133.651 13.0524 133.202 13.1367 132.674 13.1367C132.314 13.1367 131.983 13.0843 131.683 12.9795C131.386 12.8747 131.131 12.7129 130.917 12.4941C130.703 12.2754 130.536 11.9906 130.418 11.6396C130.304 11.2887 130.247 10.8672 130.247 10.375V5.60352H131.512V10.3887C131.512 10.7214 131.548 10.9971 131.621 11.2158C131.699 11.43 131.801 11.6009 131.929 11.7285C132.061 11.8516 132.207 11.9382 132.366 11.9883C132.53 12.0384 132.699 12.0635 132.872 12.0635C133.41 12.0635 133.836 11.9609 134.15 11.7559C134.465 11.5462 134.69 11.266 134.827 10.915C134.968 10.5596 135.039 10.1654 135.039 9.73242ZM132.004 14.6816C132.004 14.4766 132.065 14.3034 132.188 14.1621C132.316 14.0208 132.503 13.9502 132.749 13.9502C132.991 13.9502 133.175 14.0208 133.303 14.1621C133.435 14.3034 133.501 14.4766 133.501 14.6816C133.501 14.8776 133.435 15.0439 133.303 15.1807C133.175 15.3219 132.991 15.3926 132.749 15.3926C132.503 15.3926 132.316 15.3219 132.188 15.1807C132.065 15.0439 132.004 14.8776 132.004 14.6816ZM139.264 7.18262V13H137.999V5.60352H139.195L139.264 7.18262ZM138.963 9.02148L138.437 9.00098C138.441 8.49512 138.516 8.02799 138.662 7.59961C138.808 7.16667 139.013 6.79069 139.277 6.47168C139.542 6.15267 139.856 5.90658 140.221 5.7334C140.59 5.55566 140.998 5.4668 141.444 5.4668C141.809 5.4668 142.137 5.51693 142.429 5.61719C142.72 5.71289 142.969 5.86784 143.174 6.08203C143.383 6.29622 143.543 6.57422 143.652 6.91602C143.762 7.25326 143.816 7.66569 143.816 8.15332V13H142.545V8.13965C142.545 7.75228 142.488 7.44238 142.374 7.20996C142.26 6.97298 142.094 6.80208 141.875 6.69727C141.656 6.58789 141.387 6.5332 141.068 6.5332C140.754 6.5332 140.467 6.59928 140.207 6.73145C139.952 6.86361 139.731 7.0459 139.544 7.27832C139.362 7.51074 139.218 7.77734 139.113 8.07812C139.013 8.37435 138.963 8.6888 138.963 9.02148ZM150.529 5.60352H151.678V12.8428C151.678 13.4945 151.546 14.0505 151.281 14.5107C151.017 14.971 150.648 15.3197 150.174 15.5566C149.704 15.7982 149.162 15.9189 148.547 15.9189C148.292 15.9189 147.991 15.8779 147.645 15.7959C147.303 15.7184 146.965 15.584 146.633 15.3926C146.305 15.2057 146.029 14.9528 145.806 14.6338L146.469 13.8818C146.779 14.2555 147.102 14.5153 147.439 14.6611C147.781 14.807 148.118 14.8799 148.451 14.8799C148.852 14.8799 149.199 14.8047 149.49 14.6543C149.782 14.5039 150.007 14.2806 150.167 13.9844C150.331 13.6927 150.413 13.3327 150.413 12.9043V7.23047L150.529 5.60352ZM145.437 9.38379V9.24023C145.437 8.67513 145.503 8.16243 145.635 7.70215C145.771 7.2373 145.965 6.83854 146.216 6.50586C146.471 6.17318 146.779 5.91797 147.139 5.74023C147.499 5.55794 147.904 5.4668 148.355 5.4668C148.82 5.4668 149.226 5.54883 149.572 5.71289C149.923 5.8724 150.219 6.1071 150.461 6.41699C150.707 6.72233 150.901 7.09147 151.042 7.52441C151.183 7.95736 151.281 8.44727 151.336 8.99414V9.62305C151.286 10.1654 151.188 10.653 151.042 11.0859C150.901 11.5189 150.707 11.888 150.461 12.1934C150.219 12.4987 149.923 12.7334 149.572 12.8975C149.221 13.057 148.811 13.1367 148.342 13.1367C147.9 13.1367 147.499 13.0433 147.139 12.8564C146.783 12.6696 146.478 12.4076 146.223 12.0703C145.967 11.7331 145.771 11.3366 145.635 10.8809C145.503 10.4206 145.437 9.92155 145.437 9.38379ZM146.701 9.24023V9.38379C146.701 9.75293 146.738 10.0993 146.811 10.4229C146.888 10.7464 147.004 11.0312 147.159 11.2773C147.319 11.5234 147.521 11.7171 147.768 11.8584C148.014 11.9951 148.308 12.0635 148.649 12.0635C149.069 12.0635 149.415 11.9746 149.688 11.7969C149.962 11.6191 150.178 11.3844 150.338 11.0928C150.502 10.8011 150.63 10.4844 150.721 10.1426V8.49512C150.671 8.24447 150.593 8.00293 150.488 7.77051C150.388 7.53353 150.256 7.32389 150.092 7.1416C149.932 6.95475 149.734 6.80664 149.497 6.69727C149.26 6.58789 148.982 6.5332 148.663 6.5332C148.317 6.5332 148.018 6.60612 147.768 6.75195C147.521 6.89323 147.319 7.08919 147.159 7.33984C147.004 7.58594 146.888 7.87305 146.811 8.20117C146.738 8.52474 146.701 8.87109 146.701 9.24023ZM158.445 5.60352V13H157.174V5.60352H158.445ZM157.078 3.6416C157.078 3.43652 157.14 3.26335 157.263 3.12207C157.39 2.98079 157.577 2.91016 157.823 2.91016C158.065 2.91016 158.249 2.98079 158.377 3.12207C158.509 3.26335 158.575 3.43652 158.575 3.6416C158.575 3.83757 158.509 4.00618 158.377 4.14746C158.249 4.28418 158.065 4.35254 157.823 4.35254C157.577 4.35254 157.39 4.28418 157.263 4.14746C157.14 4.00618 157.078 3.83757 157.078 3.6416ZM168.33 7.70898V8.33789C168.33 9.08529 168.237 9.75521 168.05 10.3477C167.863 10.9401 167.594 11.4437 167.243 11.8584C166.892 12.2731 166.471 12.5898 165.979 12.8086C165.491 13.0273 164.944 13.1367 164.338 13.1367C163.75 13.1367 163.21 13.0273 162.718 12.8086C162.23 12.5898 161.806 12.2731 161.446 11.8584C161.091 11.4437 160.815 10.9401 160.619 10.3477C160.423 9.75521 160.325 9.08529 160.325 8.33789V7.70898C160.325 6.96159 160.421 6.29395 160.612 5.70605C160.808 5.11361 161.084 4.61003 161.439 4.19531C161.795 3.77604 162.216 3.45703 162.704 3.23828C163.196 3.01953 163.736 2.91016 164.324 2.91016C164.93 2.91016 165.477 3.01953 165.965 3.23828C166.457 3.45703 166.879 3.77604 167.229 4.19531C167.585 4.61003 167.856 5.11361 168.043 5.70605C168.234 6.29395 168.33 6.96159 168.33 7.70898ZM167.024 8.33789V7.69531C167.024 7.10286 166.963 6.57878 166.84 6.12305C166.721 5.66732 166.546 5.28451 166.313 4.97461C166.081 4.66471 165.796 4.43001 165.459 4.27051C165.126 4.111 164.748 4.03125 164.324 4.03125C163.914 4.03125 163.543 4.111 163.21 4.27051C162.882 4.43001 162.599 4.66471 162.362 4.97461C162.13 5.28451 161.95 5.66732 161.822 6.12305C161.695 6.57878 161.631 7.10286 161.631 7.69531V8.33789C161.631 8.9349 161.695 9.46354 161.822 9.92383C161.95 10.3796 162.132 10.7646 162.369 11.0791C162.611 11.389 162.896 11.6237 163.224 11.7832C163.556 11.9427 163.928 12.0225 164.338 12.0225C164.766 12.0225 165.147 11.9427 165.479 11.7832C165.812 11.6237 166.092 11.389 166.32 11.0791C166.553 10.7646 166.728 10.3796 166.847 9.92383C166.965 9.46354 167.024 8.9349 167.024 8.33789ZM175.61 10.4844C175.61 10.252 175.574 10.0469 175.501 9.86914C175.433 9.68685 175.31 9.52279 175.132 9.37695C174.959 9.23112 174.717 9.09212 174.407 8.95996C174.102 8.8278 173.715 8.69336 173.245 8.55664C172.753 8.41081 172.309 8.24902 171.912 8.07129C171.516 7.889 171.176 7.68164 170.894 7.44922C170.611 7.2168 170.395 6.9502 170.244 6.64941C170.094 6.34863 170.019 6.00456 170.019 5.61719C170.019 5.22982 170.098 4.87207 170.258 4.54395C170.417 4.21582 170.645 3.93099 170.941 3.68945C171.242 3.44336 171.6 3.25195 172.015 3.11523C172.429 2.97852 172.892 2.91016 173.402 2.91016C174.15 2.91016 174.783 3.05371 175.303 3.34082C175.827 3.62337 176.226 3.99479 176.499 4.45508C176.772 4.91081 176.909 5.39844 176.909 5.91797H175.597C175.597 5.54427 175.517 5.21387 175.357 4.92676C175.198 4.63509 174.956 4.40723 174.633 4.24316C174.309 4.07454 173.899 3.99023 173.402 3.99023C172.933 3.99023 172.546 4.06087 172.24 4.20215C171.935 4.34342 171.707 4.53483 171.557 4.77637C171.411 5.0179 171.338 5.29362 171.338 5.60352C171.338 5.81315 171.381 6.00456 171.468 6.17773C171.559 6.34635 171.698 6.50358 171.885 6.64941C172.076 6.79525 172.318 6.92969 172.609 7.05273C172.906 7.17578 173.259 7.29427 173.669 7.4082C174.234 7.56771 174.722 7.74544 175.132 7.94141C175.542 8.13737 175.879 8.3584 176.144 8.60449C176.412 8.84603 176.611 9.12174 176.738 9.43164C176.87 9.73698 176.937 10.0833 176.937 10.4707C176.937 10.8763 176.854 11.2432 176.69 11.5713C176.526 11.8994 176.292 12.1797 175.986 12.4121C175.681 12.6445 175.314 12.8245 174.886 12.9521C174.462 13.0752 173.988 13.1367 173.464 13.1367C173.004 13.1367 172.55 13.0729 172.104 12.9453C171.661 12.8177 171.258 12.6263 170.894 12.3711C170.534 12.1159 170.244 11.8014 170.025 11.4277C169.811 11.0495 169.704 10.612 169.704 10.1152H171.017C171.017 10.457 171.083 10.751 171.215 10.9971C171.347 11.2386 171.527 11.4391 171.755 11.5986C171.987 11.7581 172.249 11.8766 172.541 11.9541C172.837 12.027 173.145 12.0635 173.464 12.0635C173.924 12.0635 174.314 11.9997 174.633 11.8721C174.952 11.7445 175.193 11.5622 175.357 11.3252C175.526 11.0882 175.61 10.8079 175.61 10.4844ZM178.372 12.3301C178.372 12.1159 178.438 11.9359 178.57 11.79C178.707 11.6396 178.903 11.5645 179.158 11.5645C179.413 11.5645 179.607 11.6396 179.739 11.79C179.876 11.9359 179.944 12.1159 179.944 12.3301C179.944 12.5397 179.876 12.7174 179.739 12.8633C179.607 13.0091 179.413 13.082 179.158 13.082C178.903 13.082 178.707 13.0091 178.57 12.8633C178.438 12.7174 178.372 12.5397 178.372 12.3301ZM178.379 6.29395C178.379 6.07975 178.445 5.89974 178.577 5.75391C178.714 5.60352 178.91 5.52832 179.165 5.52832C179.42 5.52832 179.614 5.60352 179.746 5.75391C179.883 5.89974 179.951 6.07975 179.951 6.29395C179.951 6.50358 179.883 6.68132 179.746 6.82715C179.614 6.97298 179.42 7.0459 179.165 7.0459C178.91 7.0459 178.714 6.97298 178.577 6.82715C178.445 6.68132 178.379 6.50358 178.379 6.29395Z" fill="black"/>
<path d="M184.071 23.8509H82.8173C82.4256 23.8509 82.0339 23.8509 81.6422 23.8509C81.2505 23.8509 81.0547 23.8509 80.663 23.8509C80.0754 23.8509 79.292 23.8509 78.7045 24.0467C78.1169 24.2426 77.3335 24.4384 76.746 24.6343C76.1584 25.026 75.5709 25.4177 75.1792 25.8094C74.7875 26.2011 74.1999 26.7886 74.0041 27.3762C73.6124 27.9637 73.4165 28.5513 73.4165 29.3347C73.2207 29.9222 73.2207 30.7056 73.2207 31.2932C73.2207 31.6849 73.2207 31.8807 73.2207 32.2724V55.5785C73.2207 55.9702 73.2207 56.166 73.2207 56.5577C73.2207 57.1453 73.2207 57.9287 73.4165 58.5162C73.6124 59.1038 73.8082 59.8872 74.0041 60.4747C74.3958 61.0623 74.7875 61.6498 75.1792 62.0415C75.5709 62.4332 76.1584 63.0208 76.746 63.2166C77.3335 63.6083 77.9211 63.8042 78.7045 63.8042C79.292 64 80.0754 64 80.663 64C81.0547 64 81.2505 64 81.6422 64C82.0339 64 82.4256 64 82.8173 64H184.071C184.463 64 184.855 64 185.247 64C185.638 64 185.834 64 186.226 64C186.813 64 187.597 64 188.184 63.8042C188.772 63.6083 189.555 63.4125 190.143 63.2166C190.73 62.8249 191.318 62.4332 191.71 62.0415C192.101 61.6498 192.493 61.0623 192.885 60.4747C193.276 59.8872 193.472 59.2996 193.472 58.5162C193.668 57.9287 193.668 57.1453 193.668 56.5577C193.668 56.166 193.668 55.9702 193.668 55.5785C193.668 55.1868 193.668 54.7951 193.668 54.4034V33.4475C193.668 33.0558 193.668 32.6641 193.668 32.2724C193.668 31.8807 193.668 31.6849 193.668 31.2932C193.668 30.7056 193.668 29.9222 193.472 29.3347C193.276 28.7471 193.081 27.9637 192.885 27.3762C192.297 26.2011 191.318 25.2218 190.143 24.6343C189.555 24.2426 188.968 24.0467 188.184 24.0467C187.597 23.8509 186.813 23.8509 186.226 23.8509C185.834 23.8509 185.638 23.8509 185.247 23.8509C184.855 23.8509 184.463 23.8509 184.071 23.8509Z" fill="black"/>
<path d="M81.6435 63.2166C81.2518 63.2166 81.056 63.2166 80.6643 63.2166C80.0768 63.2166 79.4892 63.2166 78.7058 63.0208C78.1183 62.8249 77.5307 62.8249 76.9432 62.4332C76.3556 62.2374 75.9639 61.8457 75.5722 61.454C75.1805 61.0623 74.7888 60.4747 74.593 60.083C74.3971 59.4955 74.2013 58.9079 74.0054 58.3204C73.8096 57.7328 73.8096 57.1453 73.8096 56.3619C73.8096 56.166 73.8096 55.3826 73.8096 55.3826V32.2724C73.8096 32.2724 73.8096 31.489 73.8096 31.2932C73.8096 30.7056 73.8096 30.1181 74.0054 29.3347C74.0054 28.7471 74.2013 28.1596 74.593 27.572C74.9847 27.3762 75.3764 26.7886 75.7681 26.3969C76.1598 26.0052 76.7473 25.6135 77.139 25.4177C77.7266 25.2218 78.3141 25.026 78.9017 24.8301C79.4892 24.6343 80.0767 24.6343 80.8601 24.6343H81.8394H185.444H186.423C187.011 24.6343 187.598 24.6343 188.381 24.8301C188.969 25.026 189.557 25.026 190.144 25.4177C191.123 26.0052 192.103 26.7886 192.494 27.7679C192.69 28.3554 192.886 28.943 193.082 29.3347C193.278 29.9222 193.278 30.5098 193.278 31.2932C193.278 31.489 193.278 31.8807 193.278 32.2724C193.278 32.6641 193.278 33.0558 193.278 33.4475V54.5992C193.278 54.9909 193.278 55.3826 193.278 55.7743C193.278 56.166 193.278 56.3619 193.278 56.7536C193.278 57.3411 193.278 57.9287 193.082 58.7121C193.082 59.2996 192.886 59.8872 192.494 60.4747C192.298 61.0623 191.907 61.454 191.515 61.8457C191.123 62.2374 190.536 62.6291 190.144 62.8249C189.557 63.0208 188.969 63.2166 188.381 63.4125C187.794 63.6083 187.206 63.6083 186.423 63.6083C186.031 63.6083 185.835 63.6083 185.444 63.6083H184.269L81.6435 63.2166Z" fill="white"/>
<path d="M98.2884 43.8279C98.2884 42.0652 99.2677 40.4984 100.834 39.5192C99.8552 38.1482 98.2884 37.169 96.7216 37.169C94.959 36.9731 93.1963 38.1482 92.4129 38.1482C91.4337 38.1482 90.0627 37.169 88.4959 37.169C86.5374 37.169 84.7748 38.3441 83.7955 40.1067C81.8371 43.632 83.208 48.7241 85.1665 51.6618C86.1457 53.0328 87.3208 54.5996 88.6918 54.5996C90.0627 54.5996 90.6503 53.6203 92.4129 53.6203C94.1756 53.6203 94.5673 54.5996 96.1341 54.5996C97.7009 54.5996 98.6801 53.2286 99.6593 51.8577C100.443 50.8784 100.834 49.7034 101.226 48.5283C99.6594 47.549 98.2884 45.7864 98.2884 43.8279Z" fill="black"/>
<path d="M95.5461 35.4061C96.3295 34.4269 96.7212 33.0559 96.7212 31.685C95.3503 31.8808 94.1752 32.4684 93.3918 33.4476C92.6084 34.4269 92.0208 35.602 92.2167 36.9729C93.3918 36.9729 94.7627 36.3854 95.5461 35.4061Z" fill="black"/>
<path d="M115.719 51.0746H111.018L109.843 54.404H107.885L112.389 41.8696H114.544L119.048 54.404H117.09L115.719 51.0746ZM111.606 49.5078H115.327L113.369 44.024L111.606 49.5078Z" fill="black"/>
<path d="M128.841 49.8991C128.841 52.641 127.274 54.5994 125.12 54.5994C123.945 54.5994 122.77 54.0119 122.182 53.0327V57.5372H120.224V45.3945H121.986V46.9613C122.574 45.9821 123.749 45.3945 124.924 45.3945C127.274 45.1987 128.841 47.1572 128.841 49.8991ZM126.883 49.8991C126.883 48.1364 125.903 46.7655 124.532 46.7655C123.161 46.7655 122.182 47.9406 122.182 49.8991C122.182 51.6617 123.161 53.0327 124.532 53.0327C125.903 53.0327 126.883 51.8576 126.883 49.8991Z" fill="black"/>
<path d="M138.832 49.8991C138.832 52.641 137.265 54.5994 135.111 54.5994C133.936 54.5994 132.761 54.0119 132.173 53.0327V57.5372H130.215V45.3945H131.977V46.9613C132.565 45.9821 133.74 45.3945 134.915 45.3945C137.265 45.1987 138.832 47.1572 138.832 49.8991ZM136.874 49.8991C136.874 48.1364 135.894 46.7655 134.524 46.7655C133.153 46.7655 132.173 47.9406 132.173 49.8991C132.173 51.6617 133.153 53.0327 134.524 53.0327C135.894 53.0327 136.874 51.8576 136.874 49.8991Z" fill="black"/>
<path d="M145.487 51.0744C145.683 52.2495 146.858 53.0328 148.425 53.0328C149.991 53.0328 151.166 52.2495 151.166 51.0744C151.166 50.0951 150.579 49.5076 148.816 49.1159L147.249 48.7242C144.899 48.1366 143.92 47.1574 143.92 45.3947C143.92 43.2404 145.879 41.6736 148.425 41.6736C151.166 41.6736 152.929 43.2404 152.929 45.3947H150.971C150.775 44.2196 149.796 43.4362 148.229 43.4362C146.662 43.4362 145.683 44.2196 145.683 45.3947C145.683 46.374 146.27 46.7657 148.033 47.1574L149.404 47.5491C151.95 48.1366 153.125 49.1159 153.125 51.0744C153.125 53.4245 151.166 54.7955 148.229 54.7955C145.487 54.7955 143.528 53.4245 143.528 51.0744H145.487Z" fill="black"/>
<path d="M157.043 43.2403V45.3947H158.805V46.9615H157.043V52.0535C157.043 52.8369 157.434 53.2286 158.218 53.2286C158.414 53.2286 158.61 53.2286 158.805 53.2286V54.7954C158.414 54.7954 158.022 54.7954 157.826 54.7954C156.064 54.7954 155.28 54.012 155.28 52.2494V46.9615H153.909V45.3947H155.28V43.2403H157.043Z" fill="black"/>
<path d="M159.784 49.8993C159.784 46.9615 161.547 45.1989 164.093 45.1989C166.835 45.1989 168.402 46.9615 168.402 49.8993C168.402 52.837 166.639 54.5997 164.093 54.5997C161.547 54.5997 159.784 52.837 159.784 49.8993ZM166.639 49.8993C166.639 47.9408 165.66 46.7657 164.289 46.7657C162.918 46.7657 161.939 47.9408 161.939 49.8993C161.939 51.8578 162.918 53.0329 164.289 53.0329C165.66 53.0329 166.639 51.8578 166.639 49.8993Z" fill="black"/>
<path d="M170.164 45.3947H171.926V46.9615C172.122 45.9823 173.101 45.1989 174.081 45.3947C174.276 45.3947 174.472 45.3947 174.668 45.3947V47.1574C174.472 47.1574 174.081 46.9615 173.885 46.9615C172.906 46.9615 171.926 47.7449 171.926 48.7242V48.92V54.4038H169.968L170.164 45.3947Z" fill="black"/>
<path d="M183.29 51.8578C183.094 53.4246 181.332 54.5997 179.373 54.5997C176.631 54.5997 175.064 52.837 175.064 49.8993C175.064 46.9615 176.631 45.1989 179.373 45.1989C181.919 45.1989 183.486 46.9615 183.486 49.7034V50.291H177.023V50.4868C176.827 51.8578 177.806 53.0329 179.177 53.0329C179.373 53.0329 179.373 53.0329 179.569 53.0329C180.548 53.0329 181.332 52.6412 181.723 51.6619L183.29 51.8578ZM177.023 49.1159H181.527C181.527 47.9408 180.744 46.9615 179.373 46.7657H179.177C178.002 46.7657 177.023 47.7449 177.023 49.1159Z" fill="black"/>
<path d="M110.627 38.5393V33.4472H108.669V32.468H113.369V33.2514H111.411V38.3435L110.627 38.5393Z" fill="black"/>
<path d="M113.757 37.3643C113.757 36.5809 114.344 35.9934 115.519 35.9934H116.695V35.4058C116.695 35.0141 116.303 34.6224 115.715 34.6224C115.128 34.6224 114.932 34.8183 114.736 35.21H113.953C113.953 34.4266 114.736 33.839 115.715 33.839C116.89 33.839 117.478 34.4266 117.478 35.4058V38.5394H116.695V37.9519C116.499 38.3436 115.911 38.7353 115.324 38.7353C114.54 38.7353 113.757 38.1477 113.757 37.3643ZM116.695 36.9726V36.5809H115.519C114.932 36.5809 114.54 36.7768 114.54 37.1685C114.54 37.5602 114.932 37.756 115.324 37.756C116.107 37.9519 116.695 37.5602 116.695 36.9726ZM115.128 31.8806C115.324 31.8806 115.519 31.8806 115.715 31.8806C116.303 31.8806 116.695 32.2723 116.695 32.664C116.695 33.0556 116.303 33.4473 115.911 33.6432L115.519 33.2515C115.715 33.2515 115.911 33.0557 115.911 32.8598C115.911 32.664 115.715 32.4681 115.519 32.4681C115.324 32.4681 115.128 32.4681 115.128 32.4681V31.8806Z" fill="black"/>
<path d="M118.851 32.6637C118.851 32.272 119.046 32.0762 119.438 32.0762C119.83 32.0762 120.026 32.272 120.026 32.6637C120.026 33.0554 119.83 33.2513 119.438 33.2513C119.046 33.2513 118.851 33.0554 118.851 32.6637ZM119.046 34.0347H120.026V38.5392H119.046V34.0347Z" fill="black"/>
<path d="M125.904 38.5393H124.925L123.358 34.0347H124.338L125.513 37.56L126.688 34.0347H127.667L125.904 38.5393Z" fill="black"/>
<path d="M132.365 37.3644C132.17 38.1478 131.19 38.7353 130.407 38.7353C129.232 38.7353 128.253 37.9519 128.253 36.7768C128.253 36.581 128.253 36.581 128.253 36.3851C128.057 35.21 128.84 34.2308 130.015 34.0349C130.211 34.0349 130.211 34.0349 130.407 34.0349C131.582 34.0349 132.365 34.8183 132.365 36.3851V36.7768H129.232C129.232 37.3644 129.624 37.9519 130.407 38.1478C130.407 38.1478 130.407 38.1478 130.603 38.1478C130.995 38.1478 131.386 37.9519 131.778 37.5602L132.365 37.3644ZM131.974 33.4474H130.995L130.211 32.664L129.428 33.4474H128.644L129.819 32.0764H130.799L131.974 33.4474ZM129.232 35.7976H131.582C131.582 35.21 131.19 34.6225 130.603 34.6225C130.603 34.6225 130.603 34.6225 130.407 34.6225C129.624 34.6225 129.232 35.21 129.232 35.7976ZM131.386 31.8806L130.603 30.7055H131.582L132.365 32.0764L131.386 31.8806Z" fill="black"/>
<path d="M137.266 32.8601V34.0352H138.245V34.8186H137.266V37.1688C137.266 37.5605 137.462 37.7563 137.854 37.7563C138.049 37.7563 138.049 37.7563 138.245 37.7563V38.5397C138.049 38.5397 137.854 38.5397 137.854 38.5397C136.874 38.5397 136.483 38.148 136.483 37.3646V34.8186H135.699V34.0352H136.483V32.8601H137.266Z" fill="black"/>
<path d="M139.417 34.0347H140.2V34.8181C140.396 34.2306 140.984 34.0347 141.376 34.0347C141.571 34.0347 141.571 34.0347 141.767 34.0347V35.014C141.571 35.014 141.376 35.014 141.18 35.014C140.592 35.014 140.005 35.4057 140.005 35.9932C140.005 35.9932 140.005 35.9932 140.005 36.1891V38.931H139.025V34.0347H139.417Z" fill="black"/>
<path d="M146.664 37.3641C146.469 38.1475 145.489 38.7351 144.706 38.7351C143.531 38.7351 142.552 37.9517 142.552 36.7766C142.552 36.5807 142.552 36.5807 142.552 36.3849C142.356 35.2098 143.335 34.0347 144.314 34.0347C144.51 34.0347 144.51 34.0347 144.706 34.0347C145.881 34.0347 146.664 34.8181 146.664 36.3849V36.7766H143.531C143.531 37.3641 143.923 37.9517 144.706 38.1475C144.706 38.1475 144.706 38.1475 144.902 38.1475C145.293 38.1475 145.685 37.9517 146.077 37.56L146.664 37.3641ZM146.273 33.4471H145.293L144.51 32.4679L143.727 33.4471H142.747L143.923 32.0762H144.902L146.273 33.4471ZM143.531 35.7973H145.881C145.881 35.2098 145.489 34.6222 144.902 34.6222C144.902 34.6222 144.902 34.6222 144.706 34.6222C144.118 34.6222 143.531 35.2098 143.531 35.7973Z" fill="black"/>
<path d="M147.841 34.0347H148.624V34.8181C148.82 34.2306 149.408 34.0347 149.995 34.0347C150.779 34.0347 151.562 34.6223 151.562 35.4057C151.562 35.6015 151.562 35.6015 151.562 35.7974V38.7351H150.583V35.7974C150.583 35.014 150.191 34.6223 149.604 34.6223C149.016 34.6223 148.624 35.014 148.428 35.6015V35.7974V38.5393H147.449V34.0347H147.841Z" fill="black"/>
<defs>
<clipPath id="clip0_8600_292534">
<rect width="63.602" height="63.6022" fill="white"/>
</clipPath>
</defs>
</svg>
